<svg width="312" height="288" viewBox="0 0 312 288" fill="none" xmlns="http://www.w3.org/2000/svg">
<path d="M292.171 0.521501C313.824 31.8168 323.649 61.5872 283.721 48.0571M283.721 48.0571C276.738 45.6907 268.232 41.9997 258.002 36.7607C201.102 7.62124 196.264 23.0881 208.531 48.551M283.721 48.0571C280.351 40.7679 275.452 32.5999 269.727 24.3253M283.721 48.0571C293.098 68.3363 290.648 81.8136 261.277 71.8608M208.531 48.551C212.244 56.2577 217.524 64.8801 223.401 73.4587M208.531 48.551C215.822 51.1044 224.751 55.0298 235.559 60.5645C245.789 65.8035 254.294 69.4944 261.277 71.8608M208.531 48.551C177.438 37.6611 176.151 51.7282 186.088 72.3547M261.277 71.8608C257.907 64.5716 253.009 56.4036 247.284 48.129M261.277 71.8608C270.654 92.14 268.204 105.617 238.833 95.6646M186.088 72.3547C189.8 80.0615 195.08 88.6839 200.957 97.2624M186.088 72.3547C193.378 74.9081 202.307 78.8336 213.115 84.3682C223.345 89.6072 231.85 93.2982 238.833 95.6646M186.088 72.3547C154.994 61.4649 153.707 75.532 163.644 96.1585M238.833 95.6646C235.463 88.3754 230.565 80.2074 224.84 71.9328M238.833 95.6646C248.21 115.944 245.76 129.421 216.39 119.468M163.644 96.1585C167.357 103.865 172.636 112.488 178.514 121.066M163.644 96.1585C170.934 98.7119 179.864 102.637 190.671 108.172C200.901 113.411 209.406 117.102 216.39 119.468M163.644 96.1585C132.55 85.2686 131.263 99.3358 141.2 119.962M216.39 119.468C213.019 112.179 208.121 104.011 202.396 95.7365M216.39 119.468C225.766 139.748 223.317 153.225 193.946 143.272M141.2 119.962C144.913 127.669 150.192 136.291 156.07 144.87M141.2 119.962C148.491 122.516 157.42 126.441 168.227 131.976C178.457 137.215 186.963 140.906 193.946 143.272M141.2 119.962C110.107 109.072 108.819 123.14 118.756 143.766M193.946 143.272C190.576 135.983 185.677 127.815 179.952 119.54M193.946 143.272C203.322 163.551 200.873 177.029 171.502 167.076M118.756 143.766C122.469 151.473 127.749 160.095 133.626 168.674M118.756 143.766C126.047 146.319 134.976 150.245 145.784 155.78C156.014 161.019 164.519 164.709 171.502 167.076M118.756 143.766C87.6628 132.876 86.3756 146.943 96.3125 167.57M171.502 167.076C168.132 159.787 163.234 151.619 157.508 143.344M171.502 167.076C180.879 187.355 178.429 200.832 149.058 190.88M96.3125 167.57C100.025 175.277 105.305 183.899 111.182 192.477M96.3125 167.57C103.603 170.123 112.532 174.049 123.34 179.583C133.57 184.822 142.075 188.513 149.058 190.88M96.3125 167.57C65.2191 156.68 63.9318 170.747 73.8687 191.374M149.058 190.88C145.688 183.59 140.79 175.422 135.065 167.148M149.058 190.88C158.435 211.159 155.985 224.636 126.615 214.683M73.8687 191.374C77.5815 199.08 82.8612 207.703 88.7385 216.281M73.8687 191.374C81.1593 193.927 90.0885 197.852 100.896 203.387C111.126 208.626 119.631 212.317 126.615 214.683M73.8687 191.374C42.7753 180.484 41.4881 194.551 51.425 215.177M126.615 214.683C123.244 207.394 118.346 199.226 112.621 190.952M126.615 214.683C135.991 234.963 133.542 248.44 104.171 238.487M51.425 215.177C55.1377 222.884 60.4174 231.506 66.2947 240.085M51.425 215.177C58.7155 217.731 67.6448 221.656 78.4522 227.191C88.6823 232.43 97.1875 236.121 104.171 238.487M51.425 215.177C20.3316 204.287 19.0443 218.355 28.9812 238.981M104.171 238.487C100.801 231.198 95.9023 223.03 90.1772 214.755M104.171 238.487C115.777 263.588 109.265 278.268 56.0085 250.995C45.201 245.46 36.2718 241.534 28.9812 238.981M28.9812 238.981C32.694 246.688 37.9737 255.31 43.851 263.889M28.9812 238.981C-13.7297 224.022 -0.200321 256.154 21.4072 287.692" stroke="url(#paint0_linear_154_21)"/>
<defs>
<linearGradient id="paint0_linear_154_21" x1="189.433" y1="174.96" x2="122.304" y2="111.667" gradientUnits="userSpaceOnUse">
<stop stop-color="#542FA9"/>
<stop offset="0.0001" stop-color="#542FA9"/>
<stop offset="0.502062" stop-color="#7333B7"/>
<stop offset="0.911458" stop-color="#8D36C3"/>
</linearGradient>
</defs>
</svg>
