<svg width="24" height="24" viewBox="0 0 24 24" fill="none" xmlns="http://www.w3.org/2000/svg">
<path d="M8.85428 21.5708C10.8951 22.2539 13.1028 22.2542 15.1438 21.5715C14.8845 21.6548 14.6068 21.5121 14.5236 21.2528C14.5073 21.2021 14.4993 21.1491 14.5 21.0958C14.5 20.7583 14.5125 19.6833 14.5125 18.3458C14.5667 17.6604 14.3204 16.9852 13.8375 16.4958C16.0625 16.2458 18.4 15.3958 18.4 11.5583C18.4164 10.564 18.0493 9.60161 17.375 8.87078C17.6807 8.007 17.6449 7.05906 17.275 6.22078C17.275 6.22078 16.4375 5.94578 14.525 7.24578C12.8887 6.79574 11.1613 6.79574 9.52498 7.24578C7.61245 5.9583 6.77498 6.22078 6.77498 6.22078C6.405 7.05906 6.36923 8.007 6.67498 8.87078C6.00265 9.60285 5.63591 10.5644 5.64998 11.5583C5.64998 15.3833 7.97498 16.2458 10.2 16.4958C9.83229 16.8495 9.60572 17.3249 9.56246 17.8333C8.53264 18.4104 7.22998 18.0434 6.65289 17.0136C6.65192 17.0118 6.65094 17.0101 6.64997 17.0083C6.33533 16.4363 5.76146 16.0537 5.11244 15.9833C4.27497 15.9958 4.77497 16.4583 5.12495 16.6458C5.5762 17.0265 5.928 17.5113 6.14997 18.0583C6.34997 18.6208 6.99997 19.6958 9.51246 19.2333C9.51246 20.0708 9.52497 20.8583 9.52497 21.0958C9.52497 21.3548 9.33957 21.647 8.85428 21.5708Z" fill="#D61914"/>
<path d="M12 2.08301C6.47717 2.08301 2 6.56018 2 12.083C2 16.506 4.87469 20.2517 8.85516 21.5708C9.33978 21.6464 9.52502 21.3546 9.52502 21.0958C9.52502 20.8583 9.51251 20.0708 9.51251 19.2333C7 19.6958 6.34998 18.6208 6.15002 18.0583C5.92804 17.5112 5.57623 17.0265 5.125 16.6458C4.77502 16.4583 4.27502 15.9958 5.11249 15.9833C5.76148 16.0537 6.33539 16.4363 6.65003 17.0083C6.65101 17.0101 6.65198 17.0118 6.65296 17.0135C7.23005 18.0433 8.53266 18.4103 9.56251 17.8332C9.60578 17.3249 9.83235 16.8495 10.2 16.4958C7.97504 16.2458 5.65003 15.3832 5.65003 11.5583C5.63593 10.5644 6.00269 9.60284 6.67499 8.87078C6.36926 8.00696 6.40503 7.05902 6.77502 6.22076C6.77502 6.22076 7.61248 5.95825 9.52502 7.24578C11.1613 6.79571 12.8887 6.79571 14.525 7.24578C16.4375 5.94573 17.275 6.22076 17.275 6.22076C17.645 7.05902 17.6807 8.00695 17.375 8.87078C18.0493 9.60161 18.4164 10.564 18.4 11.5583C18.4 15.3957 16.0625 16.2458 13.8375 16.4958C14.3204 16.9852 14.5668 17.6603 14.5125 18.3458C14.5125 19.6833 14.5 20.7583 14.5 21.0958C14.4993 21.149 14.5073 21.2021 14.5236 21.2528C14.6067 21.5116 14.8837 21.654 15.1426 21.5716C19.1243 20.2532 22 16.5068 22 12.083C22 6.56018 17.5228 2.08301 12 2.08301Z" fill="#5A0000"/>
</svg>
