<svg width="84" height="184" viewBox="0 0 84 184" fill="none" xmlns="http://www.w3.org/2000/svg">
<path d="M67.2015 61.1286C68.8523 60.7649 70.1865 60.4562 71.0458 60.2138C68.7053 57.5685 67.7669 56.2458 66.2404 54.361C66.2404 54.361 66.5457 56.4111 67.1902 61.1065L67.2015 61.1286ZM68.3322 69.351V69.4502C69.9943 80.7589 71.9391 93.2579 72.0748 95.6938L27.6842 95.6166C27.8312 87.835 31.0762 66.0444 32.9418 54.835C31.9581 55.2318 14.6474 61.4482 12.5895 59.4092V59.354C11.1536 51.33 9.31057 42.5785 8.25903 35.9873L13.121 33.9262C13.8785 36.2298 17.1801 44.6616 19.2493 49.0815C23.8879 44.919 28.9537 41.2329 34.3665 38.0815C37.7585 36.2959 43.2989 36.5163 43.2989 36.5163C43.3698 36.0088 43.5678 35.5262 43.8754 35.1109C44.183 34.6957 44.5908 34.3607 45.0628 34.1356L45.3907 34.0143C49.1784 33.0003 56.1208 33.7278 56.9915 34.2458C57.7205 34.7956 58.2319 35.5745 58.4387 36.4502C58.4387 36.4502 67.6764 37.7729 70.39 39.9442C70.39 39.9442 78.6214 50.9111 82.7371 59.5194C84.2522 62.6827 83.6756 64.6226 80.9167 66.1326C79.3337 67.1687 73.9065 68.4031 68.3548 69.351H68.3322ZM53.0115 64.9422C53.215 64.4132 51.9599 62.9252 50.4787 62.8039H50.3317L50.8971 58.0865C50.8971 57.5023 48.6357 56.9843 45.9108 56.9843C43.1858 56.9843 40.9358 57.4693 40.9358 58.0865C40.9374 58.1544 40.9611 58.22 41.0036 58.2739L41.6142 63.5093C41.6091 63.5385 41.6091 63.5683 41.6142 63.5975C41.4511 63.5873 41.2877 63.6116 41.1353 63.6689C40.9828 63.7261 40.8448 63.8148 40.7309 63.929C40.617 64.0432 40.5299 64.1801 40.4754 64.3303C40.421 64.4804 40.4006 64.6403 40.4157 64.7989C40.4721 65.1699 40.6185 65.5224 40.8427 65.8272C41.0668 66.132 41.3623 66.3802 41.7046 66.5514C41.5545 66.5191 41.3989 66.5192 41.2489 66.5518C41.0988 66.5844 40.9579 66.6487 40.8361 66.7401C40.7143 66.8315 40.6145 66.9479 40.5438 67.081C40.4731 67.214 40.4332 67.3606 40.4269 67.5104C40.4991 67.8448 40.6501 68.1583 40.8679 68.4261C41.0857 68.6939 41.3644 68.9087 41.682 69.0534C41.5436 69.0088 41.3964 68.9963 41.2521 69.0168C41.1078 69.0373 40.9704 69.0903 40.8508 69.1716C40.7311 69.2529 40.6326 69.3603 40.563 69.4852C40.4933 69.6101 40.4545 69.7491 40.4496 69.8911C40.4496 70.4202 41.2184 71.0815 42.5979 71.5444V71.809L42.9371 74.7739C43.8813 75.043 44.8592 75.1839 45.8429 75.1927C46.9149 75.1712 47.9808 75.0307 49.0201 74.7739L49.3367 71.9743V71.7979C50.7602 71.5449 52.1542 71.1535 53.4977 70.6296L53.6899 70.4753C52.6836 69.4943 51.9599 66.32 53.0341 64.9422H53.0115Z" fill="url(#paint0_linear_254_206)"/>
<path d="M45.1648 180.861V180.795H26.859C26.3276 177.863 28.5663 176.573 30.9295 176.309C35.8479 175.747 41.7501 172.694 42.6659 172.506H52.7516C52.7516 174.204 52.7516 175.24 52.7516 175.449V175.582C51.5994 175.925 50.4192 176.172 49.2239 176.32C46.8608 176.618 44.6107 177.907 45.1648 180.861Z" fill="#DD1818"/>
<path d="M45.1645 180.795V180.861C44.6105 177.907 46.8605 176.618 49.2236 176.353C50.419 176.205 51.5991 175.958 52.7514 175.615C56.6296 174.512 60.2591 172.694 60.9601 172.55H71.3059C71.3059 177.058 71.2493 180.045 71.3059 180.817L45.1645 180.795Z" fill="#DD1818"/>
<path d="M50.049 14.1526C50.173 14.1611 50.2886 14.2167 50.3711 14.3074C50.4535 14.398 50.4962 14.5166 50.49 14.6376C50.4785 14.7594 50.4191 14.8722 50.3243 14.9523C50.2294 15.0324 50.1065 15.0737 49.9812 15.0675C49.8572 15.0563 49.7426 14.998 49.6622 14.9052C49.5819 14.8124 49.5421 14.6926 49.5515 14.5715C49.5543 14.5116 49.5696 14.4528 49.5964 14.3988C49.6233 14.3449 49.6612 14.2968 49.7077 14.2576C49.7543 14.2184 49.8086 14.1889 49.8673 14.1708C49.926 14.1528 49.9878 14.1466 50.049 14.1526Z" fill="black"/>
<path d="M43.8419 13.9871C43.9541 14.0103 44.054 14.0723 44.123 14.1617C44.1919 14.2511 44.2254 14.3618 44.2171 14.4734C44.2088 14.5849 44.1594 14.6898 44.078 14.7686C43.9965 14.8474 43.8886 14.8947 43.7741 14.9019C43.7064 14.9062 43.6385 14.8963 43.5751 14.8728C43.5117 14.8494 43.4541 14.813 43.4064 14.7661C43.3586 14.7191 43.3217 14.6628 43.2981 14.6008C43.2746 14.5388 43.2649 14.4725 43.2698 14.4066C43.2747 14.3406 43.294 14.2765 43.3265 14.2184C43.3589 14.1604 43.4038 14.1098 43.458 14.07C43.5122 14.0303 43.5745 14.0023 43.6407 13.988C43.707 13.9737 43.7755 13.9734 43.8419 13.9871Z" fill="black"/>
<path fill-rule="evenodd" clip-rule="evenodd" d="M23.0803 57.6419C27.7763 56.2965 32.3349 54.648 32.8098 54.4564L33.1419 55.2797C32.6331 55.4849 28.0445 57.143 23.3248 58.4953C20.9652 59.1713 18.557 59.7755 16.6022 60.082C15.6265 60.235 14.7457 60.3168 14.0325 60.2909C13.6756 60.278 13.3467 60.2377 13.0622 60.159C12.7805 60.0811 12.5131 59.9576 12.3112 59.7575L12.936 59.1269C12.9912 59.1817 13.1002 59.2485 13.2987 59.3034C13.4944 59.3575 13.7493 59.3924 14.0646 59.4038C14.6958 59.4267 15.5127 59.3543 16.4647 59.205C18.3652 58.907 20.732 58.3147 23.0803 57.6419Z" fill="black"/>
<path fill-rule="evenodd" clip-rule="evenodd" d="M49.5896 0.309832C51.0762 0.0745439 52.5611 0.591555 53.9378 2.09179L53.9513 2.10649L53.9634 2.12234C55.1225 3.63872 55.875 5.41441 56.1515 7.28807C56.3362 8.2376 56.4714 9.1712 56.5906 9.9948C56.611 10.1355 56.6309 10.2729 56.6505 10.4067C56.686 10.6492 56.5182 10.8747 56.2757 10.9102C56.0332 10.9458 55.8077 10.7779 55.7722 10.5354C55.7522 10.3992 55.7321 10.2601 55.7116 10.1184C55.5918 9.29122 55.4594 8.37771 55.2782 7.44774L55.2762 7.43752L55.2747 7.42722C55.0225 5.70689 54.3338 4.07427 53.2703 2.67735C52.0623 1.36788 50.8665 1.00648 49.7284 1.18661C48.5491 1.37326 47.3451 2.15449 46.1916 3.31105C45.5306 3.97865 44.9262 4.69721 44.3844 5.45964L44.3834 5.46101C42.7221 7.77965 41.4436 10.337 40.5938 13.0402C40.3799 13.8735 40.5105 15.0261 40.9042 16.3491C41.2953 17.6634 41.9275 19.0861 42.6453 20.4203C43.3627 21.7536 44.1583 22.9853 44.8687 23.9172C45.2241 24.3836 45.5534 24.7685 45.8365 25.0516C46.1284 25.3437 46.3319 25.4868 46.4396 25.5303C46.6045 25.5887 46.7744 25.6331 46.9474 25.6629L46.9499 25.6634L46.9525 25.6639C47.9694 25.8515 49.1796 25.5056 50.285 24.8338C51.3867 24.1642 52.3092 23.2155 52.7613 22.309C52.8707 22.0897 53.1372 22.0005 53.3566 22.11C53.5759 22.2194 53.6651 22.4859 53.5557 22.7052C53.0128 23.7938 51.9565 24.8566 50.746 25.5923C49.54 26.3253 48.1055 26.7784 46.794 26.5373C46.5696 26.4984 46.349 26.4405 46.1348 26.3641L46.1292 26.3621L46.1237 26.3599C45.8317 26.2469 45.5156 25.9862 45.2087 25.6792C44.8887 25.3592 44.5331 24.9413 44.1627 24.4553C43.4211 23.4825 42.6006 22.2108 41.8636 20.8409C41.1271 19.472 40.4668 17.9918 40.0534 16.6022C39.6441 15.2268 39.4576 13.8786 39.7375 12.8059L39.7402 12.7954L39.7435 12.785C40.6215 9.98776 41.9436 7.34227 43.6613 4.9447C44.2312 4.14287 44.8667 3.38745 45.5615 2.6858L45.5626 2.68469C46.7722 1.47176 48.1402 0.539237 49.5896 0.309832Z" fill="black"/>
<path fill-rule="evenodd" clip-rule="evenodd" d="M57.5169 28.8187C57.4876 30.6133 57.4581 32.425 57.4581 34.2788H56.5704C56.5704 32.3935 56.6002 30.5641 56.6297 28.7602C56.7026 24.2887 56.773 19.9746 56.3798 15.3586L57.2642 15.2832C57.6616 19.9468 57.5901 24.329 57.5169 28.8187Z" fill="black"/>
<path fill-rule="evenodd" clip-rule="evenodd" d="M46.4822 26.0393C46.4791 25.9551 46.4802 25.8707 46.4854 25.7866L47.3714 25.8413C47.3671 25.9112 47.3671 25.9812 47.3714 26.0512L47.3754 26.1151L47.3611 26.1775C47.1701 27.0116 47.0272 27.899 46.8797 28.8146C46.8023 29.2951 46.7236 29.7833 46.6361 30.2756C46.3863 31.6814 46.0674 33.0953 45.4975 34.2932L44.6959 33.9118C45.2115 32.8282 45.5145 31.5141 45.7621 30.1203C45.8439 29.6601 45.9201 29.188 45.9964 28.7146C46.1437 27.8013 46.2917 26.8836 46.4822 26.0393Z" fill="black"/>
<path fill-rule="evenodd" clip-rule="evenodd" d="M56.547 10.8621C56.2082 11.1672 55.9069 11.5093 55.649 11.8814C55.5093 12.0828 55.2328 12.1329 55.0313 11.9933C54.8299 11.8536 54.7798 11.5771 54.9195 11.3756C55.2185 10.9443 55.5677 10.5485 55.96 10.1961L55.9661 10.1906L55.9725 10.1853C56.7216 9.56118 57.4836 9.38776 58.1823 9.61848C58.8481 9.83836 59.3542 10.3934 59.699 11.0056C60.0479 11.6252 60.2659 12.3613 60.3241 13.0429C60.3807 13.7054 60.2931 14.4104 59.9192 14.8888L59.9042 14.908L59.8871 14.9255C59.4831 15.3395 58.9633 15.6259 58.3945 15.7502C57.833 15.8728 57.2472 15.8324 56.7088 15.6338C56.4701 15.5684 56.2398 15.4761 56.0226 15.3585C55.8071 15.2417 55.727 14.9723 55.8437 14.7568C55.9605 14.5413 56.2298 14.4612 56.4454 14.5779C56.6073 14.6656 56.7796 14.7341 56.9587 14.7818L56.9804 14.7875L57.0013 14.7954C57.3845 14.94 57.8036 14.9706 58.2051 14.8829C58.5977 14.7972 58.9546 14.6025 59.2332 14.3243C59.3939 14.1031 59.4877 13.6817 59.4396 13.1184C59.3918 12.5586 59.2098 11.946 58.9255 11.4412C58.6371 10.9292 58.2769 10.5846 57.9039 10.4614C57.565 10.3495 57.1178 10.3889 56.547 10.8621Z" fill="black"/>
<path fill-rule="evenodd" clip-rule="evenodd" d="M36.2744 1.18796C36.1816 1.36635 36.1845 1.51479 36.2528 1.67092C36.3313 1.85035 36.5079 2.06001 36.8079 2.28884C37.4071 2.74586 38.3524 3.17104 39.4019 3.53822C41.4937 4.27006 43.8145 4.71025 44.0913 4.73916L43.9991 5.62205C43.6428 5.58484 41.2542 5.12673 39.1088 4.37611C38.0396 4.00205 36.9844 3.53995 36.2695 2.99465C35.9125 2.72233 35.6037 2.40206 35.4395 2.02669C35.2653 1.62838 35.268 1.19746 35.4883 0.775714L35.4894 0.773515C35.7882 0.209194 36.4383 0.0321459 37.0811 0.00423973C37.7521 -0.024889 38.5932 0.0979627 39.5242 0.314701C41.3933 0.749847 43.7426 1.59259 46.0659 2.53163C49.6153 3.96887 53.1727 5.65174 54.9549 6.49485C55.3879 6.69968 55.7161 6.85495 55.914 6.9451L56.0659 7.00854L55.7237 7.82763L55.559 7.75883L55.5527 7.75596C55.3457 7.66181 55.0047 7.50049 54.5563 7.28841C52.7627 6.44007 49.2517 4.77934 45.7329 3.35453C43.4205 2.41986 41.1228 1.59832 39.3229 1.17927C38.4193 0.968904 37.6705 0.867181 37.1196 0.891096C36.5421 0.916168 36.338 1.06904 36.2744 1.18796Z" fill="black"/>
<path fill-rule="evenodd" clip-rule="evenodd" d="M50.5072 12.4656C50.099 12.3949 49.6795 12.4201 49.2836 12.5389C49.0488 12.6093 48.8013 12.4761 48.7309 12.2413C48.6604 12.0065 48.7936 11.7591 49.0284 11.6886C49.5564 11.5302 50.1151 11.4968 50.6587 11.5909C51.2022 11.6851 51.7158 11.9043 52.1566 12.2312C52.3535 12.3772 52.3948 12.6552 52.2488 12.8521C52.1028 13.049 51.8248 13.0902 51.6279 12.9442C51.2994 12.7006 50.9153 12.5363 50.5072 12.4656Z" fill="black"/>
<path fill-rule="evenodd" clip-rule="evenodd" d="M56.386 12.2293C56.5474 12.0447 56.8278 12.0259 57.0123 12.1872C57.4194 12.543 57.9449 12.7473 58.4952 12.761C58.7402 12.7671 58.9339 12.9708 58.9278 13.2158C58.9217 13.4609 58.7181 13.6546 58.473 13.6484C57.7181 13.6296 56.9931 13.3494 56.4281 12.8555C56.2436 12.6942 56.2247 12.4138 56.386 12.2293Z" fill="black"/>
<path fill-rule="evenodd" clip-rule="evenodd" d="M44.4937 12.5964C43.992 12.5326 43.4721 12.5952 43.196 12.7176C42.9719 12.8169 42.7097 12.7157 42.6104 12.4916C42.5111 12.2675 42.6123 12.0053 42.8364 11.906C43.3066 11.6976 44.0022 11.639 44.6057 11.7158C44.9136 11.7549 45.2268 11.8326 45.4959 11.9641C45.7613 12.0938 46.0271 12.2979 46.1608 12.6117L46.1617 12.6138L46.1617 12.6138C46.3168 12.9829 46.3641 13.4192 46.3595 13.8564C46.355 14.2989 46.2965 14.7766 46.2153 15.2474C46.1047 15.8887 45.9435 16.5572 45.8064 17.1258C45.7449 17.381 45.6882 17.6161 45.6431 17.8196L45.6424 17.8228L45.6424 17.8228C45.5314 18.3067 45.4203 18.9036 45.4985 19.3077C45.5351 19.4968 45.5981 19.5643 45.6454 19.5917C45.6985 19.6225 45.8522 19.6728 46.2177 19.5676C46.4532 19.4998 46.6991 19.6358 46.767 19.8714C46.8348 20.1069 46.6988 20.3529 46.4632 20.4207C45.9863 20.558 45.5506 20.5628 45.2002 20.3597C44.844 20.1532 44.6893 19.7985 44.627 19.4764C44.5075 18.8589 44.6729 18.0792 44.7768 17.626C44.8284 17.3933 44.8891 17.1414 44.9531 16.8766C45.087 16.3216 45.2348 15.7095 45.3405 15.0965C45.4176 14.6498 45.468 14.2237 45.4719 13.8472C45.4759 13.4653 45.4313 13.1671 45.3433 12.9576L45.7525 12.7857L45.3442 12.9597C45.3252 12.9153 45.2659 12.8397 45.1062 12.7617C44.9503 12.6855 44.7384 12.6275 44.4937 12.5964Z" fill="black"/>
<path fill-rule="evenodd" clip-rule="evenodd" d="M45.3249 21.7381C45.5244 21.5957 45.8016 21.642 45.944 21.8415C46.0741 22.0237 46.2451 22.1761 46.4451 22.2868C46.6451 22.3975 46.8686 22.4633 47.0992 22.479C47.3299 22.4947 47.561 22.4598 47.7753 22.3771C47.9897 22.2944 48.1813 22.1663 48.3366 22.003C48.5055 21.8253 48.7864 21.8182 48.9641 21.9871C49.1417 22.156 49.1488 22.437 48.9799 22.6146C48.7331 22.8742 48.4305 23.0758 48.0948 23.2053C47.7591 23.3348 47.3984 23.3892 47.0389 23.3647C46.6795 23.3402 46.3297 23.2375 46.0152 23.0635C45.7008 22.8895 45.4294 22.6484 45.2215 22.3573C45.0791 22.1578 45.1254 21.8806 45.3249 21.7381Z" fill="black"/>
<path fill-rule="evenodd" clip-rule="evenodd" d="M52.3676 165.355C52.4311 160.139 52.5142 153.314 52.579 145.829L53.4667 145.837C53.4019 153.319 53.3187 160.156 53.2551 165.377C53.2189 168.349 53.1891 170.797 53.1727 172.542V175.483H52.285V172.535C52.3015 170.783 52.3314 168.331 52.3676 165.355Z" fill="black"/>
<path fill-rule="evenodd" clip-rule="evenodd" d="M64.2859 98.689C64.531 98.6961 64.7239 98.9004 64.7168 99.1455C64.6524 101.387 65.4038 103.166 66.655 104.527C67.9136 105.896 69.6959 106.861 71.7079 107.424C72.8628 107.744 74.0514 107.934 75.2508 107.992C75.4956 108.004 75.6846 108.212 75.6728 108.457C75.6611 108.701 75.4531 108.89 75.2082 108.879C73.9429 108.818 72.6888 108.617 71.4701 108.279L71.4692 108.279C69.343 107.684 67.3999 106.649 66.0014 105.127C64.5955 103.598 63.7583 101.596 63.8295 99.1199C63.8366 98.8749 64.0409 98.682 64.2859 98.689Z" fill="black"/>
<path fill-rule="evenodd" clip-rule="evenodd" d="M71.4237 95.68C71.6688 95.6762 71.8705 95.8719 71.8743 96.117C71.9308 99.798 71.9874 103.747 71.9874 107.85C72.1029 129.258 71.8671 154.88 71.7333 169.41C71.7231 170.517 71.7135 171.559 71.7047 172.531V180.795C71.7047 181.04 71.506 181.239 71.2609 181.239C71.0157 181.239 70.817 181.04 70.817 180.795V172.525C70.8258 171.553 70.8354 170.51 70.8456 169.402C70.9794 154.872 71.2152 129.255 71.0997 107.854L71.0997 107.851C71.0997 103.755 71.0432 99.8119 70.9867 96.1306C70.9829 95.8855 71.1786 95.6837 71.4237 95.68Z" fill="black"/>
<path fill-rule="evenodd" clip-rule="evenodd" d="M71.2607 180.373C71.5058 180.373 71.7046 180.572 71.7046 180.817V180.971C71.7046 181.089 71.6575 181.202 71.5739 181.286C71.4902 181.369 71.3769 181.415 71.2588 181.415L45.1627 181.305C44.9176 181.304 44.7197 181.104 44.7207 180.859C44.7217 180.614 44.9213 180.416 45.1664 180.417L70.9257 180.526C71.0071 180.432 71.127 180.373 71.2607 180.373Z" fill="black"/>
<path fill-rule="evenodd" clip-rule="evenodd" d="M46.7052 104.255C46.9501 104.244 47.1575 104.434 47.1685 104.679C47.7885 118.535 49.9136 132.288 53.5082 145.707L53.5096 145.712C55.892 155.068 58.6588 164.018 61.3262 172.282C61.3404 172.326 61.3477 172.372 61.3477 172.418V172.528C61.3477 172.739 61.1993 172.921 60.9927 172.963C60.8705 172.988 60.5609 173.107 60.042 173.324C59.856 173.401 59.6465 173.49 59.4179 173.587C59.0439 173.746 58.6185 173.926 58.1605 174.115C56.6759 174.729 54.7814 175.466 52.8184 176.019C51.6436 176.369 50.4404 176.621 49.2218 176.771L49.2167 176.772C48.0866 176.899 47.0376 177.266 46.3442 177.903C45.6763 178.517 45.2936 179.42 45.5444 180.757C45.5896 180.998 45.4309 181.23 45.19 181.275C44.9491 181.32 44.7171 181.162 44.672 180.921C44.3688 179.304 44.834 178.085 45.7435 177.25C46.6268 176.438 47.8832 176.028 49.1153 175.89C50.2853 175.745 51.4405 175.503 52.5683 175.167L52.5749 175.165C54.489 174.627 56.3472 173.904 57.8213 173.295C58.2786 173.106 58.6925 172.93 59.062 172.774C59.2919 172.676 59.5046 172.586 59.6997 172.505C59.9505 172.4 60.1814 172.305 60.3773 172.232C57.7402 164.052 55.008 155.193 52.6501 145.934C49.0392 132.454 46.9045 118.638 46.2817 104.718C46.2707 104.474 46.4604 104.266 46.7052 104.255Z" fill="black"/>
<path fill-rule="evenodd" clip-rule="evenodd" d="M28.5673 95.3053C28.8124 95.2996 29.0156 95.4937 29.0213 95.7388C29.7209 126.088 36.5368 152.176 43.0656 172.392C43.1044 172.512 43.0902 172.643 43.0266 172.752C42.9629 172.861 42.8559 172.938 42.7322 172.964C42.6625 172.978 42.5068 173.03 42.2431 173.135C41.991 173.235 41.6722 173.37 41.293 173.531L41.1481 173.593C40.4142 173.905 39.4879 174.299 38.4498 174.703C36.2406 175.563 33.4919 176.485 30.9568 176.772L30.9561 176.772C29.8263 176.899 28.7795 177.266 28.0858 177.901C27.4803 178.456 27.1079 179.245 27.2213 180.373H45.4134C45.6585 180.373 45.8573 180.572 45.8573 180.817C45.8573 181.062 45.6585 181.261 45.4134 181.261H26.8363C26.6217 181.261 26.4378 181.108 26.3996 180.896C26.1085 179.291 26.5778 178.078 27.4864 177.247C28.3698 176.438 29.6238 176.028 30.8569 175.89C30.8571 175.89 30.8572 175.89 30.8574 175.89L30.9067 176.331L30.8567 175.89C30.8568 175.89 30.8569 175.89 30.8569 175.89C33.2742 175.616 35.9357 174.729 38.1276 173.876C39.1525 173.477 40.0675 173.088 40.8021 172.775L40.9459 172.714C41.3231 172.554 41.6517 172.415 41.9151 172.31C41.9732 172.287 42.0301 172.265 42.0851 172.244C42.1304 172.385 42.1756 172.525 42.2209 172.665L42.6432 172.529L42.5543 172.094C42.4317 172.119 42.2686 172.174 42.0851 172.244C35.5847 152.046 28.8314 126.019 28.1338 95.7593C28.1282 95.5142 28.3223 95.3109 28.5673 95.3053Z" fill="black"/>
<path fill-rule="evenodd" clip-rule="evenodd" d="M42.2247 172.984V172.096H52.5592V172.984H42.2247Z" fill="black"/>
<path fill-rule="evenodd" clip-rule="evenodd" d="M60.9489 172.984V172.096H71.2833V172.984H60.9489Z" fill="black"/>
<path fill-rule="evenodd" clip-rule="evenodd" d="M44.7207 180.806C44.7207 180.561 44.9194 180.362 45.1645 180.362H71.2607C71.5058 180.362 71.7046 180.561 71.7046 180.806V182.889C71.7046 183.135 71.5058 183.333 71.2607 183.333H45.1645C44.9194 183.333 44.7207 183.135 44.7207 182.889V180.806ZM45.6084 181.25V182.446H70.8169V181.25H45.6084Z" fill="black"/>
<path fill-rule="evenodd" clip-rule="evenodd" d="M26.415 180.806C26.415 180.561 26.6138 180.362 26.8589 180.362H45.1307C45.3759 180.362 45.5746 180.561 45.5746 180.806V182.889C45.5746 183.135 45.3759 183.333 45.1307 183.333H26.8589C26.6138 183.333 26.415 183.135 26.415 182.889V180.806ZM27.3027 181.25V182.446H44.6869V181.25H27.3027Z" fill="black"/>
<path fill-rule="evenodd" clip-rule="evenodd" d="M33.2008 53.4814C33.4432 53.5182 33.6098 53.7446 33.573 53.9869C33.555 54.1048 33.5274 54.2317 33.5036 54.3413C33.4944 54.3835 33.4858 54.4231 33.4785 54.4586C33.4493 54.601 33.431 54.7205 33.431 54.8351C33.431 54.8595 33.429 54.8838 33.425 54.9079C31.5926 65.9177 28.4408 87.0687 28.1848 95.1736L71.6403 95.2491C71.4975 93.717 71.0184 90.2983 70.3821 85.9638C70.0326 83.5834 69.6394 80.9507 69.2312 78.2171C68.8058 75.3686 68.364 72.4108 67.9384 69.5148C67.9028 69.2723 68.0705 69.0468 68.313 69.0112C68.5555 68.9755 68.781 69.1432 68.8167 69.3858C69.2392 72.2604 69.6823 75.228 70.1092 78.0862C70.5189 80.8295 70.9135 83.472 71.2604 85.8349C71.9693 90.6645 72.494 94.4255 72.5633 95.6691C72.57 95.7911 72.5263 95.9104 72.4423 95.9991C72.3583 96.0877 72.2415 96.1379 72.1193 96.1377L27.7287 96.0605C27.6097 96.0603 27.4957 96.0123 27.4124 95.9273C27.3291 95.8422 27.2835 95.7273 27.2857 95.6083C27.4333 87.7949 30.6791 66.0042 32.5437 54.796C32.5475 54.606 32.5781 54.4306 32.6089 54.2802C32.621 54.2211 32.6325 54.1686 32.6431 54.1199C32.664 54.024 32.6818 53.9426 32.6953 53.8535C32.7322 53.6112 32.9585 53.4446 33.2008 53.4814Z" fill="black"/>
<path fill-rule="evenodd" clip-rule="evenodd" d="M13.366 24.4989C13.1449 23.7336 12.4398 23.3402 11.7831 23.4628C11.4519 23.5245 11.1453 23.717 10.9425 24.0346C10.7416 24.3494 10.6619 24.7549 10.7121 25.221C10.7215 25.314 10.7311 25.4065 10.7405 25.4983C10.801 26.0847 10.8585 26.6421 10.8539 27.1257C10.8513 27.4028 10.8279 27.6335 10.781 27.8153C10.734 27.9976 10.6708 28.102 10.6095 28.1606C10.4323 28.3299 10.4259 28.6108 10.5952 28.7881C10.7645 28.9653 11.0455 28.9717 11.2227 28.8024C11.4441 28.5909 11.5689 28.3151 11.6406 28.0369C11.7125 27.7581 11.7386 27.448 11.7416 27.1342C11.7467 26.5961 11.6831 25.9816 11.6229 25.4007C11.6135 25.3096 11.6042 25.2193 11.5952 25.1303L11.5952 25.1303L11.5948 25.1271C11.5606 24.8113 11.6224 24.6194 11.6908 24.5123C11.7575 24.4077 11.8488 24.3535 11.9459 24.3354C12.145 24.2982 12.4171 24.4109 12.5135 24.7463L12.5134 24.7463L12.5147 24.7507C12.5541 24.8824 12.5984 25.0269 12.6462 25.1826C12.9349 26.1233 13.3494 27.4741 13.5433 28.9075C13.7707 30.589 13.6767 32.2734 12.8149 33.494C12.6735 33.6943 12.7213 33.9712 12.9215 34.1126C13.1218 34.254 13.3987 34.2063 13.5401 34.006C14.6004 32.5042 14.6591 30.5348 14.423 28.7885C14.2184 27.2761 13.7796 25.8481 13.4917 24.9116C13.4453 24.7607 13.4029 24.6225 13.366 24.4989Z" fill="black"/>
<path fill-rule="evenodd" clip-rule="evenodd" d="M8.21672 23.0272C9.50109 24.6801 10.6892 26.8562 11.2545 28.4184L10.8371 28.5694L11.2744 28.4936C11.2882 28.573 11.2882 28.6541 11.2744 28.7334C11.2326 28.975 11.0028 29.1368 10.7613 29.0949C10.542 29.0569 10.3885 28.8641 10.3933 28.6482C9.85108 27.1835 8.72712 25.1308 7.51576 23.5718C6.89849 22.7774 6.28038 22.1399 5.7277 21.7695C5.15748 21.3873 4.79435 21.3724 4.5635 21.5105L4.55136 21.5177L4.53878 21.5242C4.47236 21.5584 4.42488 21.6142 4.40247 21.6775C4.38029 21.7401 4.3831 21.8083 4.41078 21.8694C4.59518 22.2641 4.86094 22.6187 5.19229 22.9109C6.43461 23.9777 7.40491 25.3136 8.02483 26.8126C8.1185 27.0392 8.01081 27.2987 7.78429 27.3924C7.55776 27.4861 7.29819 27.3784 7.20451 27.1519C6.63816 25.7824 5.75066 24.5599 4.61196 23.5826L4.60985 23.5808L4.60776 23.5789C4.184 23.2059 3.84266 22.7513 3.60555 22.243L3.6043 22.2403L3.60431 22.2403C3.48019 21.9696 3.46622 21.662 3.5657 21.3811C3.66343 21.1052 3.86231 20.8781 4.11964 20.7417C4.8073 20.3385 5.57542 20.5987 6.22195 21.0321C6.8897 21.4797 7.57612 22.2027 8.21672 23.0272Z" fill="black"/>
<path fill-rule="evenodd" clip-rule="evenodd" d="M2.24104 20.829C2.63555 20.8261 3.02588 20.9121 3.3816 21.0809C3.74161 21.2517 4.05667 21.5029 4.30089 21.8152C4.45191 22.0083 4.4178 22.2872 4.22471 22.4382C4.03162 22.5893 3.75267 22.5552 3.60166 22.3621C3.44338 22.1597 3.23789 21.9953 3.00101 21.8829C2.76409 21.7704 2.50286 21.7134 2.23837 21.7168L2.22348 21.717L2.20862 21.7162C2.08907 21.7097 1.9725 21.7457 1.88043 21.8154C1.78862 21.8849 1.72804 21.9825 1.70658 22.0885L1.7014 22.1141L1.69326 22.1389C1.65028 22.2698 1.6676 22.3884 1.74783 22.5317C1.83677 22.6905 1.98901 22.8516 2.18247 23.0294L2.18817 23.0346L2.19369 23.0401C3.67087 24.496 4.95205 26.1297 6.00614 27.9018C6.13146 28.1125 6.06226 28.3849 5.85158 28.5102C5.64091 28.6355 5.36853 28.5663 5.24322 28.3556C4.22944 26.6513 2.99718 25.0793 1.57597 23.6776C1.37486 23.4924 1.13444 23.2531 0.973357 22.9655C0.805366 22.6656 0.715481 22.2969 0.842007 21.8867C0.911412 21.5756 1.09027 21.3002 1.34468 21.1076C1.60168 20.9131 1.91939 20.8152 2.24104 20.829Z" fill="black"/>
<path fill-rule="evenodd" clip-rule="evenodd" d="M1.75927 23.8785C1.66845 23.8497 1.57222 23.8394 1.47675 23.8483C1.38129 23.8573 1.28921 23.8853 1.20625 23.9301C1.12331 23.975 1.05157 24.0355 0.995043 24.1075C0.947182 24.1684 0.91102 24.2363 0.887702 24.3082C0.889668 24.5139 1.02183 24.7996 1.29516 25.1578C1.48547 25.4072 1.69219 25.6296 1.88851 25.8408C1.98385 25.9433 2.07674 26.0433 2.16411 26.1424C3.49439 27.5357 4.55006 29.1569 5.27762 30.9248L5.28181 30.935L5.28548 30.9454C5.29472 30.9714 5.30433 30.9985 5.3143 31.0267C5.53208 31.6417 5.92299 32.7456 6.44044 33.7328C6.71132 34.2495 7.00645 34.7135 7.31506 35.0529C7.62994 35.3992 7.91145 35.5639 8.15007 35.5905C8.3937 35.6177 8.56919 35.8372 8.54205 36.0808C8.51491 36.3244 8.29541 36.4999 8.05179 36.4728C7.49894 36.4112 7.03277 36.062 6.65829 35.6501C6.27755 35.2314 5.94161 34.6931 5.65422 34.1449C5.10631 33.0997 4.69691 31.9429 4.48007 31.3302C4.47053 31.3033 4.46136 31.2774 4.45257 31.2526C3.76641 29.5889 2.7711 28.0621 1.5161 26.7491L1.50972 26.7425L1.50363 26.7355C1.44309 26.6667 1.36573 26.5833 1.27889 26.4897C1.06971 26.2642 0.805578 25.9796 0.58943 25.6963C0.289132 25.3027 -0.0377576 24.7693 0.00354848 24.2056L0.00641341 24.1665L0.0160874 24.1285C0.0688948 23.9211 0.164781 23.7273 0.297155 23.5589C0.429507 23.3905 0.595403 23.2513 0.784028 23.1493C0.972628 23.0473 1.18021 22.9846 1.39387 22.9645C1.60751 22.9445 1.82322 22.9675 2.02769 23.0324C2.26135 23.1065 2.39067 23.356 2.31655 23.5897C2.24243 23.8233 1.99293 23.9527 1.75927 23.8785Z" fill="black"/>
<path fill-rule="evenodd" clip-rule="evenodd" d="M9.06052 29.9261C8.98939 30.0795 8.96179 30.276 9.04479 30.543C9.11756 30.777 8.98679 31.0258 8.75271 31.0985C8.51863 31.1713 8.26988 31.0405 8.19711 30.8065C8.05397 30.346 8.08432 29.9211 8.25523 29.5526C8.42161 29.1939 8.70397 28.9249 9.00639 28.7298C9.60048 28.3463 10.3705 28.1835 10.8987 28.2031C11.1437 28.2122 11.3349 28.4181 11.3259 28.6631C11.3168 28.908 11.1109 29.0993 10.8659 29.0902C10.5009 29.0767 9.9141 29.2005 9.48774 29.4756C9.27994 29.6097 9.13618 29.763 9.06052 29.9261Z" fill="black"/>
<path fill-rule="evenodd" clip-rule="evenodd" d="M45.5252 34.4379L45.2365 34.5446C44.8367 34.7388 44.4923 35.0241 44.2322 35.3752C43.9684 35.7313 43.7992 36.1444 43.7386 36.5778C43.7071 36.8037 43.5094 36.9689 43.2815 36.9599L43.2786 36.9598L43.2679 36.9594C43.2581 36.959 43.2432 36.9586 43.2234 36.958C43.1837 36.9569 43.1244 36.9554 43.0472 36.9542C42.8929 36.9517 42.6675 36.9501 42.386 36.9536C41.8225 36.9607 41.0361 36.9886 40.1459 37.0713C38.3556 37.2376 36.1983 37.6217 34.5824 38.4695C29.1948 41.6323 24.1564 45.3283 19.5472 49.4988L19.5427 49.5028L19.1922 49.8114C19.0083 49.9734 18.7278 49.9556 18.5658 49.7716C18.4038 49.5876 18.4216 49.3072 18.6056 49.1452L18.9539 48.8386C23.6102 44.6257 28.6999 40.8927 34.142 37.6987C34.1479 37.6952 34.1539 37.6919 34.1599 37.6887C35.9351 36.7543 38.2393 36.3569 40.0638 36.1874C40.9827 36.102 41.7934 36.0734 42.3748 36.066C42.5979 36.0632 42.7875 36.0635 42.9368 36.065C43.0498 35.6272 43.2471 35.2137 43.519 34.8467C43.8703 34.3725 44.3352 33.991 44.8718 33.735C44.884 33.7292 44.8964 33.724 44.909 33.7193L45.2369 33.5981C45.2497 33.5933 45.2628 33.5891 45.276 33.5856C47.239 33.0601 49.9782 32.9918 52.3081 33.1123C53.4792 33.1729 54.5616 33.2819 55.4104 33.4096C55.8343 33.4734 56.2052 33.5425 56.5024 33.614C56.7831 33.6816 57.0462 33.7618 57.2186 33.8644C57.2325 33.8727 57.2459 33.8817 57.2589 33.8915C57.9871 34.4406 58.5217 35.1968 58.7902 36.0542C58.8269 36.0599 58.8668 36.0661 58.9098 36.0728C59.1699 36.1135 59.5438 36.1741 60.0007 36.2535C60.9142 36.4123 62.1615 36.647 63.4953 36.9502C64.8278 37.2531 66.2539 37.626 67.5224 38.0626C68.7793 38.4951 69.9265 39.0047 70.6675 39.5977C70.6967 39.621 70.7228 39.6479 70.7452 39.6778L70.3902 39.9442C70.7452 39.6778 70.7451 39.6777 70.7452 39.6778L70.7456 39.6784L70.7695 39.7103C70.7854 39.7316 70.809 39.7631 70.8398 39.8046C70.9015 39.8876 70.9924 40.0102 71.1094 40.1692C71.3434 40.487 71.682 40.9504 72.101 41.5332C72.9391 42.6987 74.0993 44.3423 75.3884 46.2557C77.9639 50.0782 81.0654 54.9937 83.1377 59.3279C83.9143 60.9495 84.1993 62.345 83.8572 63.5658C83.5123 64.7965 82.5625 65.7376 81.1314 66.5212C80.2396 67.0174 78.4248 67.5798 76.1885 68.1262C73.9312 68.6777 71.1894 69.2254 68.4047 69.6788C65.1254 70.2308 61.7824 70.7009 59.1135 70.9598C57.7799 71.0892 56.6067 71.1666 55.6906 71.1742C55.233 71.178 54.8312 71.1644 54.5014 71.1293C54.186 71.0957 53.8868 71.038 53.668 70.9252C53.5259 70.8524 53.3962 70.7576 53.284 70.6441C53.2839 70.644 53.284 70.6442 53.284 70.6441C52.9915 70.3486 52.7433 69.9132 52.5494 69.4346C52.3526 68.9488 52.1989 68.387 52.112 67.8123C51.9429 66.6941 52.0092 65.3982 52.6595 64.5508L52.6622 64.5473C52.9373 64.1961 53.3192 63.9422 53.7505 63.8207C58.0817 62.6014 62.638 61.5753 66.1047 60.7946C66.2986 60.7509 66.489 60.708 66.6759 60.6659C66.693 60.7905 66.7104 60.9171 66.728 61.0457C66.7614 61.2885 66.9853 61.4584 67.2281 61.4251C67.2421 61.4231 67.2559 61.4206 67.2694 61.4174L67.2746 61.4408C67.2751 61.4407 67.2756 61.4406 67.2761 61.4405C66.9618 61.5115 66.6365 61.5848 66.3012 61.6603C62.832 62.4416 58.2985 63.4626 53.9912 64.6751C53.9912 64.6751 53.9913 64.6751 53.9912 64.6751C53.7393 64.7461 53.5194 64.8934 53.3624 65.093C53.3628 65.0924 53.3633 65.0918 53.3637 65.0912L53.0116 64.821L53.361 65.0947C53.3615 65.0941 53.3619 65.0936 53.3624 65.093C52.9396 65.6457 52.8311 66.6304 52.9897 67.6796C53.0668 68.1893 53.2029 68.6835 53.3721 69.1012C53.5442 69.526 53.7383 69.8413 53.915 70.0198C53.9605 70.0658 54.014 70.105 54.0731 70.1353L54.0747 70.1361C54.1385 70.1691 54.2983 70.2149 54.5955 70.2466C54.8787 70.2768 55.2435 70.2902 55.6833 70.2865C56.5618 70.2793 57.7057 70.2045 59.0278 70.0763C61.67 69.8199 64.9918 69.3532 68.2587 68.8032L68.261 68.8028C71.0276 68.3524 73.7466 67.809 75.9779 67.2638C78.2292 66.7138 79.93 66.1743 80.7009 65.7449L80.7038 65.7433C82.0307 65.017 82.7482 64.2334 83.0024 63.3262C83.2595 62.4088 83.0754 61.2528 82.337 59.7111C80.2935 55.4371 77.2214 50.5648 74.6523 46.7517C73.3692 44.8474 72.2143 43.2113 71.3803 42.0514C70.9634 41.4716 70.6267 41.0109 70.3945 40.6954C70.2784 40.5376 70.1884 40.4162 70.1275 40.3343C70.1037 40.3024 70.0844 40.2765 70.0697 40.2568C69.4498 39.7764 68.4435 39.3183 67.2336 38.9019C66.0068 38.4798 64.6147 38.115 63.2986 37.8158C61.9837 37.5169 60.7521 37.2852 59.8487 37.1281C59.3972 37.0496 59.0282 36.9899 58.7724 36.9498C58.6446 36.9298 58.545 36.9147 58.4777 36.9046C58.444 36.8995 58.4183 36.8958 58.4012 36.8933L58.382 36.8905L58.3776 36.8898C58.3645 36.888 58.3515 36.8856 58.3385 36.8826L58.4389 36.4502L58.0069 36.5523C57.8266 35.7886 57.3833 35.1059 56.7484 34.6185C56.6898 34.5892 56.5476 34.5379 56.2947 34.4771C56.0308 34.4136 55.6869 34.3489 55.2783 34.2874C54.4622 34.1647 53.409 34.0581 52.2622 33.9988C49.9646 33.88 47.3492 33.954 45.5252 34.4379ZM67.2716 61.4169L67.2769 61.4403C67.2766 61.4404 67.2764 61.4404 67.2761 61.4405C68.9246 61.0773 70.2706 60.7662 71.1439 60.5197C71.2909 60.4782 71.4062 60.3641 71.4493 60.2176C71.4923 60.0711 71.457 59.9128 71.3558 59.7984C69.6965 57.923 68.7512 56.723 67.7896 55.5023C67.3996 55.0072 67.007 54.5088 66.5629 53.9605C66.437 53.805 66.2225 53.753 66.0393 53.8335C65.8561 53.9141 65.7495 54.1073 65.779 54.3052L65.7792 54.3066L65.7933 54.4018C65.8028 54.4668 65.8172 54.565 65.8366 54.6975C65.8752 54.9626 65.9334 55.3652 66.0118 55.9145C66.16 56.9529 66.3801 58.5158 66.6759 60.6659C66.813 60.635 66.9482 60.6045 67.0813 60.5744L67.0836 60.5739C67.2405 60.5393 67.3944 60.5053 67.5452 60.4718C67.5656 60.62 67.5864 60.7711 67.6075 60.925C67.6388 61.1531 67.4909 61.3644 67.2716 61.4169ZM66.8918 55.7974C67.0385 56.8255 67.2551 58.3636 67.5452 60.4718C68.6032 60.2367 69.5084 60.0277 70.2175 59.8477C70.3689 60.0214 70.5265 60.2008 70.691 60.3866L71.0234 60.0925L70.9029 59.6654C70.701 59.7223 70.4718 59.7832 70.2175 59.8477C68.8244 58.2506 67.9525 57.1438 67.0805 56.0369C67.0176 55.9571 66.9548 55.8773 66.8918 55.7974ZM66.8918 55.7974C66.8914 55.7946 66.891 55.7919 66.8906 55.7891C66.8121 55.239 66.7537 54.8355 66.715 54.5695C66.6956 54.4365 66.6811 54.3379 66.6715 54.2724L66.6571 54.1749L66.657 54.1745C66.657 54.1745 66.657 54.1745 66.218 54.2398L65.8731 54.5192C66.2357 54.967 66.5664 55.3846 66.8918 55.7974ZM53.668 70.9252C53.6677 70.925 53.6675 70.9249 53.6672 70.9248L53.8709 70.5304L53.6688 70.9256C53.6685 70.9254 53.6683 70.9253 53.668 70.9252Z" fill="black"/>
<path fill-rule="evenodd" clip-rule="evenodd" d="M43.2767 64.2294C43.8898 64.4907 44.5147 64.6471 44.7324 64.6794L44.7358 64.6799L44.7358 64.68C45.4625 64.7935 46.6348 64.9193 47.6948 64.8146C48.2251 64.7621 48.701 64.6543 49.0722 64.4764C49.4384 64.3009 49.6779 64.0703 49.7951 63.7753L50.6201 64.1029C50.398 64.6622 49.9606 65.035 49.4558 65.2769C48.956 65.5165 48.367 65.6401 47.7821 65.6979C46.6127 65.8135 45.355 65.6751 44.6003 65.5573C44.297 65.512 43.6004 65.3323 42.9286 65.0459C42.5899 64.9015 42.2407 64.723 41.9449 64.5099C41.6559 64.3017 41.3754 64.0305 41.2367 63.6862L41.2191 63.6425L41.211 63.5961C41.1972 63.5167 41.1972 63.4356 41.211 63.3563L41.8013 63.4586L42.06 63.3544C42.1078 63.473 42.2329 63.6234 42.4637 63.7896C42.6876 63.9509 42.9724 64.0996 43.2767 64.2294ZM41.9026 63.4762L42.0856 63.5079C42.0893 63.4869 42.0893 63.4654 42.0856 63.4444L41.9026 63.4762Z" fill="black"/>
<path fill-rule="evenodd" clip-rule="evenodd" d="M41.0246 63.187C41.2359 63.1077 41.462 63.0741 41.6873 63.0882C41.9319 63.1036 42.1178 63.3144 42.1025 63.559C42.0871 63.8037 41.8763 63.9895 41.6317 63.9742C41.5309 63.9679 41.4302 63.9829 41.3365 64.0181C41.2429 64.0532 41.1591 64.1074 41.0905 64.1762C41.0219 64.2449 40.9702 64.3266 40.938 64.4152C40.9073 64.5001 40.895 64.59 40.9019 64.6792C40.9489 64.9737 41.0663 65.2542 41.2455 65.4979C41.4276 65.7454 41.6683 65.948 41.9485 66.0881L41.9588 66.0933L41.9689 66.099C43.5001 66.9671 45.299 67.2776 47.0446 66.9737C47.2861 66.9317 47.5159 67.0933 47.558 67.3348C47.6 67.5763 47.4383 67.8062 47.1968 67.8482C45.2536 68.1865 43.2499 67.8427 41.5408 66.8768C41.1409 66.6747 40.7944 66.3828 40.5304 66.0238C40.2641 65.6617 40.0895 65.242 40.0222 64.7994L40.0203 64.787L40.0191 64.7745C39.9979 64.5503 40.0267 64.3245 40.1035 64.1127C40.1802 63.901 40.3028 63.7089 40.462 63.5492C40.6212 63.3897 40.8133 63.2663 41.0246 63.187Z" fill="black"/>
<path fill-rule="evenodd" clip-rule="evenodd" d="M41.1775 66.0631C41.3894 66.0171 41.609 66.0169 41.8209 66.0626C42.0606 66.1142 42.2129 66.3504 42.1613 66.59C42.1096 66.8296 41.8735 66.982 41.6339 66.9303C41.5456 66.9113 41.4541 66.9114 41.3659 66.9306C41.2777 66.9497 41.1957 66.9873 41.1253 67.0401C41.0551 67.0929 40.9984 67.1593 40.9586 67.2342C40.9271 67.2935 40.9067 67.3571 40.8978 67.4222C40.9595 67.6651 41.0742 67.8933 41.235 68.0911C41.4092 68.3052 41.6328 68.4779 41.8889 68.5946L41.8964 68.598L41.9038 68.6017C43.4464 69.3755 45.2026 69.6507 46.9175 69.3865C47.1598 69.3491 47.3864 69.5153 47.4238 69.7575C47.4611 69.9998 47.2949 70.2265 47.0527 70.2638C45.1592 70.5555 43.2193 70.2529 41.513 69.3988C41.1371 69.226 40.806 68.9705 40.5464 68.6512C40.2848 68.3297 40.1029 67.9524 40.0159 67.549L40.0039 67.4935L40.0063 67.4367C40.0154 67.2204 40.073 67.0091 40.1747 66.8178C40.2763 66.6265 40.4191 66.4602 40.5925 66.3301C40.7658 66.2001 40.9655 66.1091 41.1775 66.0631Z" fill="black"/>
<path fill-rule="evenodd" clip-rule="evenodd" d="M41.1897 68.5445C41.4005 68.5145 41.6156 68.5328 41.8183 68.5981C42.0516 68.6733 42.1798 68.9234 42.1046 69.1567C42.0294 69.39 41.7793 69.5182 41.546 69.443C41.4718 69.4191 41.3925 69.4123 41.3147 69.4234C41.2369 69.4344 41.1636 69.4629 41.1004 69.5059C41.0373 69.5488 40.9863 69.6047 40.9508 69.6685C40.9168 69.7293 40.8976 69.7961 40.8937 69.864C40.8974 69.9263 40.9602 70.1063 41.2824 70.362C41.5938 70.609 42.0775 70.8678 42.7302 71.0878C44.8254 71.6901 47.042 71.7736 49.1789 71.3305L49.1851 71.3292L49.1913 71.3281C50.5864 71.0801 51.9523 70.6965 53.2687 70.1832C53.4971 70.0942 53.7544 70.2071 53.8435 70.4355C53.9325 70.6639 53.8196 70.9212 53.5912 71.0103C52.2226 71.5439 50.8028 71.9428 49.3529 72.201C47.0737 72.6726 44.7097 72.5823 42.4751 71.938L42.4659 71.9354L42.4568 71.9324C41.7346 71.69 41.1472 71.3879 40.7307 71.0574C40.3342 70.7428 40.0059 70.3309 40.0059 69.8583V69.8506L40.0061 69.8429C40.0135 69.6299 40.0717 69.4222 40.1754 69.2362C40.2791 69.0502 40.4253 68.8914 40.6014 68.7717C40.7774 68.652 40.9789 68.5745 41.1897 68.5445Z" fill="black"/>
<path fill-rule="evenodd" clip-rule="evenodd" d="M50.0364 62.7458C50.0564 62.5015 50.2707 62.3196 50.515 62.3396C51.3859 62.4109 52.1608 62.8768 52.6839 63.3776C52.9474 63.6299 53.1644 63.9073 53.3037 64.1753C53.4281 64.4146 53.549 64.7593 53.4258 65.0796C53.3377 65.3084 53.0809 65.4225 52.8522 65.3345C52.631 65.2495 52.517 65.0066 52.5891 64.7838C52.5873 64.7791 52.586 64.7193 52.5161 64.5848C52.4311 64.4212 52.2799 64.2198 52.07 64.0188C51.6461 63.613 51.0528 63.2743 50.4426 63.2244C50.1983 63.2044 50.0164 62.9901 50.0364 62.7458Z" fill="black"/>
<path fill-rule="evenodd" clip-rule="evenodd" d="M40.9279 57.58C41.1713 57.5507 41.3924 57.7241 41.4218 57.9675L41.4446 58.1566L42.0538 63.3804L42.0631 63.4348C42.1044 63.6765 41.9421 63.9058 41.7004 63.9471C41.4588 63.9885 41.2294 63.8261 41.1881 63.5845L41.1768 63.5183C41.1755 63.5106 41.1744 63.5028 41.1734 63.4949L40.5631 58.2612L40.5405 58.0738C40.5111 57.8305 40.6846 57.6094 40.9279 57.58Z" fill="black"/>
<path fill-rule="evenodd" clip-rule="evenodd" d="M51.3323 58.1522C51.4034 57.9236 51.28 57.6786 51.0521 57.6007C50.8201 57.5213 50.5678 57.645 50.4885 57.877L50.4771 57.9101C50.4671 57.9395 50.4601 57.97 50.4564 58.0009L49.8911 62.7183L49.7551 63.8998C49.7271 64.1433 49.9018 64.3634 50.1454 64.3914C50.3889 64.4194 50.609 64.2447 50.637 64.0012L50.7725 62.8239L51.3323 58.1522Z" fill="black"/>
<path fill-rule="evenodd" clip-rule="evenodd" d="M41.4844 58.0238C41.5452 58.0567 41.6297 58.0958 41.7444 58.138C41.9977 58.2313 42.3404 58.3193 42.7603 58.3937C43.5982 58.5423 44.7004 58.6292 45.9163 58.6129L45.9222 58.6129C47.2576 58.6129 48.4526 58.4987 49.311 58.3192C49.7433 58.2288 50.0691 58.1261 50.2803 58.0244C50.2978 58.016 50.314 58.0079 50.3289 58C50.3185 57.9942 50.3074 57.9883 50.2956 57.9822C50.0902 57.8758 49.7645 57.7674 49.3269 57.6717C48.4589 57.4819 47.2456 57.3623 45.9109 57.3623C44.5784 57.3623 43.3683 57.4898 42.5028 57.6836C42.0666 57.7813 41.7407 57.8908 41.5345 57.9968C41.5162 58.0062 41.4996 58.0152 41.4844 58.0238ZM50.4817 57.8955C50.4817 57.8955 50.4814 57.8959 50.4807 57.8967C50.4813 57.8959 50.4817 57.8955 50.4817 57.8955ZM42.3088 56.8174C43.2524 56.6061 44.5298 56.4746 45.9109 56.4746C47.2899 56.4746 48.5698 56.5975 49.5165 56.8045C49.9862 56.9072 50.3983 57.0357 50.7038 57.1939C50.856 57.2727 51.0039 57.37 51.1189 57.4934C51.2361 57.6192 51.3411 57.7972 51.3411 58.0207C51.3411 58.0381 51.34 58.0555 51.338 58.0728C51.313 58.2844 51.1955 58.4438 51.0794 58.553C50.9625 58.663 50.8169 58.7513 50.6654 58.8243C50.3615 58.9706 49.9566 59.0911 49.4927 59.1881C48.5597 59.3832 47.3023 59.5004 45.9252 59.5006C44.6661 59.5172 43.508 59.4278 42.6054 59.2678C42.1546 59.1879 41.7567 59.0886 41.4376 58.971C41.1386 58.8609 40.8362 58.7097 40.6568 58.4849L40.6552 58.4829L40.6552 58.4829C40.5539 58.3543 40.4961 58.1962 40.4922 58.0312C40.4921 58.0277 40.4921 58.0242 40.4921 58.0207C40.4921 57.7948 40.6029 57.6186 40.7179 57.4985C40.832 57.3794 40.9783 57.2845 41.1288 57.2072C41.4314 57.0517 41.8405 56.9222 42.3088 56.8174Z" fill="black"/>
<path fill-rule="evenodd" clip-rule="evenodd" d="M42.5136 71.3352C42.7571 71.3073 42.9771 71.4822 43.005 71.7257L43.3099 74.3912C44.1249 74.5988 44.9634 74.708 45.8066 74.716C46.7408 74.6969 47.6703 74.5845 48.5804 74.3807L48.8618 71.8916C48.8894 71.648 49.1092 71.4729 49.3527 71.5005C49.5963 71.528 49.7715 71.7478 49.7439 71.9914L49.4273 74.791C49.4065 74.9754 49.273 75.1274 49.0928 75.172C48.0215 75.4367 46.9228 75.5815 45.818 75.6037C45.8137 75.6038 45.8094 75.6038 45.8051 75.6038C44.7816 75.5946 43.7642 75.448 42.7816 75.168C42.6087 75.1187 42.4827 74.9701 42.4622 74.7915L42.123 71.8266C42.0952 71.5831 42.27 71.3631 42.5136 71.3352Z" fill="black"/>
<path fill-rule="evenodd" clip-rule="evenodd" d="M13.248 33.5553C13.3611 33.6066 13.4475 33.7029 13.4862 33.8208C14.2378 36.1061 17.5326 44.5215 19.5949 48.9266C19.6988 49.1486 19.6031 49.4128 19.3811 49.5168C19.1591 49.6207 18.8949 49.525 18.7909 49.303C16.8336 45.1219 13.7808 37.3728 12.7982 34.5545L8.69606 36.2935C9.30694 40.0687 10.1635 44.5114 11.0506 49.1129C11.7023 52.4931 12.3706 55.959 12.9701 59.3092C13.0133 59.5505 12.8527 59.7811 12.6114 59.8243C12.3701 59.8674 12.1395 59.7068 12.0963 59.4655C11.5019 56.1443 10.8356 52.6876 10.1842 49.3086C9.26692 44.5498 8.37932 39.9451 7.76436 36.0905C7.73222 35.889 7.84158 35.6916 8.02943 35.612L12.8914 33.5508C13.0057 33.5024 13.135 33.504 13.248 33.5553Z" fill="black"/>
<path fill-rule="evenodd" clip-rule="evenodd" d="M48.5254 47.3292C48.6956 47.5056 48.6906 47.7866 48.5142 47.9568C47.965 48.4869 47.5616 48.9929 47.3659 49.523C47.1808 50.0244 47.1691 50.5812 47.4671 51.2617C47.8446 51.8493 48.1747 52.4648 48.4542 53.1026L48.4844 53.1714L48.4902 53.2464C48.5265 53.713 48.4611 54.1817 48.2987 54.6215C48.1363 55.0613 47.8807 55.4618 47.5493 55.7971C47.377 55.9715 47.096 55.9732 46.9217 55.8009C46.7473 55.6286 46.7456 55.3476 46.9179 55.1732C47.1612 54.9269 47.3478 54.634 47.466 54.314C47.5757 54.0169 47.6244 53.7022 47.6097 53.3877C47.3514 52.8083 47.0481 52.2488 46.7025 51.714L46.6842 51.6857L46.6704 51.6549C46.2695 50.7617 46.2602 49.9552 46.5331 49.2156C46.7982 48.4974 47.3163 47.8792 47.8978 47.3181C48.0742 47.1479 48.3552 47.1528 48.5254 47.3292Z" fill="white"/>
<path fill-rule="evenodd" clip-rule="evenodd" d="M45.6649 47.3292C45.8352 47.5056 45.8302 47.7866 45.6538 47.9568C45.1038 48.4876 44.6978 48.9938 44.5009 49.5238C44.3148 50.025 44.3031 50.5813 44.6065 51.2619C44.9793 51.8509 45.3088 52.465 45.5925 53.0996L45.6238 53.1698L45.6298 53.2464C45.666 53.713 45.6007 54.1817 45.4382 54.6215C45.2758 55.0613 45.0202 55.4618 44.6889 55.7971C44.5166 55.9715 44.2356 55.9732 44.0612 55.8009C43.8868 55.6286 43.8852 55.3476 44.0575 55.1732C44.3008 54.9269 44.4873 54.634 44.6055 54.314C44.7151 54.0173 44.7638 53.7032 44.7493 53.3892C44.4865 52.8103 44.1828 52.2496 43.8404 51.7113L43.8238 51.6853L43.811 51.6573C43.4033 50.763 43.3938 49.9552 43.6688 49.2148C43.9355 48.4966 44.4567 47.8785 45.0373 47.3181C45.2137 47.1479 45.4947 47.1528 45.6649 47.3292Z" fill="white"/>
<path d="M66.9671 55.9079L65.8398 54.4754L66.1293 54.2322L66.632 54.0646L66.9671 55.9079Z" fill="black"/>
<path d="M71.0043 59.4501L71.2122 60.0986L71.1719 60.2879L70.8367 60.4555L70.3485 60.4555L70.2518 60.0986L70.1665 59.6176L71.0043 59.4501Z" fill="black"/>
<path d="M67.1285 60.9391C67.139 60.9477 67.1549 60.9483 67.1679 60.9483C67.1768 60.9483 67.1788 60.9401 67.1846 60.9339C67.1921 60.9259 67.1954 60.9186 67.1957 60.9076C67.196 60.896 67.195 60.888 67.2026 60.878C67.2124 60.8653 67.2253 60.8553 67.236 60.843C67.2391 60.8394 67.2432 60.8352 67.2455 60.8312C67.2487 60.8259 67.2554 60.8257 67.2593 60.8208C67.2639 60.815 67.2685 60.8068 67.2758 60.8047C67.2793 60.8037 67.2887 60.7965 67.292 60.7929C67.2998 60.7844 67.3082 60.776 67.3163 60.7675C67.3247 60.7586 67.3277 60.7462 67.3348 60.7373C67.3436 60.7263 67.3171 60.7416 67.3129 60.7443C67.2885 60.7598 67.262 60.77 67.2356 60.7814C67.2222 60.7872 67.2078 60.7896 67.1945 60.7954C67.1537 60.8136 67.1132 60.8352 67.0741 60.8568C67.0641 60.8622 67.0505 60.8738 67.0392 60.8763C67.0319 60.8779 67.0238 60.8748 67.0166 60.877C66.9978 60.8826 66.9765 60.8855 66.9713 60.8625C66.9686 60.8509 66.9694 60.8524 66.9615 60.844C66.9581 60.8404 66.9662 60.8413 66.9685 60.8417C66.9773 60.843 66.9845 60.8673 66.9869 60.8741C66.9953 60.8982 67.0024 60.9204 67.0034 60.946C67.0038 60.9562 67.0048 60.9698 67.0159 60.9738C67.0213 60.9758 67.0222 60.9809 67.023 60.9861C67.0255 61.0032 67.0161 61.0413 67.0345 61.0515C67.0369 61.0528 67.0409 61.0557 67.0437 61.0549C67.0472 61.0539 67.0497 61.061 67.053 61.0643C67.0593 61.0704 67.0687 61.0732 67.0764 61.0771C67.0787 61.0783 67.0852 61.0787 67.0834 61.0805C67.0816 61.0823 67.0734 61.0828 67.0756 61.0875C67.0803 61.0972 67.0978 61.1018 67.1066 61.1055C67.138 61.1187 67.1782 61.1325 67.2119 61.1175C67.2332 61.108 67.2621 61.1029 67.2795 61.0872C67.2931 61.075 67.3149 61.064 67.3324 61.0574C67.3464 61.0522 67.3603 61.0411 67.3707 61.0306C67.3823 61.0191 67.3895 61.0184 67.3951 61.0017" stroke="black" stroke-width="2" stroke-linecap="round"/>
<path d="M75.2721 108.669C75.1468 108.573 74.8759 108.444 74.8759 108.673C74.8759 108.835 75.1929 109.57 75.1929 109.197C75.1929 108.898 75.1262 108.615 75.0146 108.339C74.9427 108.161 74.7956 108.005 74.7548 107.822C74.7244 107.685 74.734 108.105 74.7658 108.242C74.8352 108.54 74.9524 108.86 75.1533 109.096C75.3501 109.328 75.343 109.051 75.3492 108.867C75.3547 108.701 75.3722 108.316 75.2105 108.198C74.9119 107.981 75.2137 108.992 75.2721 109.109C75.5306 109.626 75.7745 108.762 75.8401 108.528C75.9024 108.305 76.0205 107.837 75.6926 107.764C75.3467 107.687 74.9452 108.054 74.713 108.246C74.448 108.465 74.2088 108.706 74.0306 109.004C73.8855 109.246 73.6124 109.73 73.7356 110.034C73.8309 110.269 74.194 109.849 74.2287 109.814C74.6291 109.408 74.9852 108.936 75.2193 108.414C75.3997 108.011 75.1901 108.293 75.1136 108.537C75.0885 108.617 74.8807 109.706 74.8363 109.704C74.7677 109.7 74.4734 108.567 74.4268 108.453C74.4053 108.401 74.1561 107.831 74.1627 108.127C74.1716 108.529 74.2971 108.932 74.4312 109.307C74.5185 109.552 74.3822 108.936 74.3762 108.891C74.3189 108.46 74.2273 108.06 73.969 107.705C73.9281 107.649 73.9249 108.203 73.9249 108.242C73.9249 108.481 73.991 109.195 73.9469 108.96C73.885 108.629 73.7565 108.261 73.6278 107.951C73.5897 107.86 73.4714 107.606 73.4605 107.705C73.443 107.862 73.545 108.086 73.5903 108.231C73.6348 108.373 73.9297 108.88 73.8413 109.034C73.8 109.107 73.7355 108.903 73.7048 108.825C73.6129 108.594 73.5568 108.349 73.4737 108.114C73.4711 108.107 73.3084 107.73 73.2998 107.744C73.2481 107.831 73.291 108.073 73.291 108.163C73.291 108.352 73.291 108.541 73.291 108.731C73.291 109.073 73.259 108.583 73.2491 108.506C73.1985 108.114 73.2563 107.574 73.0752 107.212C73.0043 107.07 73.0936 107.529 73.084 107.687C73.0702 107.916 73.0208 108.139 72.9916 108.365C72.9878 108.394 72.9964 108.685 72.9652 108.704C72.9546 108.711 72.7868 108.036 72.7803 107.965C72.767 107.818 72.7919 107.668 72.7737 107.522C72.7583 107.4 72.5825 107.274 72.5777 107.472C72.5736 107.645 72.5628 107.782 72.6768 107.918C72.7633 108.022 72.6966 108.385 72.6966 108.519C72.6966 108.562 72.6956 109.162 72.6174 109.118C72.2945 108.939 72.4355 108.265 72.4192 107.956C72.4103 107.786 72.3796 107.617 72.3796 107.441C72.3796 107.313 72.34 107.214 72.34 107.381C72.34 107.566 72.2385 108.717 72.3796 108.788" stroke="white" stroke-width="2" stroke-linecap="round"/>
<defs>
<linearGradient id="paint0_linear_254_206" x1="45.9075" y1="33.5051" x2="45.9075" y2="95.6938" gradientUnits="userSpaceOnUse">
<stop stop-color="#DD1818"/>
<stop offset="1" stop-color="#FF0F00"/>
</linearGradient>
</defs>
</svg>
