<svg width="159" height="348" viewBox="0 0 159 348" fill="none" xmlns="http://www.w3.org/2000/svg">
<path d="M127.203 115.708C130.327 115.019 132.853 114.435 134.48 113.976C130.049 108.969 128.273 106.465 125.384 102.898C125.384 102.898 125.961 106.778 127.181 115.666L127.203 115.708ZM129.343 131.272V131.459C132.489 152.865 136.17 176.524 136.427 181.135L52.4021 180.989C52.6803 166.259 58.8227 125.013 62.3541 103.795C60.4921 104.546 27.7253 116.313 23.8301 112.453V112.349C21.112 97.1604 17.6235 80.5951 15.6331 68.1189L24.836 64.2175C26.27 68.5779 32.5194 84.5382 36.436 92.9044C45.2162 85.0253 54.805 78.0481 65.0508 72.0829C71.4714 68.7031 81.9585 69.1203 81.9585 69.1203C82.0927 68.1597 82.4675 67.2461 83.0498 66.4601C83.6321 65.6742 84.404 65.0401 85.2973 64.6139L85.9179 64.3844C93.0877 62.465 106.229 63.8419 107.877 64.8225C109.257 65.8633 110.225 67.3376 110.616 68.9952C110.616 68.9952 128.102 71.4987 133.238 75.6088C133.238 75.6088 148.819 96.3676 156.609 112.662C159.477 118.65 158.386 122.321 153.164 125.18C150.167 127.141 139.894 129.478 129.386 131.272H129.343ZM100.343 122.926C100.728 121.925 98.3526 119.108 95.5489 118.879H95.2707L96.3408 109.95C96.3408 108.844 92.0604 107.863 86.9024 107.863C81.7445 107.863 77.4854 108.781 77.4854 109.95C77.4885 110.078 77.5335 110.202 77.6139 110.304L78.7696 120.214C78.76 120.269 78.76 120.326 78.7696 120.381C78.4609 120.362 78.1517 120.408 77.8631 120.516C77.5744 120.625 77.3134 120.793 77.0977 121.009C76.8821 121.225 76.7171 121.484 76.6141 121.768C76.5111 122.052 76.4725 122.355 76.5009 122.655C76.6078 123.357 76.8849 124.025 77.3092 124.602C77.7336 125.178 78.2929 125.648 78.9408 125.972C78.6567 125.911 78.3622 125.911 78.0782 125.973C77.7941 126.035 77.5274 126.157 77.2968 126.33C77.0663 126.503 76.8774 126.723 76.7436 126.975C76.6098 127.227 76.5343 127.504 76.5223 127.788C76.659 128.421 76.9447 129.014 77.357 129.521C77.7693 130.028 78.2968 130.434 78.898 130.708C78.6359 130.624 78.3573 130.6 78.0842 130.639C77.811 130.678 77.5509 130.778 77.3245 130.932C77.0981 131.086 76.9116 131.289 76.7798 131.526C76.648 131.762 76.5745 132.025 76.5652 132.294C76.5652 133.295 78.0205 134.547 80.6316 135.424V135.924L81.2736 141.536C83.061 142.046 84.9119 142.313 86.774 142.329C88.8031 142.289 90.8208 142.023 92.788 141.536L93.3873 136.237V135.903C96.0818 135.424 98.7203 134.683 101.263 133.692L101.627 133.4C99.7223 131.543 98.3526 125.534 100.386 122.926H100.343Z" fill="url(#paint0_linear_254_156)"/>
<path d="M85.4903 342.344V342.219H50.8402C49.8343 336.669 54.0719 334.228 58.545 333.728C67.8549 332.664 79.0269 326.884 80.7605 326.53H99.8512C99.8512 329.743 99.8512 331.704 99.8512 332.1V332.351C97.6702 333.001 95.4363 333.469 93.1737 333.748C88.7007 334.312 84.4416 336.753 85.4903 342.344Z" fill="#DD1818"/>
<path d="M85.49 342.219V342.344C84.4413 336.753 88.7003 334.312 93.1734 333.811C95.436 333.531 97.6699 333.064 99.8509 332.413C107.192 330.327 114.062 326.885 115.389 326.613H134.972C134.972 335.146 134.865 340.8 134.972 342.261L85.49 342.219Z" fill="#DD1818"/>
<path d="M94.7356 26.7889C94.9703 26.805 95.1892 26.9102 95.3453 27.0818C95.5013 27.2534 95.5821 27.4779 95.5703 27.7069C95.5485 27.9375 95.4361 28.1509 95.2566 28.3026C95.0771 28.4542 94.8445 28.5323 94.6072 28.5206C94.3725 28.4993 94.1556 28.389 94.0035 28.2134C93.8514 28.0378 93.7761 27.8109 93.794 27.5817C93.7992 27.4683 93.8281 27.3571 93.8789 27.255C93.9298 27.1528 94.0015 27.0618 94.0896 26.9876C94.1778 26.9134 94.2805 26.8575 94.3916 26.8233C94.5027 26.7892 94.6198 26.7775 94.7356 26.7889Z" fill="black"/>
<path d="M82.9863 26.4756C83.1988 26.5195 83.3878 26.6369 83.5183 26.8061C83.6489 26.9753 83.7122 27.1848 83.6965 27.396C83.6809 27.6071 83.5873 27.8056 83.4331 27.9548C83.279 28.1039 83.0747 28.1936 82.8579 28.2072C82.7298 28.2153 82.6014 28.1965 82.4813 28.1521C82.3613 28.1078 82.2524 28.0389 82.1619 27.95C82.0715 27.8612 82.0016 27.7545 81.957 27.6371C81.9124 27.5198 81.8941 27.3944 81.9034 27.2696C81.9127 27.1448 81.9493 27.0233 82.0107 26.9134C82.0721 26.8035 82.157 26.7078 82.2596 26.6325C82.3622 26.5573 82.4802 26.5044 82.6055 26.4773C82.7309 26.4502 82.8607 26.4496 82.9863 26.4756Z" fill="black"/>
<path fill-rule="evenodd" clip-rule="evenodd" d="M43.6877 109.108C52.5765 106.561 61.2054 103.441 62.1043 103.078L62.7329 104.636C61.7698 105.025 53.0843 108.163 44.1505 110.723C39.6841 112.003 35.1257 113.146 31.4256 113.727C29.5787 114.016 27.9116 114.171 26.5615 114.122C25.886 114.097 25.2634 114.021 24.7248 113.872C24.1917 113.725 23.6856 113.491 23.3033 113.112L24.486 111.919C24.5906 112.022 24.7969 112.149 25.1726 112.253C25.5429 112.355 26.0255 112.421 26.6224 112.443C27.8171 112.486 29.3634 112.349 31.1653 112.067C34.7626 111.503 39.2427 110.381 43.6877 109.108Z" fill="black"/>
<path fill-rule="evenodd" clip-rule="evenodd" d="M93.8662 0.586497C96.68 0.141131 99.4907 1.11976 102.097 3.9595L102.122 3.98732L102.145 4.01733C104.339 6.8876 105.763 10.2487 106.287 13.7953C106.636 15.5926 106.892 17.3598 107.118 18.9188C107.157 19.185 107.194 19.4452 107.231 19.6984C107.299 20.1575 106.981 20.5842 106.522 20.6515C106.063 20.7188 105.636 20.4012 105.569 19.9421C105.531 19.6842 105.493 19.4209 105.454 19.1528C105.227 17.587 104.977 15.8578 104.634 14.0975L104.63 14.0782L104.627 14.0587C104.15 10.8024 102.846 7.71204 100.833 5.06788C98.5465 2.58923 96.283 1.90516 94.1289 2.24611C91.8967 2.59942 89.6175 4.07817 87.4342 6.26738C86.1831 7.53106 85.039 8.89117 84.0133 10.3343L84.0114 10.3369C80.8669 14.7258 78.4468 19.5665 76.8383 24.6832C76.4334 26.2606 76.6807 28.4423 77.4258 30.9465C78.1661 33.4343 79.3629 36.1274 80.7216 38.6528C82.0794 41.1766 83.5855 43.508 84.93 45.2719C85.6029 46.1547 86.2262 46.8833 86.7619 47.4192C87.3145 47.972 87.6996 48.2429 87.9037 48.3253C88.2158 48.4358 88.5374 48.5198 88.8647 48.5763L88.8695 48.5772L88.8743 48.578C90.7993 48.9333 93.09 48.2785 95.1824 47.0068C97.2678 45.7393 99.0139 43.9437 99.8697 42.2279C100.077 41.8127 100.581 41.6439 100.996 41.851C101.412 42.0581 101.58 42.5626 101.373 42.9778C100.346 45.0382 98.3464 47.0501 96.0551 48.4427C93.7723 49.8301 91.057 50.6876 88.5745 50.2313C88.1497 50.1578 87.7321 50.0481 87.3267 49.9034L87.3161 49.8997L87.3056 49.8956C86.7529 49.6816 86.1545 49.1883 85.5736 48.6071C84.968 48.0013 84.2949 47.2104 83.5937 46.2905C82.19 44.449 80.6369 42.0419 79.2419 39.4489C77.8477 36.8577 76.598 34.0559 75.8153 31.4257C75.0406 28.8221 74.6877 26.2703 75.2174 24.2398L75.2226 24.2199L75.2288 24.2003C76.8908 18.9054 79.3933 13.8979 82.6446 9.35965C83.7234 7.8419 84.9264 6.41199 86.2415 5.08386L86.2436 5.08177C88.5331 2.78586 91.1227 1.02073 93.8662 0.586497Z" fill="black"/>
<path fill-rule="evenodd" clip-rule="evenodd" d="M108.871 54.5497C108.816 57.9466 108.76 61.376 108.76 64.8849H107.08C107.08 61.3164 107.136 57.8534 107.192 54.439C107.33 45.9751 107.463 37.8092 106.719 29.0716L108.393 28.929C109.145 37.7565 109.01 46.0514 108.871 54.5497Z" fill="black"/>
<path fill-rule="evenodd" clip-rule="evenodd" d="M87.9841 49.2886C87.9784 49.1292 87.9804 48.9697 87.9902 48.8104L89.6673 48.9138C89.6592 49.0462 89.6592 49.1788 89.6673 49.3111L89.6748 49.4322L89.6477 49.5503C89.2863 51.129 89.0157 52.8088 88.7365 54.5419C88.59 55.4514 88.4411 56.3755 88.2755 57.3075C87.8026 59.9684 87.199 62.6447 86.1203 64.9122L84.603 64.1903C85.5788 62.1391 86.1523 59.6517 86.6212 57.0135C86.7759 56.1424 86.9201 55.2487 87.0646 54.3527C87.3434 52.6239 87.6236 50.8868 87.9841 49.2886Z" fill="black"/>
<path fill-rule="evenodd" clip-rule="evenodd" d="M107.035 20.5603C106.394 21.1379 105.824 21.7854 105.335 22.4897C105.071 22.871 104.548 22.9658 104.166 22.7015C103.785 22.4371 103.69 21.9137 103.955 21.5323C104.521 20.7159 105.182 19.9667 105.924 19.2997L105.936 19.2892L105.948 19.2792C107.366 18.0979 108.808 17.7696 110.131 18.2064C111.391 18.6226 112.349 19.6732 113.002 20.832C113.662 22.0047 114.075 23.3981 114.185 24.6883C114.292 25.9423 114.126 27.2767 113.418 28.1823L113.39 28.2187L113.358 28.2517C112.593 29.0354 111.609 29.5776 110.532 29.8128C109.47 30.0449 108.361 29.9683 107.342 29.5924C106.89 29.4688 106.454 29.294 106.043 29.0713C105.635 28.8503 105.483 28.3404 105.704 27.9324C105.925 27.5245 106.435 27.3728 106.843 27.5938C107.149 27.7598 107.476 27.8894 107.815 27.9797L107.856 27.9906L107.895 28.0055C108.62 28.2793 109.414 28.3372 110.174 28.1712C110.917 28.0089 111.593 27.6403 112.12 27.1138C112.424 26.695 112.602 25.8975 112.511 24.8312C112.42 23.7716 112.076 22.6119 111.538 21.6566C110.992 20.6873 110.31 20.035 109.604 19.8019C108.962 19.59 108.116 19.6646 107.035 20.5603Z" fill="black"/>
<path fill-rule="evenodd" clip-rule="evenodd" d="M68.6623 2.24863C68.4867 2.58631 68.4921 2.86728 68.6214 3.16281C68.77 3.50245 69.1042 3.8993 69.6721 4.33245C70.8062 5.19753 72.5957 6.00232 74.5823 6.69734C78.5417 8.08261 82.9345 8.91583 83.4586 8.97056L83.284 10.6417C82.6096 10.5713 78.0884 9.70417 74.0274 8.28334C72.0036 7.57531 70.0063 6.70062 68.6531 5.66844C67.9773 5.15298 67.3928 4.54676 67.082 3.83623C66.7521 3.0823 66.7573 2.26662 67.1743 1.46832L67.1764 1.46415C67.742 0.395974 68.9725 0.0608476 70.1892 0.0080252C71.4593 -0.0471114 73.0515 0.18543 74.8137 0.595684C78.3516 1.41935 82.7986 3.01455 87.1961 4.79201C93.9147 7.51251 100.648 10.6979 104.022 12.2938C104.841 12.6815 105.463 12.9754 105.837 13.1461L106.125 13.2662L105.477 14.8166L105.165 14.6864L105.153 14.6809C104.762 14.5027 104.116 14.1974 103.267 13.7959C99.8724 12.1901 93.2264 9.04661 86.566 6.34965C82.1888 4.58044 77.8397 3.02539 74.4327 2.23219C72.7223 1.834 71.3048 1.64145 70.2621 1.68672C69.169 1.73418 68.7827 2.02355 68.6623 2.24863Z" fill="black"/>
<path fill-rule="evenodd" clip-rule="evenodd" d="M95.6027 23.5956C94.8302 23.4617 94.036 23.5094 93.2866 23.7343C92.8422 23.8676 92.3739 23.6154 92.2405 23.171C92.1071 22.7266 92.3593 22.2582 92.8037 22.1249C93.803 21.825 94.8606 21.7617 95.8895 21.9399C96.9184 22.1182 97.8905 22.5331 98.725 23.1518C99.0977 23.4282 99.1758 23.9544 98.8994 24.3271C98.623 24.6998 98.0968 24.7779 97.7241 24.5015C97.1024 24.0405 96.3753 23.7294 95.6027 23.5956Z" fill="black"/>
<path fill-rule="evenodd" clip-rule="evenodd" d="M106.731 23.1482C107.036 22.7989 107.567 22.7632 107.916 23.0686C108.687 23.742 109.681 24.1287 110.723 24.1548C111.187 24.1663 111.553 24.5518 111.542 25.0156C111.53 25.4795 111.145 25.8461 110.681 25.8345C109.252 25.7988 107.88 25.2684 106.81 24.3337C106.461 24.0283 106.425 23.4976 106.731 23.1482Z" fill="black"/>
<path fill-rule="evenodd" clip-rule="evenodd" d="M84.2202 23.8432C83.2705 23.7225 82.2864 23.8411 81.7638 24.0726C81.3396 24.2606 80.8433 24.0691 80.6554 23.6449C80.4674 23.2206 80.6589 22.7244 81.0831 22.5364C81.9731 22.1421 83.2897 22.0311 84.4321 22.1764C85.015 22.2505 85.6079 22.3976 86.1172 22.6465C86.6196 22.8919 87.1226 23.2783 87.3757 23.8723L87.3774 23.8762L87.3774 23.8762C87.6709 24.575 87.7605 25.4006 87.7519 26.2282C87.7432 27.0658 87.6326 27.97 87.4789 28.8613C87.2695 30.0751 86.9644 31.3404 86.7049 32.4168C86.5884 32.8999 86.4811 33.3449 86.3958 33.7301L86.3944 33.7361L86.3944 33.7361C86.1844 34.6521 85.9741 35.7819 86.1221 36.5469C86.1914 36.9048 86.3107 37.0326 86.4001 37.0844C86.5007 37.1427 86.7916 37.2379 87.4833 37.0388C87.9292 36.9104 88.3947 37.1679 88.5231 37.6137C88.6514 38.0596 88.394 38.5251 87.9481 38.6535C87.0454 38.9134 86.2208 38.9226 85.5575 38.5381C84.8831 38.1473 84.5904 37.4758 84.4725 36.8661C84.2462 35.6974 84.5593 34.2214 84.7559 33.3635C84.8536 32.923 84.9687 32.4464 85.0896 31.9451C85.3432 30.8946 85.6229 29.736 85.8231 28.5757C85.9689 27.7301 86.0643 26.9235 86.0717 26.2108C86.0792 25.488 85.9949 24.9236 85.8283 24.527L86.6028 24.2016L85.8299 24.531C85.7941 24.4469 85.6818 24.3039 85.3796 24.1562C85.0844 24.0119 84.6833 23.9021 84.2202 23.8432Z" fill="black"/>
<path fill-rule="evenodd" clip-rule="evenodd" d="M85.7936 41.1472C86.1713 40.8777 86.696 40.9653 86.9655 41.3429C87.2117 41.6878 87.5353 41.9763 87.9139 42.1857C88.2924 42.3952 88.7156 42.5199 89.1521 42.5497C89.5887 42.5794 90.0261 42.5133 90.4319 42.3567C90.8376 42.2002 91.2003 41.9577 91.4943 41.6486C91.814 41.3123 92.3457 41.2989 92.682 41.6186C93.0183 41.9383 93.0317 42.47 92.712 42.8063C92.2448 43.2977 91.672 43.6793 91.0366 43.9244C90.4013 44.1695 89.7184 44.2724 89.038 44.2261C88.3576 44.1797 87.6955 43.9853 87.1003 43.6559C86.5051 43.3265 85.9913 42.8702 85.5979 42.3192C85.3284 41.9415 85.416 41.4168 85.7936 41.1472Z" fill="black"/>
<path fill-rule="evenodd" clip-rule="evenodd" d="M99.1242 312.994C99.2444 303.121 99.4017 290.202 99.5245 276.034L101.205 276.049C101.082 290.212 100.924 303.153 100.804 313.034C100.736 318.661 100.679 323.294 100.648 326.597V332.163H98.968V326.585C98.9991 323.267 99.0557 318.626 99.1242 312.994Z" fill="black"/>
<path fill-rule="evenodd" clip-rule="evenodd" d="M121.684 186.804C122.148 186.818 122.513 187.204 122.5 187.668C122.378 191.912 123.8 195.278 126.168 197.854C128.551 200.446 131.924 202.272 135.733 203.337C137.919 203.943 140.169 204.304 142.439 204.413C142.902 204.436 143.26 204.829 143.238 205.293C143.216 205.756 142.822 206.114 142.358 206.092C139.963 205.977 137.59 205.596 135.283 204.956L135.281 204.956C131.256 203.83 127.578 201.871 124.931 198.991C122.27 196.096 120.685 192.306 120.82 187.62C120.833 187.156 121.22 186.791 121.684 186.804Z" fill="black"/>
<path fill-rule="evenodd" clip-rule="evenodd" d="M135.195 181.108C135.659 181.101 136.041 181.472 136.048 181.936C136.155 188.903 136.262 196.377 136.262 204.145C136.481 244.666 136.034 293.166 135.781 320.668C135.762 322.764 135.743 324.737 135.727 326.576V342.219C135.727 342.683 135.351 343.06 134.887 343.06C134.423 343.06 134.047 342.683 134.047 342.219V326.564C134.063 324.725 134.081 322.75 134.101 320.654C134.354 293.15 134.8 244.661 134.582 204.151L134.582 204.147C134.582 196.393 134.475 188.93 134.368 181.961C134.361 181.497 134.731 181.116 135.195 181.108Z" fill="black"/>
<path fill-rule="evenodd" clip-rule="evenodd" d="M134.886 341.421C135.35 341.421 135.727 341.797 135.727 342.261V342.552C135.727 342.775 135.638 342.99 135.479 343.148C135.321 343.305 135.106 343.393 134.883 343.393L85.4866 343.184C85.0226 343.182 84.6481 342.805 84.65 342.341C84.652 341.877 85.0297 341.502 85.4937 341.504L134.252 341.71C134.406 341.533 134.633 341.421 134.886 341.421Z" fill="black"/>
<path fill-rule="evenodd" clip-rule="evenodd" d="M88.4064 197.34C88.8699 197.319 89.2625 197.678 89.2832 198.142C90.4567 224.369 94.4793 250.402 101.283 275.803L101.286 275.813C105.796 293.521 111.033 310.463 116.082 326.105C116.109 326.188 116.122 326.275 116.122 326.363V326.572C116.122 326.971 115.842 327.315 115.451 327.395C115.219 327.442 114.633 327.666 113.651 328.077C113.299 328.224 112.902 328.392 112.47 328.575C111.762 328.875 110.956 329.217 110.089 329.575C107.279 330.737 103.693 332.133 99.9776 333.179C97.7539 333.841 95.4765 334.318 93.1699 334.603L93.1602 334.604C91.021 334.844 89.0354 335.539 87.7229 336.745C86.4588 337.907 85.7343 339.616 86.2091 342.147C86.2947 342.604 85.9943 343.043 85.5383 343.128C85.0822 343.214 84.6432 342.913 84.5577 342.457C83.9838 339.398 84.8644 337.09 86.586 335.508C88.2579 333.972 90.636 333.197 92.9683 332.935C95.183 332.661 97.3696 332.203 99.5042 331.566L99.5167 331.563C103.14 330.543 106.657 329.176 109.448 328.022C110.313 327.664 111.097 327.332 111.796 327.036C112.231 326.852 112.634 326.681 113.003 326.527C113.478 326.328 113.915 326.149 114.286 326.01C109.294 310.527 104.122 293.759 99.6591 276.232C92.8242 250.716 88.7835 224.564 87.6046 198.217C87.5839 197.754 87.9428 197.361 88.4064 197.34Z" fill="black"/>
<path fill-rule="evenodd" clip-rule="evenodd" d="M54.0739 180.399C54.5378 180.389 54.9225 180.756 54.9332 181.22C56.2575 238.668 69.1589 288.047 81.5171 326.314C81.5905 326.541 81.5636 326.789 81.4432 326.996C81.3227 327.202 81.1201 327.347 80.886 327.395C80.7541 327.422 80.4593 327.522 79.9602 327.72C79.483 327.91 78.8795 328.165 78.1619 328.47L77.8875 328.587C76.4984 329.177 74.7449 329.923 72.7799 330.688C68.5983 332.316 63.3954 334.06 58.5968 334.605L58.5956 334.605C56.457 334.844 54.4756 335.54 53.1624 336.742C52.0163 337.791 51.3113 339.285 51.5261 341.421H85.9611C86.4251 341.421 86.8013 341.797 86.8013 342.261C86.8013 342.725 86.4251 343.101 85.9611 343.101H50.7973C50.3911 343.101 50.0431 342.811 49.9706 342.411C49.4197 339.372 50.3079 337.077 52.0278 335.503C53.7 333.972 56.0736 333.197 58.4078 332.935C58.4081 332.935 58.4084 332.935 58.4086 332.935L58.5021 333.77L58.4073 332.935C58.4075 332.935 58.4077 332.935 58.4078 332.935C62.9833 332.416 68.0212 330.738 72.1702 329.122C74.1102 328.367 75.8421 327.63 77.2326 327.039L77.5048 326.924C78.2187 326.62 78.8407 326.357 79.3393 326.159C79.4494 326.115 79.557 326.073 79.6612 326.033C79.7469 326.3 79.8325 326.565 79.9181 326.83L80.7176 326.572L80.5492 325.749C80.3173 325.797 80.0084 325.901 79.6612 326.033C67.3568 287.802 54.5737 238.535 53.2533 181.259C53.2426 180.795 53.61 180.41 54.0739 180.399Z" fill="black"/>
<path fill-rule="evenodd" clip-rule="evenodd" d="M79.9254 327.433V325.753H99.487V327.433H79.9254Z" fill="black"/>
<path fill-rule="evenodd" clip-rule="evenodd" d="M115.368 327.433V325.753H134.929V327.433H115.368Z" fill="black"/>
<path fill-rule="evenodd" clip-rule="evenodd" d="M84.65 342.24C84.65 341.776 85.0262 341.4 85.4902 341.4H134.886C135.35 341.4 135.727 341.776 135.727 342.24V346.184C135.727 346.648 135.35 347.024 134.886 347.024H85.4902C85.0262 347.024 84.65 346.648 84.65 346.184V342.24ZM86.3303 343.081V345.343H134.046V343.081H86.3303Z" fill="black"/>
<path fill-rule="evenodd" clip-rule="evenodd" d="M50 342.24C50 341.776 50.3761 341.4 50.8401 341.4H85.4261C85.8901 341.4 86.2663 341.776 86.2663 342.24V346.184C86.2663 346.648 85.8901 347.024 85.4261 347.024H50.8401C50.3761 347.024 50 346.648 50 346.184V342.24ZM51.6803 343.081V345.343H84.586V343.081H51.6803Z" fill="black"/>
<path fill-rule="evenodd" clip-rule="evenodd" d="M62.8446 101.233C63.3033 101.302 63.6187 101.731 63.5489 102.19C63.515 102.413 63.4627 102.653 63.4176 102.86C63.4002 102.94 63.3839 103.015 63.3701 103.082C63.3148 103.352 63.2803 103.578 63.2803 103.795C63.2803 103.841 63.2764 103.887 63.2689 103.933C59.8004 124.773 53.8345 164.809 53.3498 180.15L135.605 180.293C135.335 177.393 134.428 170.922 133.223 162.717C132.562 158.211 131.818 153.228 131.045 148.054C130.24 142.662 129.403 137.063 128.598 131.582C128.53 131.123 128.848 130.696 129.307 130.628C129.766 130.561 130.193 130.878 130.26 131.337C131.06 136.779 131.899 142.396 132.707 147.806C133.482 152.999 134.229 158.001 134.886 162.473C136.228 171.615 137.221 178.734 137.352 181.088C137.365 181.319 137.282 181.545 137.123 181.713C136.964 181.88 136.743 181.975 136.512 181.975L52.4866 181.829C52.2613 181.828 52.0456 181.738 51.8879 181.577C51.7303 181.416 51.6438 181.198 51.6481 180.973C51.9275 166.183 58.0712 124.936 61.6007 103.721C61.6079 103.361 61.6657 103.029 61.7241 102.745C61.7471 102.633 61.7688 102.533 61.7889 102.441C61.8285 102.26 61.8621 102.106 61.8877 101.937C61.9575 101.478 62.3858 101.163 62.8446 101.233Z" fill="black"/>
<path fill-rule="evenodd" clip-rule="evenodd" d="M25.3 46.3727C24.8817 44.9243 23.5469 44.1796 22.3038 44.4115C21.677 44.5285 21.0967 44.8927 20.7128 45.494C20.3324 46.0899 20.1816 46.8573 20.2767 47.7396C20.2945 47.9157 20.3125 48.0908 20.3304 48.2645C20.445 49.3745 20.5538 50.4295 20.5451 51.3449C20.54 51.8696 20.4958 52.3062 20.4071 52.6502C20.3181 52.9953 20.1985 53.193 20.0825 53.3038C19.747 53.6243 19.7348 54.1561 20.0553 54.4916C20.3759 54.8271 20.9077 54.8393 21.2432 54.5188C21.6622 54.1185 21.8984 53.5964 22.0342 53.0697C22.1702 52.542 22.2196 51.9551 22.2253 51.361C22.235 50.3425 22.1146 49.1794 22.0007 48.0798C21.9829 47.9073 21.9652 47.7365 21.9482 47.568L21.9482 47.568L21.9475 47.5618C21.8828 46.9642 21.9996 46.6009 22.1291 46.3982C22.2555 46.2002 22.4283 46.0976 22.612 46.0633C22.9889 45.993 23.504 46.2062 23.6863 46.8411L23.6863 46.8411L23.6888 46.8494C23.7632 47.0988 23.8471 47.3722 23.9375 47.6669C24.484 49.4475 25.2687 52.0045 25.6356 54.7176C26.0661 57.9005 25.8882 61.0889 24.257 63.3993C23.9893 63.7784 24.0797 64.3026 24.4587 64.5702C24.8377 64.8378 25.362 64.7475 25.6296 64.3685C27.6367 61.5257 27.7478 57.798 27.3007 54.4924C26.9136 51.6297 26.0829 48.9267 25.538 47.1539C25.4503 46.8683 25.3699 46.6068 25.3 46.3727Z" fill="black"/>
<path fill-rule="evenodd" clip-rule="evenodd" d="M15.5531 43.5871C17.9842 46.7159 20.2331 50.8348 21.3031 53.7919L20.5131 54.0778L21.3409 53.9342C21.3669 54.0845 21.3669 54.238 21.3409 54.3882C21.2616 54.8454 20.8267 55.1517 20.3696 55.0725C19.9546 55.0005 19.6639 54.6355 19.673 54.2269C18.6467 51.4544 16.5192 47.569 14.2263 44.618C13.0579 43.1143 11.8879 41.9076 10.8417 41.2064C9.76238 40.4829 9.07502 40.4548 8.63805 40.7161L8.61507 40.7299L8.59126 40.7421C8.46554 40.8068 8.37568 40.9125 8.33324 41.0323C8.29125 41.1508 8.29658 41.2799 8.34898 41.3955C8.69802 42.1427 9.20106 42.8139 9.82827 43.3669C12.1798 45.3862 14.0164 47.915 15.1899 50.7524C15.3672 51.1812 15.1633 51.6725 14.7345 51.8498C14.3058 52.0272 13.8144 51.8233 13.6371 51.3945C12.5651 48.8022 10.8852 46.4882 8.72979 44.6384L8.72579 44.6349L8.72184 44.6315C7.91971 43.9254 7.2736 43.0649 6.82479 42.1028L6.82243 42.0977L6.82245 42.0977C6.58751 41.5852 6.56107 41.003 6.74936 40.4714C6.93435 39.949 7.31081 39.5192 7.79789 39.2609C9.09952 38.4979 10.5535 38.9904 11.7773 39.8107C13.0412 40.6579 14.3405 42.0265 15.5531 43.5871Z" fill="black"/>
<path fill-rule="evenodd" clip-rule="evenodd" d="M4.24201 39.4265C4.98876 39.4209 5.7276 39.5837 6.40092 39.9032C7.08236 40.2266 7.67873 40.7021 8.14101 41.2931C8.42686 41.6586 8.3623 42.1866 7.99681 42.4725C7.63132 42.7583 7.10331 42.6938 6.81746 42.3283C6.51787 41.9452 6.1289 41.634 5.68051 41.4212C5.23206 41.2084 4.73759 41.1004 4.23696 41.1069L4.20877 41.1073L4.18063 41.1058C3.95435 41.0935 3.73369 41.1617 3.55941 41.2936C3.38564 41.4251 3.27097 41.6097 3.23034 41.8105L3.22054 41.8589L3.20513 41.9058C3.12377 42.1537 3.15657 42.3782 3.30843 42.6493C3.47678 42.9499 3.76495 43.2549 4.13115 43.5914L4.14194 43.6013L4.15237 43.6116C6.94848 46.3675 9.37356 49.4599 11.3688 52.8142C11.606 53.213 11.475 53.7286 11.0762 53.9658C10.6775 54.203 10.1619 54.072 9.9247 53.6732C8.00576 50.4472 5.67328 47.4716 2.98313 44.8184C2.60244 44.4679 2.14737 44.0148 1.84246 43.4705C1.52448 42.9028 1.35434 42.205 1.59383 41.4284C1.72521 40.8396 2.06376 40.3184 2.54533 39.9538C3.03178 39.5856 3.63317 39.4003 4.24201 39.4265Z" fill="black"/>
<path fill-rule="evenodd" clip-rule="evenodd" d="M3.33005 45.1986C3.15813 45.144 2.97598 45.1244 2.79528 45.1414C2.61459 45.1583 2.44029 45.2113 2.28325 45.2962C2.12626 45.3811 1.99048 45.4958 1.88347 45.6319C1.79288 45.7471 1.72443 45.8758 1.68029 46.0119C1.68401 46.4011 1.93417 46.9419 2.45155 47.62C2.81178 48.0922 3.20307 48.5131 3.57468 48.9128C3.75515 49.1069 3.93097 49.2961 4.09635 49.4837C6.61438 52.1211 8.61262 55.1898 9.98979 58.5362L9.99771 58.5554L10.0047 58.5751C10.0222 58.6244 10.0403 58.6757 10.0592 58.729C10.4714 59.8931 11.2114 61.9827 12.1908 63.8512C12.7036 64.8293 13.2622 65.7077 13.8464 66.3501C14.4424 67.0056 14.9752 67.3173 15.4269 67.3677C15.8881 67.419 16.2203 67.8345 16.1689 68.2957C16.1175 68.7568 15.702 69.089 15.2409 69.0376C14.1944 68.921 13.312 68.2601 12.6032 67.4805C11.8825 66.688 11.2466 65.6691 10.7026 64.6313C9.66551 62.6528 8.89059 60.4633 8.48013 59.3036C8.46207 59.2525 8.44471 59.2035 8.42807 59.1565C7.12927 56.0074 5.24531 53.1174 2.86976 50.6322L2.85769 50.6196L2.84615 50.6064C2.73157 50.4761 2.58513 50.3183 2.42076 50.1411C2.02481 49.7144 1.52484 49.1755 1.11571 48.6393C0.547285 47.8943 -0.0714698 46.8847 0.00671676 45.8176L0.0121397 45.7436L0.0304512 45.6717C0.130408 45.2792 0.311907 44.9122 0.562473 44.5935C0.812995 44.2748 1.12701 44.0113 1.48405 43.8182C1.84105 43.6252 2.23397 43.5064 2.63839 43.4685C3.0428 43.4305 3.4511 43.4742 3.83814 43.5969C4.28041 43.7372 4.52521 44.2095 4.3849 44.6518C4.2446 45.0941 3.77233 45.3389 3.33005 45.1986Z" fill="black"/>
<path fill-rule="evenodd" clip-rule="evenodd" d="M17.1504 56.6459C17.0157 56.9362 16.9635 57.3081 17.1206 57.8134C17.2583 58.2565 17.0108 58.7274 16.5677 58.8651C16.1246 59.0028 15.6538 58.7553 15.5161 58.3122C15.2451 57.4406 15.3026 56.6364 15.6261 55.9389C15.941 55.2599 16.4755 54.7508 17.0479 54.3813C18.1724 53.6556 19.6299 53.3474 20.6299 53.3844C21.0935 53.4016 21.4555 53.7914 21.4383 54.2551C21.4212 54.7188 21.0314 55.0807 20.5677 55.0636C19.8769 55.038 18.7661 55.2723 17.959 55.7931C17.5657 56.047 17.2936 56.3371 17.1504 56.6459Z" fill="black"/>
<path fill-rule="evenodd" clip-rule="evenodd" d="M86.1727 65.186L85.6262 65.3881C84.8694 65.7556 84.2175 66.2957 83.7252 66.9602C83.2257 67.6343 82.9055 68.4162 82.7909 69.2365C82.7312 69.6642 82.357 69.9769 81.9256 69.9598L81.9201 69.9596L81.8998 69.9589C81.8814 69.9582 81.8531 69.9573 81.8156 69.9562C81.7405 69.9541 81.6282 69.9513 81.4822 69.949C81.1901 69.9443 80.7635 69.9412 80.2305 69.948C79.164 69.9615 77.6755 70.0141 75.9905 70.1707C72.6015 70.4856 68.5181 71.2125 65.4594 72.8174C55.2614 78.8041 45.7245 85.8001 37 93.6942L36.9915 93.7018L36.3281 94.286C35.9798 94.5926 35.449 94.5588 35.1423 94.2106C34.8357 93.8624 34.8695 93.3315 35.2177 93.0249L35.8768 92.4445C44.6906 84.4701 54.3246 77.404 64.6259 71.3583C64.637 71.3518 64.6483 71.3455 64.6598 71.3394C68.0199 69.5707 72.3815 68.8185 75.835 68.4976C77.5743 68.336 79.1089 68.2817 80.2093 68.2678C80.6316 68.2625 80.9905 68.2631 81.2732 68.2659C81.4871 67.4373 81.8605 66.6545 82.3751 65.96C83.0401 65.0623 83.9201 64.3402 84.9358 63.8556C84.9588 63.8446 84.9823 63.8347 85.0062 63.8259L85.6269 63.5964C85.6512 63.5874 85.676 63.5795 85.701 63.5728C89.4166 62.5781 94.6014 62.4488 99.0116 62.6769C101.228 62.7916 103.277 62.998 104.884 63.2396C105.686 63.3603 106.388 63.4913 106.951 63.6266C107.482 63.7544 107.98 63.9064 108.307 64.1005C108.333 64.1162 108.358 64.1333 108.383 64.1517C109.761 65.1912 110.773 66.6226 111.281 68.2455C111.351 68.2562 111.426 68.268 111.508 68.2807C112 68.3578 112.708 68.4724 113.573 68.6228C115.302 68.9234 117.663 69.3675 120.188 69.9414C122.71 70.5148 125.409 71.2207 127.81 72.047C130.189 72.8657 132.361 73.8304 133.763 74.9528C133.819 74.9969 133.868 75.0479 133.91 75.1044L133.239 75.6088C133.91 75.1044 133.91 75.1042 133.91 75.1044L133.911 75.1056L133.957 75.1659C133.987 75.2062 134.031 75.266 134.09 75.3445C134.206 75.5016 134.378 75.7336 134.6 76.0345C135.043 76.6362 135.684 77.5133 136.477 78.6165C138.063 80.8225 140.259 83.9337 142.699 87.5555C147.575 94.7909 153.445 104.095 157.368 112.299C158.838 115.369 159.377 118.01 158.73 120.321C158.077 122.65 156.279 124.432 153.57 125.915C151.882 126.854 148.447 127.919 144.214 128.953C139.941 129.997 134.751 131.034 129.48 131.892C123.273 132.937 116.945 133.827 111.893 134.317C109.369 134.562 107.148 134.708 105.414 134.723C104.548 134.73 103.788 134.704 103.163 134.638C102.566 134.574 102 134.465 101.586 134.251C101.317 134.113 101.071 133.934 100.859 133.719C100.859 133.719 100.859 133.719 100.859 133.719C100.305 133.16 99.8354 132.336 99.4684 131.43C99.0959 130.51 98.805 129.447 98.6405 128.359C98.3205 126.242 98.446 123.79 99.6768 122.185L99.6819 122.179C100.203 121.514 100.926 121.034 101.742 120.803C109.94 118.496 118.565 116.553 125.127 115.076C125.494 114.993 125.854 114.912 126.208 114.832C126.24 115.068 126.273 115.307 126.307 115.551C126.37 116.01 126.793 116.332 127.253 116.269C127.28 116.265 127.306 116.26 127.331 116.254L127.341 116.299C127.342 116.299 127.343 116.298 127.344 116.298C126.749 116.432 126.133 116.571 125.499 116.714C118.932 118.193 110.351 120.126 102.198 122.421C102.197 122.421 102.198 122.421 102.198 122.421C101.721 122.555 101.304 122.834 101.007 123.212C101.008 123.211 101.009 123.21 101.01 123.208L100.343 122.697L101.005 123.215C101.006 123.214 101.006 123.213 101.007 123.212C100.207 124.258 100.002 126.122 100.302 128.108C100.448 129.073 100.705 130.008 101.026 130.799C101.351 131.603 101.719 132.2 102.053 132.537C102.139 132.625 102.241 132.699 102.353 132.756L102.356 132.758C102.476 132.82 102.779 132.907 103.341 132.967C103.877 133.024 104.568 133.049 105.4 133.042C107.063 133.029 109.229 132.887 111.731 132.644C116.732 132.159 123.02 131.276 129.204 130.235L129.208 130.234C134.445 129.381 139.592 128.353 143.815 127.321C148.077 126.28 151.296 125.259 152.755 124.446L152.761 124.443C155.272 123.068 156.63 121.585 157.112 119.868C157.598 118.131 157.25 115.943 155.852 113.025C151.984 104.935 146.169 95.7119 141.306 88.4944C138.877 84.8897 136.691 81.7928 135.113 79.5974C134.323 78.4998 133.686 77.6278 133.247 77.0306C133.027 76.732 132.856 76.5022 132.741 76.3472C132.696 76.2867 132.66 76.2377 132.632 76.2004C131.458 75.2911 129.554 74.424 127.263 73.6359C124.941 72.8368 122.306 72.1462 119.815 71.5799C117.326 71.0142 114.995 70.5755 113.285 70.2783C112.43 70.1297 111.732 70.0166 111.248 69.9407C111.006 69.9028 110.817 69.8742 110.69 69.8551C110.626 69.8456 110.578 69.8385 110.545 69.8337L110.509 69.8284L110.5 69.8272C110.476 69.8238 110.451 69.8192 110.426 69.8135L110.616 68.9951L109.799 69.1882C109.457 67.7427 108.618 66.4505 107.417 65.5279C107.306 65.4725 107.036 65.3754 106.558 65.2602C106.058 65.14 105.407 65.0175 104.634 64.9012C103.089 64.6689 101.096 64.4672 98.9249 64.3549C94.5758 64.13 89.6253 64.2702 86.1727 65.186ZM127.335 116.253L127.345 116.298C127.345 116.298 127.344 116.298 127.344 116.298C130.464 115.611 133.012 115.022 134.665 114.555C134.943 114.477 135.162 114.261 135.243 113.983C135.325 113.706 135.258 113.406 135.066 113.19C131.925 109.64 130.136 107.369 128.316 105.058C127.578 104.121 126.835 103.177 125.994 102.14C125.756 101.845 125.35 101.747 125.003 101.899C124.656 102.052 124.454 102.417 124.51 102.792L124.511 102.795L124.537 102.975C124.555 103.098 124.583 103.284 124.619 103.535C124.692 104.036 124.802 104.798 124.951 105.838C125.231 107.804 125.648 110.762 126.208 114.832C126.467 114.773 126.723 114.716 126.975 114.659L126.98 114.658C127.277 114.592 127.568 114.528 127.853 114.464C127.892 114.745 127.931 115.031 127.971 115.322C128.031 115.754 127.751 116.154 127.335 116.253ZM126.617 105.617C126.894 107.563 127.304 110.474 127.853 114.464C129.856 114.019 131.569 113.624 132.912 113.283C133.198 113.612 133.497 113.952 133.808 114.303L134.437 113.747L134.209 112.938C133.827 113.046 133.393 113.161 132.912 113.283C130.275 110.26 128.624 108.165 126.974 106.07C126.855 105.919 126.736 105.768 126.617 105.617ZM126.617 105.617C126.616 105.611 126.615 105.606 126.614 105.601C126.466 104.56 126.355 103.796 126.282 103.292C126.245 103.041 126.218 102.854 126.2 102.73L126.172 102.545L126.172 102.545C126.172 102.545 126.172 102.545 125.341 102.668L124.688 103.197C125.375 104.045 126.001 104.835 126.617 105.617ZM101.586 134.251C101.585 134.251 101.585 134.251 101.584 134.25L101.97 133.504L101.587 134.252C101.587 134.252 101.586 134.252 101.586 134.251Z" fill="black"/>
<path fill-rule="evenodd" clip-rule="evenodd" d="M81.9166 121.577C83.077 122.072 84.2598 122.368 84.6719 122.429L84.6784 122.43L84.6784 122.43C86.0539 122.645 88.273 122.883 90.2794 122.685C91.2831 122.585 92.184 122.381 92.8865 122.045C93.5797 121.712 94.0332 121.276 94.2549 120.718L95.8166 121.338C95.3962 122.396 94.5682 123.102 93.6128 123.56C92.6666 124.013 91.5517 124.247 90.4447 124.357C88.231 124.576 85.8505 124.314 84.422 124.091C83.8478 124.005 82.5292 123.665 81.2576 123.123C80.6164 122.849 79.9556 122.511 79.3956 122.108C78.8486 121.714 78.3177 121.201 78.055 120.549L78.0217 120.466L78.0065 120.378C77.9804 120.228 77.9804 120.075 78.0065 119.924L79.1238 120.118L79.6135 119.921C79.704 120.145 79.9409 120.43 80.3777 120.745C80.8015 121.05 81.3406 121.331 81.9166 121.577ZM79.3155 120.151L79.662 120.211C79.6689 120.172 79.6689 120.131 79.662 120.091L79.3155 120.151Z" fill="black"/>
<path fill-rule="evenodd" clip-rule="evenodd" d="M77.6536 119.604C78.0536 119.454 78.4814 119.39 78.908 119.417C79.3711 119.446 79.7229 119.845 79.6938 120.308C79.6648 120.771 79.2658 121.123 78.8027 121.094C78.612 121.082 78.4213 121.111 78.244 121.177C78.0668 121.244 77.9082 121.346 77.7783 121.476C77.6485 121.607 77.5505 121.761 77.4897 121.929C77.4315 122.09 77.4083 122.26 77.4212 122.429C77.5102 122.986 77.7324 123.517 78.0718 123.978C78.4163 124.447 78.872 124.83 79.4024 125.096L79.4219 125.105L79.4409 125.116C82.3392 126.759 85.7444 127.347 89.0485 126.772C89.5056 126.692 89.9407 126.998 90.0203 127.455C90.0999 127.912 89.7938 128.348 89.3367 128.427C85.6585 129.067 81.8657 128.417 78.6307 126.588C77.8737 126.206 77.2179 125.653 76.7182 124.974C76.214 124.288 75.8836 123.494 75.7561 122.656L75.7526 122.633L75.7503 122.609C75.7101 122.185 75.7647 121.757 75.91 121.356C76.0553 120.956 76.2873 120.592 76.5887 120.29C76.8901 119.988 77.2536 119.754 77.6536 119.604Z" fill="black"/>
<path fill-rule="evenodd" clip-rule="evenodd" d="M77.9431 125.048C78.3442 124.961 78.7598 124.961 79.161 125.047C79.6146 125.145 79.9031 125.592 79.8053 126.045C79.7075 126.499 79.2606 126.787 78.807 126.69C78.64 126.654 78.4667 126.654 78.2997 126.69C78.1328 126.726 77.9775 126.797 77.8444 126.897C77.7114 126.997 77.6041 127.123 77.5288 127.265C77.4692 127.377 77.4305 127.497 77.4137 127.621C77.5305 128.08 77.7476 128.512 78.052 128.887C78.3817 129.292 78.805 129.619 79.2897 129.84L79.3039 129.846L79.3179 129.853C82.2378 131.318 85.5621 131.839 88.8081 131.339C89.2667 131.268 89.6957 131.582 89.7664 132.041C89.8371 132.5 89.5226 132.929 89.064 132.999C85.48 133.552 81.808 132.979 78.5781 131.362C77.8666 131.035 77.24 130.551 76.7485 129.947C76.2534 129.338 75.9091 128.624 75.7444 127.861L75.7217 127.756L75.7262 127.648C75.7434 127.239 75.8525 126.839 76.0449 126.476C76.2372 126.114 76.5077 125.8 76.8358 125.553C77.1638 125.307 77.5419 125.135 77.9431 125.048Z" fill="black"/>
<path fill-rule="evenodd" clip-rule="evenodd" d="M77.9663 129.745C78.3653 129.688 78.7725 129.723 79.1561 129.846C79.5977 129.989 79.8404 130.462 79.6981 130.904C79.5558 131.345 79.0824 131.588 78.6408 131.446C78.5002 131.4 78.3501 131.388 78.2029 131.409C78.0556 131.429 77.9168 131.483 77.7972 131.565C77.6778 131.646 77.5813 131.752 77.514 131.872C77.4498 131.988 77.4133 132.114 77.4061 132.243C77.413 132.361 77.5318 132.701 78.1419 133.185C78.7312 133.653 79.6468 134.143 80.8822 134.559C84.8482 135.699 89.0438 135.857 93.0887 135.018L93.1005 135.016L93.1123 135.014C95.7528 134.544 98.3384 133.818 100.83 132.847C101.262 132.678 101.75 132.892 101.918 133.324C102.087 133.757 101.873 134.244 101.441 134.412C98.8499 135.422 96.1625 136.177 93.4182 136.666C89.1038 137.559 84.6292 137.388 80.3993 136.168L80.3819 136.163L80.3647 136.158C78.9977 135.699 77.8859 135.127 77.0975 134.502C76.3469 133.906 75.7255 133.126 75.7255 132.232V132.217L75.726 132.203C75.74 131.8 75.8501 131.406 76.0465 131.054C76.2428 130.702 76.5194 130.402 76.8527 130.175C77.186 129.948 77.5673 129.802 77.9663 129.745Z" fill="black"/>
<path fill-rule="evenodd" clip-rule="evenodd" d="M94.7118 118.769C94.7496 118.306 95.1552 117.962 95.6176 118C97.2662 118.135 98.7329 119.017 99.723 119.965C100.222 120.442 100.633 120.967 100.896 121.475C101.132 121.928 101.361 122.58 101.127 123.186C100.961 123.62 100.475 123.836 100.042 123.669C99.6229 123.508 99.4071 123.048 99.5437 122.627C99.5403 122.618 99.5378 122.504 99.4055 122.25C99.2446 121.94 98.9584 121.559 98.561 121.178C97.7587 120.41 96.6357 119.769 95.4806 119.675C95.0181 119.637 94.6739 119.231 94.7118 118.769Z" fill="black"/>
<path fill-rule="evenodd" clip-rule="evenodd" d="M77.4708 108.991C77.9314 108.935 78.3499 109.264 78.4055 109.724L78.4487 110.082L79.6018 119.97L79.6195 120.073C79.6977 120.53 79.3903 120.965 78.933 121.043C78.4756 121.121 78.0414 120.814 77.9632 120.356L77.9418 120.231C77.9393 120.216 77.9372 120.202 77.9355 120.187L76.7801 110.28L76.7373 109.925C76.6817 109.465 77.0101 109.046 77.4708 108.991Z" fill="black"/>
<path fill-rule="evenodd" clip-rule="evenodd" d="M97.1648 110.074C97.2993 109.641 97.0657 109.177 96.6343 109.03C96.1952 108.88 95.7176 109.114 95.5675 109.553L95.546 109.615C95.527 109.671 95.5138 109.729 95.5068 109.787L94.4367 118.717L94.1794 120.953C94.1264 121.414 94.4571 121.831 94.918 121.884C95.379 121.937 95.7956 121.606 95.8487 121.145L96.105 118.917L97.1648 110.074Z" fill="black"/>
<path fill-rule="evenodd" clip-rule="evenodd" d="M78.524 109.831C78.6391 109.893 78.799 109.967 79.0161 110.047C79.4955 110.224 80.1443 110.39 80.939 110.531C82.5251 110.812 84.6113 110.977 86.9129 110.946L86.9241 110.946C89.4519 110.946 91.7138 110.73 93.3387 110.39C94.1568 110.219 94.7736 110.025 95.1734 109.832C95.2065 109.816 95.2371 109.801 95.2654 109.786C95.2456 109.775 95.2247 109.764 95.2024 109.752C94.8135 109.551 94.197 109.345 93.3687 109.164C91.7257 108.805 89.429 108.579 86.9027 108.579C84.3804 108.579 82.0898 108.82 80.4516 109.187C79.6259 109.372 79.009 109.579 78.6188 109.78C78.5842 109.797 78.5527 109.815 78.524 109.831ZM95.5545 109.588C95.5546 109.588 95.554 109.589 95.5528 109.59C95.5539 109.589 95.5545 109.588 95.5545 109.588ZM80.0845 107.547C81.8706 107.147 84.2886 106.898 86.9027 106.898C89.513 106.898 91.9355 107.131 93.7276 107.523C94.6167 107.717 95.3968 107.961 95.975 108.26C96.2631 108.409 96.543 108.593 96.7607 108.827C96.9826 109.065 97.1812 109.402 97.1812 109.825C97.1812 109.858 97.1793 109.891 97.1754 109.924C97.128 110.324 96.9057 110.626 96.6859 110.833C96.4647 111.041 96.189 111.208 95.9023 111.346C95.327 111.623 94.5606 111.851 93.6826 112.035C91.9165 112.404 89.5364 112.626 86.9297 112.626C84.5464 112.658 82.3543 112.488 80.6458 112.186C79.7926 112.034 79.0395 111.846 78.4354 111.624C77.8695 111.415 77.2971 111.129 76.9575 110.704L76.9545 110.7L76.9545 110.7C76.7626 110.456 76.6533 110.157 76.6459 109.845C76.6457 109.838 76.6456 109.832 76.6456 109.825C76.6456 109.397 76.8553 109.064 77.0731 108.837C77.2892 108.611 77.566 108.432 77.8509 108.285C78.4237 107.991 79.198 107.746 80.0845 107.547Z" fill="black"/>
<path fill-rule="evenodd" clip-rule="evenodd" d="M80.472 135.027C80.933 134.975 81.3495 135.305 81.4022 135.766L81.9794 140.812C83.522 141.205 85.1092 141.411 86.7053 141.427C88.4736 141.39 90.2329 141.178 91.9556 140.792L92.4884 136.08C92.5405 135.619 92.9566 135.288 93.4176 135.34C93.8787 135.392 94.2102 135.808 94.158 136.269L93.5588 141.569C93.5193 141.918 93.2667 142.205 92.9255 142.29C90.8977 142.791 88.818 143.065 86.7268 143.107C86.7187 143.107 86.7105 143.107 86.7024 143.107C84.7651 143.09 82.8393 142.812 80.9793 142.282C80.6522 142.189 80.4135 141.908 80.3749 141.57L79.7328 135.957C79.6801 135.496 80.011 135.08 80.472 135.027Z" fill="black"/>
<path fill-rule="evenodd" clip-rule="evenodd" d="M25.0766 63.5153C25.2906 63.6124 25.4541 63.7947 25.5275 64.0179C26.9501 68.3436 33.1867 84.2727 37.0903 92.611C37.287 93.0312 37.1059 93.5313 36.6856 93.7281C36.2654 93.9248 35.7653 93.7436 35.5685 93.3234C31.8635 85.4093 26.085 70.7414 24.2251 65.4066L16.4604 68.6983C17.6167 75.8443 19.238 84.2535 20.9173 92.9636C22.1508 99.3618 23.4157 105.922 24.5505 112.264C24.6323 112.72 24.3283 113.157 23.8715 113.239C23.4148 113.32 22.9783 113.016 22.8965 112.56C21.7715 106.273 20.5102 99.73 19.2773 93.334C17.541 84.3263 15.8608 75.6104 14.6968 68.3141C14.636 67.9327 14.843 67.559 15.1986 67.4082L24.4015 63.5068C24.6178 63.4151 24.8627 63.4182 25.0766 63.5153Z" fill="black"/>
<path fill-rule="evenodd" clip-rule="evenodd" d="M91.8517 89.5874C92.1739 89.9213 92.1644 90.4531 91.8306 90.7754C90.7909 91.7787 90.0273 92.7366 89.657 93.7399C89.3067 94.6889 89.2844 95.7429 89.8485 97.031C90.5631 98.1432 91.1879 99.3082 91.717 100.516L91.7741 100.646L91.7851 100.788C91.8537 101.671 91.73 102.558 91.4226 103.391C91.1152 104.223 90.6313 104.981 90.0042 105.616C89.678 105.946 89.1461 105.949 88.8161 105.623C88.486 105.297 88.4828 104.765 88.809 104.435C89.2696 103.969 89.6226 103.414 89.8463 102.809C90.054 102.246 90.1462 101.65 90.1184 101.055C89.6295 99.9585 89.0555 98.8994 88.4013 97.8872L88.3666 97.8335L88.3405 97.7752C87.5817 96.0846 87.5639 94.558 88.0807 93.158C88.5825 91.7986 89.5632 90.6284 90.6637 89.5663C90.9976 89.2441 91.5295 89.2535 91.8517 89.5874Z" fill="white"/>
<path fill-rule="evenodd" clip-rule="evenodd" d="M86.4373 89.5874C86.7595 89.9213 86.75 90.4531 86.4162 90.7754C85.3751 91.7801 84.6066 92.7382 84.234 93.7414C83.8816 94.6902 83.8595 95.7432 84.4339 97.0314C85.1395 98.1462 85.7632 99.3087 86.3001 100.51L86.3595 100.643L86.3707 100.788C86.4393 101.671 86.3156 102.558 86.0082 103.391C85.7007 104.223 85.2169 104.981 84.5898 105.616C84.2636 105.946 83.7317 105.949 83.4017 105.623C83.0716 105.297 83.0684 104.765 83.3946 104.435C83.8552 103.969 84.2082 103.414 84.4319 102.809C84.6393 102.247 84.7315 101.652 84.7042 101.058C84.2066 99.9622 83.6317 98.901 82.9836 97.8821L82.9523 97.8329L82.9281 97.7797C82.1564 96.0871 82.1383 94.5579 82.6588 93.1565C83.1637 91.797 84.1502 90.627 85.2493 89.5663C85.5832 89.2441 86.1151 89.2535 86.4373 89.5874Z" fill="white"/>
<path d="M126.759 105.826L124.625 103.114L125.173 102.654L126.125 102.337L126.759 105.826Z" fill="black"/>
<path d="M134.401 112.531L134.795 113.758L134.718 114.116L134.084 114.434L133.16 114.434L132.977 113.758L132.815 112.848L134.401 112.531Z" fill="black"/>
<path d="M127.065 115.349C127.085 115.365 127.115 115.366 127.139 115.366C127.156 115.366 127.16 115.351 127.171 115.339C127.185 115.324 127.191 115.31 127.192 115.289C127.192 115.267 127.191 115.252 127.205 115.233C127.224 115.209 127.248 115.19 127.268 115.167C127.274 115.16 127.282 115.152 127.286 115.145C127.292 115.135 127.305 115.134 127.312 115.125C127.321 115.114 127.33 115.099 127.344 115.095C127.35 115.093 127.368 115.079 127.374 115.072C127.389 115.056 127.405 115.04 127.42 115.024C127.436 115.007 127.442 114.984 127.455 114.967C127.472 114.946 127.422 114.975 127.414 114.98C127.368 115.01 127.317 115.029 127.267 115.05C127.242 115.061 127.215 115.066 127.19 115.077C127.112 115.111 127.036 115.152 126.962 115.193C126.943 115.203 126.917 115.225 126.896 115.23C126.882 115.233 126.867 115.227 126.853 115.231C126.817 115.242 126.777 115.247 126.767 115.204C126.762 115.182 126.764 115.185 126.749 115.169C126.742 115.162 126.758 115.164 126.762 115.165C126.779 115.167 126.792 115.213 126.797 115.226C126.813 115.272 126.826 115.314 126.828 115.362C126.829 115.381 126.831 115.407 126.852 115.415C126.862 115.418 126.863 115.428 126.865 115.438C126.87 115.47 126.852 115.542 126.887 115.562C126.891 115.564 126.899 115.57 126.904 115.568C126.911 115.566 126.915 115.58 126.922 115.586C126.934 115.598 126.951 115.603 126.966 115.61C126.97 115.612 126.983 115.613 126.979 115.617C126.976 115.62 126.96 115.621 126.965 115.63C126.973 115.648 127.007 115.657 127.023 115.664C127.083 115.689 127.159 115.715 127.223 115.687C127.263 115.669 127.318 115.659 127.351 115.629C127.376 115.606 127.418 115.585 127.451 115.573C127.477 115.563 127.503 115.542 127.523 115.522C127.545 115.5 127.559 115.499 127.569 115.467" stroke="black" stroke-width="2" stroke-linecap="round"/>
<path d="M142.479 205.695C142.242 205.513 141.729 205.269 141.729 205.703C141.729 206.008 142.329 207.4 142.329 206.695C142.329 206.129 142.203 205.594 141.992 205.07C141.856 204.733 141.577 204.438 141.5 204.091C141.443 203.832 141.461 204.628 141.521 204.887C141.652 205.451 141.874 206.056 142.254 206.503C142.627 206.942 142.614 206.418 142.625 206.07C142.636 205.755 142.669 205.026 142.363 204.803C141.798 204.392 142.369 206.307 142.479 206.528C142.969 207.507 143.43 205.871 143.554 205.428C143.672 205.007 143.896 204.12 143.275 203.982C142.621 203.837 141.861 204.531 141.421 204.895C140.919 205.31 140.467 205.765 140.129 206.328C139.855 206.787 139.338 207.703 139.571 208.278C139.751 208.724 140.439 207.928 140.504 207.862C141.262 207.093 141.936 206.2 142.379 205.212C142.721 204.45 142.324 204.983 142.179 205.445C142.132 205.597 141.739 207.658 141.654 207.653C141.525 207.647 140.968 205.501 140.879 205.287C140.839 205.188 140.367 204.109 140.379 204.67C140.396 205.429 140.634 206.193 140.888 206.903C141.053 207.366 140.795 206.201 140.784 206.116C140.675 205.299 140.502 204.542 140.013 203.87C139.935 203.764 139.929 204.814 139.929 204.887C139.929 205.34 140.055 206.69 139.971 206.245C139.854 205.619 139.61 204.923 139.367 204.337C139.295 204.163 139.071 203.683 139.05 203.87C139.017 204.168 139.21 204.591 139.296 204.866C139.38 205.135 139.938 206.094 139.771 206.387C139.693 206.523 139.571 206.137 139.513 205.991C139.339 205.552 139.233 205.09 139.075 204.645C139.07 204.631 138.762 203.918 138.746 203.945C138.648 204.108 138.729 204.567 138.729 204.737C138.729 205.095 138.729 205.453 138.729 205.812C138.729 206.46 138.669 205.532 138.65 205.387C138.554 204.644 138.664 203.622 138.321 202.937C138.187 202.668 138.356 203.537 138.338 203.837C138.312 204.27 138.218 204.691 138.163 205.12C138.156 205.175 138.172 205.726 138.113 205.762C138.093 205.774 137.775 204.497 137.763 204.362C137.737 204.085 137.785 203.8 137.75 203.524C137.721 203.292 137.388 203.054 137.379 203.428C137.372 203.758 137.351 204.015 137.567 204.274C137.731 204.471 137.604 205.157 137.604 205.412C137.604 205.493 137.602 206.627 137.454 206.545C136.843 206.205 137.11 204.931 137.079 204.345C137.062 204.024 137.004 203.704 137.004 203.37C137.004 203.129 136.929 202.941 136.929 203.257C136.929 203.606 136.737 205.786 137.004 205.92" stroke="white" stroke-width="2" stroke-linecap="round"/>
<defs>
<linearGradient id="paint0_linear_254_156" x1="86.8962" y1="63.4205" x2="86.8962" y2="181.135" gradientUnits="userSpaceOnUse">
<stop stop-color="#DD1818"/>
<stop offset="1" stop-color="#FF0F00"/>
</linearGradient>
</defs>
</svg>
