<svg width="200" height="435" viewBox="0 0 200 435" fill="none" xmlns="http://www.w3.org/2000/svg">
<path d="M159.451 145.042C163.368 144.179 166.533 143.446 168.572 142.871C163.019 136.594 160.792 133.456 157.17 128.984C157.17 128.984 157.895 133.848 159.424 144.989L159.451 145.042ZM162.134 164.551V164.787C166.077 191.619 170.692 221.276 171.014 227.055L65.6869 226.872C66.0356 208.409 73.7353 156.706 78.1619 130.109C75.8279 131.05 34.7542 145.8 29.8715 140.962V140.831C26.4643 121.792 22.0913 101.027 19.5963 85.3881L31.1324 80.4976C32.9299 85.9635 40.7636 105.97 45.6732 116.457C56.6793 106.581 68.699 97.8345 81.5422 90.3571C89.5906 86.1204 102.736 86.6434 102.736 86.6434C102.905 85.4393 103.374 84.294 104.104 83.3088C104.834 82.3236 105.802 81.5288 106.922 80.9945L107.7 80.7069C116.687 78.3008 133.159 80.0269 135.225 81.2561C136.955 82.5607 138.168 84.4088 138.659 86.4865C138.659 86.4865 160.578 89.6248 167.016 94.7768C167.016 94.7768 186.547 120.798 196.313 141.223C199.907 148.729 198.539 153.332 191.993 156.915C188.237 159.373 175.36 162.302 162.187 164.551H162.134ZM125.782 154.09C126.265 152.835 123.287 149.304 119.772 149.017H119.423L120.765 137.824C120.765 136.438 115.399 135.208 108.934 135.208C102.468 135.208 97.1293 136.359 97.1293 137.824C97.1332 137.985 97.1895 138.14 97.2903 138.268L98.739 150.691C98.727 150.76 98.727 150.831 98.739 150.9C98.3521 150.875 97.9644 150.933 97.6027 151.069C97.2409 151.205 96.9136 151.415 96.6433 151.686C96.373 151.957 96.1662 152.282 96.0371 152.638C95.9079 152.995 95.8595 153.374 95.8952 153.75C96.0292 154.631 96.3765 155.467 96.9084 156.19C97.4403 156.913 98.1414 157.502 98.9536 157.909C98.5974 157.832 98.2283 157.832 97.8723 157.909C97.5162 157.987 97.1819 158.139 96.8929 158.356C96.6039 158.573 96.3671 158.849 96.1994 159.165C96.0316 159.481 95.937 159.829 95.922 160.184C96.0933 160.977 96.4515 161.721 96.9683 162.357C97.4851 162.992 98.1464 163.502 98.9 163.845C98.5714 163.739 98.2222 163.71 97.8798 163.758C97.5374 163.807 97.2114 163.933 96.9276 164.126C96.6438 164.318 96.41 164.573 96.2448 164.87C96.0795 165.166 95.9874 165.496 95.9757 165.833C95.9757 167.088 97.8 168.657 101.073 169.756V170.383L101.878 177.418C104.118 178.057 106.438 178.391 108.773 178.412C111.316 178.361 113.845 178.028 116.311 177.418L117.063 170.776V170.357C120.44 169.757 123.748 168.828 126.935 167.585L127.391 167.219C125.004 164.891 123.287 157.359 125.835 154.09H125.782Z" fill="url(#paint0_linear_257_309)"/>
<path d="M107.164 429.134V428.977H63.7289C62.468 422.021 67.78 418.961 73.387 418.333C85.0572 416.999 99.0615 409.755 101.235 409.311H125.165C125.165 413.338 125.165 415.796 125.165 416.293V416.607C122.431 417.422 119.631 418.008 116.795 418.359C111.188 419.065 105.849 422.125 107.164 429.134Z" fill="#DD1818"/>
<path d="M107.163 428.977V429.134C105.849 422.125 111.187 419.065 116.794 418.438C119.631 418.087 122.431 417.501 125.165 416.686C134.367 414.07 142.979 409.755 144.642 409.415H169.19C169.19 420.112 169.055 427.199 169.19 429.03L107.163 428.977Z" fill="#DD1818"/>
<path d="M118.753 33.5803C119.047 33.6005 119.321 33.7323 119.517 33.9474C119.713 34.1626 119.814 34.4439 119.799 34.731C119.772 35.02 119.631 35.2876 119.406 35.4777C119.181 35.6677 118.889 35.7657 118.592 35.7509C118.297 35.7243 118.026 35.5861 117.835 35.3659C117.644 35.1458 117.55 34.8614 117.572 34.5741C117.579 34.4319 117.615 34.2925 117.679 34.1645C117.743 34.0364 117.832 33.9224 117.943 33.8293C118.053 33.7363 118.182 33.6662 118.322 33.6234C118.461 33.5806 118.607 33.5659 118.753 33.5803Z" fill="black"/>
<path d="M104.025 33.1877C104.291 33.2427 104.528 33.3899 104.692 33.602C104.855 33.814 104.935 34.0767 104.915 34.3414C104.895 34.6061 104.778 34.8549 104.585 35.0419C104.392 35.2288 104.135 35.3412 103.864 35.3583C103.703 35.3684 103.542 35.3449 103.392 35.2893C103.241 35.2337 103.105 35.1473 102.991 35.0359C102.878 34.9246 102.79 34.7908 102.735 34.6437C102.679 34.4966 102.656 34.3395 102.667 34.183C102.679 34.0265 102.725 33.8743 102.802 33.7365C102.879 33.5988 102.985 33.4787 103.114 33.3844C103.242 33.2901 103.39 33.2238 103.547 33.1898C103.705 33.1559 103.867 33.1552 104.025 33.1877Z" fill="black"/>
<path fill-rule="evenodd" clip-rule="evenodd" d="M54.7632 136.768C65.9055 133.576 76.7219 129.665 77.8487 129.21L78.6367 131.163C77.4295 131.65 66.542 135.585 55.3433 138.793C49.7446 140.397 44.0306 141.831 39.3924 142.558C37.0774 142.921 34.9876 143.115 33.2952 143.054C32.4485 143.023 31.668 142.927 30.9929 142.741C30.3247 142.556 29.6902 142.263 29.211 141.788L30.6935 140.292C30.8246 140.422 31.0832 140.58 31.5543 140.711C32.0184 140.839 32.6233 140.922 33.3716 140.949C34.8691 141.003 36.8075 140.831 39.0662 140.477C43.5755 139.77 49.1913 138.365 54.7632 136.768Z" fill="black"/>
<path fill-rule="evenodd" clip-rule="evenodd" d="M117.663 0.735253C121.19 0.17698 124.713 1.40371 127.98 4.96337L128.012 4.99824L128.041 5.03585C130.791 8.63379 132.576 12.847 133.232 17.2927C133.671 19.5457 133.991 21.7609 134.274 23.715C134.323 24.0488 134.37 24.3749 134.416 24.6924C134.501 25.2678 134.102 25.8027 133.527 25.8871C132.952 25.9714 132.417 25.5732 132.332 24.9978C132.285 24.6745 132.237 24.3445 132.188 24.0084C131.904 22.0456 131.59 19.8781 131.16 17.6716L131.155 17.6473L131.152 17.6229C130.553 13.541 128.919 9.66724 126.396 6.35274C123.53 3.24571 120.692 2.38822 117.992 2.81561C115.194 3.25848 112.337 5.11212 109.6 7.85633C108.032 9.44037 106.598 11.1453 105.312 12.9543L105.31 12.9576C101.368 18.4591 98.3344 24.527 96.3181 30.9409C95.8105 32.9181 96.1205 35.6529 97.0546 38.792C97.9825 41.9106 99.4827 45.2864 101.186 48.452C102.888 51.6156 104.776 54.5381 106.461 56.7492C107.305 57.8557 108.086 58.769 108.758 59.4408C109.45 60.1337 109.933 60.4734 110.189 60.5766C110.58 60.7152 110.983 60.8205 111.393 60.8913L111.399 60.8923L111.405 60.8935C113.818 61.3388 116.69 60.518 119.313 58.9239C121.927 57.3351 124.116 55.0842 125.188 52.9334C125.448 52.4129 126.08 52.2014 126.601 52.461C127.121 52.7206 127.333 53.353 127.073 53.8735C125.785 56.4563 123.279 58.9781 120.407 60.7238C117.545 62.4629 114.141 63.5379 111.03 62.9659C110.497 62.8737 109.974 62.7362 109.465 62.5549L109.452 62.5501L109.439 62.5451C108.746 62.2768 107.996 61.6584 107.268 60.9299C106.509 60.1705 105.665 59.1792 104.786 58.026C103.027 55.7176 101.08 52.7003 99.331 49.45C97.5835 46.2018 96.0168 42.6897 95.0358 39.3927C94.0647 36.1291 93.6222 32.9303 94.2863 30.385L94.2928 30.3601L94.3005 30.3355C96.3839 23.6983 99.5208 17.4213 103.596 11.7325C104.949 9.83002 106.457 8.03761 108.105 6.37277L108.108 6.37015C110.978 3.4922 114.224 1.27957 117.663 0.735253Z" fill="black"/>
<path fill-rule="evenodd" clip-rule="evenodd" d="M136.472 68.3789C136.403 72.637 136.332 76.9359 136.332 81.3344H134.226C134.226 76.8611 134.297 72.5203 134.367 68.2402C134.54 57.6305 134.707 47.3944 133.774 36.4417L135.873 36.2629C136.815 47.3285 136.646 57.7262 136.472 68.3789Z" fill="black"/>
<path fill-rule="evenodd" clip-rule="evenodd" d="M110.289 61.7841C110.282 61.5843 110.285 61.3843 110.297 61.1847L112.399 61.3143C112.389 61.4802 112.389 61.6465 112.399 61.8124L112.409 61.964L112.375 62.1122C111.922 64.0911 111.583 66.1968 111.233 68.3692C111.049 69.5093 110.862 70.6677 110.655 71.8359C110.062 75.1714 109.305 78.5262 107.953 81.3685L106.051 80.4636C107.274 77.8924 107.993 74.7745 108.581 71.4673C108.775 70.3755 108.956 69.2551 109.137 68.132C109.486 65.9649 109.838 63.7874 110.289 61.7841Z" fill="black"/>
<path fill-rule="evenodd" clip-rule="evenodd" d="M134.17 25.7727C133.367 26.4968 132.652 27.3084 132.04 28.1912C131.708 28.6692 131.052 28.788 130.574 28.4567C130.096 28.1253 129.977 27.4692 130.309 26.9912C131.018 25.9677 131.847 25.0286 132.778 24.1925L132.792 24.1794L132.807 24.1669C134.585 22.686 136.393 22.2745 138.051 22.822C139.63 23.3437 140.831 24.6607 141.649 26.1133C142.477 27.5833 142.994 29.33 143.133 30.9472C143.267 32.5191 143.059 34.1918 142.172 35.327L142.136 35.3726L142.096 35.414C141.137 36.3964 139.904 37.076 138.554 37.3708C137.222 37.6618 135.832 37.5658 134.555 37.0946C133.988 36.9396 133.442 36.7205 132.926 36.4414C132.415 36.1644 132.225 35.5252 132.502 35.0138C132.779 34.5024 133.418 34.3123 133.929 34.5893C134.314 34.7974 134.723 34.9599 135.148 35.073L135.199 35.0867L135.248 35.1054C136.158 35.4486 137.152 35.5212 138.105 35.3131C139.036 35.1096 139.883 34.6476 140.544 33.9876C140.925 33.4627 141.148 32.463 141.034 31.1264C140.921 29.7981 140.489 28.3444 139.814 27.1469C139.13 25.9319 138.275 25.1143 137.39 24.822C136.586 24.5564 135.525 24.65 134.17 25.7727Z" fill="black"/>
<path fill-rule="evenodd" clip-rule="evenodd" d="M86.0694 2.8187C85.8492 3.24198 85.856 3.59418 86.0181 3.96464C86.2043 4.39038 86.6234 4.88783 87.3352 5.4308C88.7569 6.51518 91 7.52401 93.4901 8.39522C98.4533 10.1317 103.96 11.1761 104.617 11.2448L104.398 13.3396C103.553 13.2513 97.8852 12.1643 92.7946 10.3833C90.2578 9.49578 87.7541 8.39934 86.0578 7.10549C85.2107 6.45934 84.478 5.69944 84.0884 4.80878C83.675 3.86371 83.6814 2.84124 84.2041 1.84056L84.2068 1.83534C84.9158 0.49636 86.4582 0.0762735 87.9834 0.0100597C89.5755 -0.0590549 91.5713 0.232439 93.7802 0.7467C98.215 1.77918 103.789 3.77879 109.302 6.00687C117.724 9.41706 126.164 13.41 130.393 15.4105C131.42 15.8965 132.199 16.2649 132.669 16.4788L133.029 16.6294L132.217 18.5728L131.826 18.4096L131.811 18.4028C131.32 18.1794 130.511 17.7966 129.447 17.2934C125.192 15.2805 116.861 11.3401 108.512 7.95939C103.025 5.74166 97.5734 3.79238 93.3026 2.79809C91.1587 2.29895 89.3818 2.05759 88.0748 2.11433C86.7045 2.17382 86.2203 2.53655 86.0694 2.8187Z" fill="black"/>
<path fill-rule="evenodd" clip-rule="evenodd" d="M119.84 29.5775C118.871 29.4097 117.876 29.4694 116.936 29.7513C116.379 29.9185 115.792 29.6024 115.625 29.0453C115.458 28.4882 115.774 27.9011 116.331 27.7339C117.584 27.3581 118.909 27.2787 120.199 27.5021C121.489 27.7255 122.707 28.2456 123.753 29.0213C124.221 29.3677 124.318 30.0273 123.972 30.4945C123.626 30.9617 122.966 31.0595 122.499 30.7131C121.719 30.1352 120.808 29.7452 119.84 29.5775Z" fill="black"/>
<path fill-rule="evenodd" clip-rule="evenodd" d="M133.789 29.0167C134.171 28.5788 134.837 28.5341 135.275 28.9168C136.24 29.761 137.487 30.2458 138.793 30.2784C139.374 30.2929 139.834 30.7761 139.82 31.3575C139.805 31.9389 139.322 32.3985 138.74 32.384C136.949 32.3393 135.229 31.6744 133.889 30.5027C133.451 30.1199 133.406 29.4546 133.789 29.0167Z" fill="black"/>
<path fill-rule="evenodd" clip-rule="evenodd" d="M105.571 29.8879C104.381 29.7365 103.147 29.8852 102.492 30.1754C101.961 30.411 101.339 30.171 101.103 29.6392C100.867 29.1075 101.107 28.4854 101.639 28.2497C102.755 27.7554 104.405 27.6164 105.837 27.7985C106.568 27.8914 107.311 28.0757 107.949 28.3877C108.579 28.6954 109.21 29.1797 109.527 29.9243L109.529 29.9292L109.529 29.9292C109.897 30.8051 110.009 31.8401 109.999 32.8775C109.988 33.9275 109.849 35.0609 109.656 36.1782C109.394 37.6997 109.011 39.2858 108.686 40.635C108.54 41.2405 108.406 41.7983 108.299 42.2812L108.297 42.2888L108.297 42.2888C108.034 43.4369 107.77 44.8532 107.956 45.8121C108.042 46.2607 108.192 46.4209 108.304 46.4859C108.43 46.559 108.795 46.6783 109.662 46.4287C110.221 46.2678 110.804 46.5905 110.965 47.1494C111.126 47.7084 110.803 48.2919 110.244 48.4528C109.113 48.7786 108.079 48.7901 107.248 48.3082C106.402 47.8182 106.036 46.9765 105.888 46.2123C105.604 44.7473 105.997 42.8971 106.243 41.8217C106.365 41.2696 106.51 40.6721 106.661 40.0437C106.979 38.7269 107.33 37.2745 107.581 35.8201C107.764 34.7602 107.883 33.7491 107.892 32.8557C107.902 31.9496 107.796 31.2422 107.587 30.745L108.558 30.3371L107.589 30.75C107.544 30.6446 107.404 30.4653 107.025 30.2802C106.655 30.0993 106.152 29.9617 105.571 29.8879Z" fill="black"/>
<path fill-rule="evenodd" clip-rule="evenodd" d="M107.544 51.5787C108.017 51.2408 108.675 51.3507 109.013 51.824C109.321 52.2563 109.727 52.6179 110.202 52.8805C110.676 53.1431 111.207 53.2994 111.754 53.3367C112.301 53.374 112.849 53.2911 113.358 53.0949C113.866 52.8987 114.321 52.5947 114.69 52.2072C115.09 51.7856 115.757 51.7688 116.178 52.1695C116.6 52.5703 116.617 53.2369 116.216 53.6584C115.63 54.2744 114.912 54.7527 114.116 55.06C113.32 55.3672 112.464 55.4962 111.611 55.4381C110.758 55.38 109.928 55.1362 109.182 54.7234C108.436 54.3105 107.792 53.7385 107.298 53.0477C106.961 52.5744 107.07 51.9167 107.544 51.5787Z" fill="black"/>
<path fill-rule="evenodd" clip-rule="evenodd" d="M124.254 392.343C124.405 379.967 124.602 363.773 124.756 346.013L126.862 346.032C126.708 363.785 126.51 380.008 126.36 392.394C126.274 399.446 126.203 405.255 126.164 409.395V416.372H124.058V409.38C124.097 405.221 124.168 399.403 124.254 392.343Z" fill="black"/>
<path fill-rule="evenodd" clip-rule="evenodd" d="M152.533 234.162C153.114 234.179 153.572 234.664 153.555 235.245C153.402 240.564 155.185 244.784 158.154 248.013C161.14 251.262 165.369 253.552 170.143 254.887C172.883 255.647 175.704 256.099 178.55 256.236C179.131 256.263 179.579 256.757 179.551 257.338C179.523 257.919 179.03 258.367 178.449 258.339C175.446 258.195 172.471 257.718 169.579 256.916L169.577 256.916C164.532 255.505 159.921 253.048 156.603 249.439C153.268 245.81 151.281 241.059 151.45 235.185C151.467 234.603 151.952 234.145 152.533 234.162Z" fill="black"/>
<path fill-rule="evenodd" clip-rule="evenodd" d="M169.469 227.022C170.05 227.014 170.529 227.478 170.538 228.059C170.672 236.793 170.806 246.162 170.806 255.899C171.081 306.693 170.521 367.488 170.204 401.963C170.179 404.59 170.157 407.063 170.136 409.368V428.978C170.136 429.559 169.664 430.031 169.083 430.031C168.501 430.031 168.03 429.559 168.03 428.978V409.354C168.05 407.048 168.073 404.573 168.097 401.945C168.415 367.468 168.974 306.686 168.7 255.907L168.7 255.902C168.7 246.182 168.566 236.826 168.432 228.092C168.423 227.51 168.887 227.031 169.469 227.022Z" fill="black"/>
<path fill-rule="evenodd" clip-rule="evenodd" d="M169.082 427.976C169.664 427.976 170.136 428.448 170.136 429.03V429.394C170.136 429.674 170.024 429.944 169.826 430.141C169.627 430.339 169.358 430.449 169.078 430.448L107.159 430.187C106.577 430.185 106.108 429.711 106.11 429.13C106.113 428.548 106.586 428.078 107.168 428.081L168.288 428.339C168.481 428.117 168.765 427.976 169.082 427.976Z" fill="black"/>
<path fill-rule="evenodd" clip-rule="evenodd" d="M110.819 247.369C111.4 247.343 111.892 247.793 111.918 248.374C113.389 281.251 118.431 313.883 126.961 345.723L126.964 345.736C132.616 367.934 139.182 389.171 145.51 408.778C145.544 408.882 145.561 408.991 145.561 409.101V409.363C145.561 409.863 145.209 410.294 144.719 410.395C144.429 410.454 143.695 410.735 142.463 411.25C142.022 411.434 141.525 411.645 140.983 411.875C140.095 412.251 139.086 412.679 137.999 413.128C134.476 414.584 129.981 416.334 125.324 417.645C122.536 418.475 119.681 419.073 116.79 419.431L116.778 419.432C114.096 419.732 111.607 420.604 109.962 422.116C108.378 423.572 107.469 425.714 108.065 428.888C108.172 429.459 107.795 430.01 107.224 430.117C106.652 430.224 106.102 429.847 105.994 429.276C105.275 425.441 106.379 422.548 108.537 420.565C110.633 418.639 113.614 417.668 116.537 417.34C119.313 416.996 122.054 416.422 124.73 415.624L124.746 415.619C129.288 414.342 133.696 412.627 137.194 411.181C138.279 410.733 139.261 410.317 140.138 409.945C140.684 409.714 141.188 409.5 141.651 409.306C142.246 409.058 142.794 408.833 143.259 408.659C137.002 389.251 130.519 368.231 124.924 346.262C116.357 314.276 111.292 281.495 109.814 248.468C109.788 247.887 110.238 247.395 110.819 247.369Z" fill="black"/>
<path fill-rule="evenodd" clip-rule="evenodd" d="M67.7825 226.134C68.364 226.12 68.8462 226.581 68.8596 227.162C70.5197 299.174 86.6919 361.072 102.183 409.04C102.275 409.325 102.241 409.636 102.09 409.895C101.939 410.153 101.685 410.335 101.392 410.396C101.227 410.429 100.857 410.554 100.231 410.803C99.6333 411.041 98.8768 411.361 97.9772 411.743L97.6333 411.889C95.892 412.629 93.694 413.564 91.2309 414.523C85.9891 416.564 79.4672 418.75 73.4521 419.433L73.4505 419.433C70.7697 419.733 68.2861 420.605 66.6399 422.112C65.2032 423.427 64.3196 425.299 64.5888 427.977H107.754C108.335 427.977 108.807 428.449 108.807 429.03C108.807 429.612 108.335 430.083 107.754 430.083H63.6753C63.1661 430.083 62.7298 429.719 62.639 429.218C61.9484 425.408 63.0618 422.532 65.2177 420.558C67.3138 418.639 70.2892 417.668 73.2152 417.34C73.2155 417.34 73.2158 417.34 73.2162 417.34L73.3334 418.386L73.2146 417.34C73.2148 417.34 73.215 417.34 73.2152 417.34C78.9507 416.689 85.2657 414.586 90.4665 412.56C92.8984 411.613 95.0693 410.69 96.8123 409.949L97.1535 409.804C98.0485 409.424 98.8281 409.094 99.4532 408.846C99.5911 408.791 99.726 408.738 99.8566 408.688C99.964 409.022 100.071 409.355 100.179 409.687L101.181 409.364L100.97 408.332C100.679 408.392 100.292 408.523 99.8566 408.688C84.4328 360.764 68.409 299.008 66.7539 227.211C66.7405 226.629 67.201 226.147 67.7825 226.134Z" fill="black"/>
<path fill-rule="evenodd" clip-rule="evenodd" d="M100.188 410.443V408.337H124.709V410.443H100.188Z" fill="black"/>
<path fill-rule="evenodd" clip-rule="evenodd" d="M144.615 410.443V408.337H169.136V410.443H144.615Z" fill="black"/>
<path fill-rule="evenodd" clip-rule="evenodd" d="M106.11 429.004C106.11 428.422 106.582 427.951 107.163 427.951H169.082C169.664 427.951 170.136 428.422 170.136 429.004V433.947C170.136 434.528 169.664 435 169.082 435H107.163C106.582 435 106.11 434.528 106.11 433.947V429.004ZM108.216 430.057V432.894H168.029V430.057H108.216Z" fill="black"/>
<path fill-rule="evenodd" clip-rule="evenodd" d="M62.6758 429.004C62.6758 428.422 63.1473 427.951 63.729 427.951H107.083C107.665 427.951 108.136 428.422 108.136 429.004V433.947C108.136 434.528 107.665 435 107.083 435H63.729C63.1473 435 62.6758 434.528 62.6758 433.947V429.004ZM64.7821 430.057V432.894H106.03V430.057H64.7821Z" fill="black"/>
<path fill-rule="evenodd" clip-rule="evenodd" d="M78.7767 126.897C79.3518 126.984 79.7471 127.521 79.6597 128.096C79.6172 128.376 79.5516 128.677 79.495 128.937C79.4732 129.037 79.4528 129.131 79.4355 129.215C79.3662 129.553 79.3229 129.837 79.3229 130.109C79.3229 130.167 79.3181 130.224 79.3086 130.282C74.9608 156.405 67.4824 206.59 66.8749 225.821L169.983 226C169.644 222.365 168.507 214.253 166.998 203.969C166.169 198.321 165.236 192.074 164.267 185.588C163.258 178.829 162.209 171.811 161.2 164.94C161.115 164.364 161.513 163.829 162.088 163.745C162.664 163.66 163.199 164.058 163.283 164.634C164.286 171.454 165.337 178.496 166.35 185.277C167.322 191.786 168.259 198.056 169.082 203.663C170.764 215.122 172.009 224.046 172.173 226.997C172.189 227.286 172.085 227.569 171.886 227.78C171.687 227.99 171.41 228.109 171.12 228.109L65.7929 227.925C65.5104 227.925 65.24 227.811 65.0424 227.609C64.8447 227.408 64.7364 227.135 64.7418 226.852C65.092 208.314 72.7932 156.61 77.2175 130.016C77.2265 129.565 77.299 129.149 77.3722 128.792C77.401 128.652 77.4282 128.527 77.4534 128.412C77.5031 128.184 77.5452 127.991 77.5773 127.78C77.6647 127.205 78.2017 126.809 78.7767 126.897Z" fill="black"/>
<path fill-rule="evenodd" clip-rule="evenodd" d="M31.714 58.1289C31.1896 56.3133 29.5165 55.3798 27.9582 55.6705C27.1724 55.8172 26.4451 56.2737 25.9639 57.0275C25.487 57.7744 25.298 58.7364 25.4172 59.8424C25.4394 60.0631 25.4621 60.2825 25.4846 60.5003C25.6281 61.8917 25.7646 63.2142 25.7536 64.3616C25.7473 65.0193 25.6918 65.5667 25.5806 65.9979C25.4691 66.4304 25.3192 66.6782 25.1737 66.8171C24.7532 67.2189 24.738 67.8855 25.1397 68.3061C25.5415 68.7267 26.2081 68.7419 26.6287 68.3401C27.154 67.8383 27.45 67.1839 27.6202 66.5237C27.7907 65.8623 27.8526 65.1265 27.8597 64.3818C27.8719 63.1052 27.721 61.6471 27.5783 60.2687C27.5559 60.0526 27.5337 59.8384 27.5124 59.6272L27.5124 59.6272L27.5116 59.6195C27.4304 58.8704 27.5769 58.415 27.7392 58.1609C27.8976 57.9126 28.1143 57.784 28.3446 57.7411C28.8169 57.6529 29.4626 57.9202 29.6912 58.7161L29.6912 58.7161L29.6943 58.7265C29.7876 59.039 29.8927 59.3818 30.0061 59.7512C30.6911 61.9833 31.6748 65.1885 32.1347 68.5893C32.6743 72.5792 32.4513 76.5759 30.4065 79.4721C30.071 79.9472 30.1843 80.6043 30.6594 80.9398C31.1345 81.2752 31.7917 81.162 32.1271 80.6869C34.6431 77.1234 34.7823 72.4506 34.2219 68.3071C33.7366 64.7186 32.6953 61.3304 32.0124 59.1082C31.9023 58.7501 31.8016 58.4224 31.714 58.1289Z" fill="black"/>
<path fill-rule="evenodd" clip-rule="evenodd" d="M19.4961 54.6371C22.5435 58.5591 25.3626 63.7223 26.7038 67.429L25.7135 67.7874L26.7512 67.6074C26.7838 67.7957 26.7838 67.9882 26.7512 68.1765C26.6518 68.7496 26.1067 69.1336 25.5336 69.0342C25.0134 68.944 24.649 68.4866 24.6605 67.9743C23.3739 64.499 20.7071 59.6285 17.8329 55.9294C16.3683 54.0445 14.9017 52.5319 13.5903 51.6529C12.2373 50.746 11.3757 50.7108 10.828 51.0384L10.7991 51.0556L10.7693 51.0709C10.6117 51.152 10.4991 51.2845 10.4459 51.4347C10.3932 51.5833 10.3999 51.745 10.4656 51.89C10.9031 52.8266 11.5337 53.6679 12.3199 54.3611C15.2676 56.8924 17.5699 60.0622 19.0407 63.619C19.263 64.1564 19.0075 64.7723 18.47 64.9946C17.9325 65.2169 17.3166 64.9614 17.0944 64.4239C15.7506 61.1744 13.6448 58.2738 10.943 55.9549L10.9379 55.9506L10.933 55.9463C9.92751 55.0612 9.1176 53.9826 8.55501 52.7765L8.55205 52.7702L8.55207 52.7702C8.25757 52.1277 8.22443 51.398 8.46046 50.7315C8.69234 50.0767 9.16423 49.538 9.7748 49.2142C11.4064 48.2577 13.229 48.8751 14.763 49.9033C16.3474 50.9653 17.9761 52.6809 19.4961 54.6371Z" fill="black"/>
<path fill-rule="evenodd" clip-rule="evenodd" d="M5.31742 49.4218C6.25349 49.4147 7.17964 49.6188 8.02366 50.0193C8.87786 50.4247 9.62541 51.0207 10.2049 51.7616C10.5632 52.2198 10.4823 52.8816 10.0241 53.2399C9.56598 53.5983 8.90411 53.5173 8.54579 53.0592C8.17025 52.579 7.68267 52.1889 7.12061 51.9222C6.55847 51.6554 5.93864 51.5201 5.31109 51.5282L5.27576 51.5286L5.24048 51.5267C4.95684 51.5113 4.68024 51.5968 4.46178 51.7622C4.24395 51.9271 4.10022 52.1585 4.04928 52.4101L4.037 52.4708L4.01768 52.5296C3.91569 52.8403 3.9568 53.1218 4.14717 53.4616C4.3582 53.8384 4.71943 54.2207 5.17846 54.6426L5.19198 54.655L5.20506 54.6679C8.71002 58.1224 11.7499 61.9988 14.251 66.2035C14.5483 66.7034 14.3841 67.3497 13.8843 67.647C13.3844 67.9443 12.7381 67.7801 12.4408 67.2803C10.0353 63.2363 7.11154 59.5064 3.7394 56.1806C3.2622 55.7412 2.69176 55.1733 2.30955 54.4909C1.91095 53.7793 1.69768 52.9047 1.99789 51.9312C2.16257 51.193 2.58695 50.5397 3.19061 50.0828C3.80039 49.6212 4.55423 49.389 5.31742 49.4218Z" fill="black"/>
<path fill-rule="evenodd" clip-rule="evenodd" d="M4.17428 56.6571C3.95877 56.5888 3.73045 56.5642 3.50393 56.5855C3.27744 56.6067 3.05894 56.6731 2.8621 56.7796C2.66531 56.886 2.4951 57.0297 2.36097 57.2003C2.24741 57.3448 2.1616 57.5061 2.10628 57.6767C2.11094 58.1646 2.42452 58.8425 3.07306 59.6925C3.52462 60.2843 4.0151 60.8119 4.48092 61.313C4.70714 61.5564 4.92754 61.7934 5.13485 62.0286C8.29123 65.3346 10.7961 69.1813 12.5224 73.3761L12.5323 73.4002L12.541 73.4248C12.5629 73.4866 12.5857 73.551 12.6094 73.6178C13.1261 75.077 14.0537 77.6964 15.2814 80.0385C15.9241 81.2646 16.6244 82.3657 17.3566 83.1709C18.1038 83.9926 18.7717 84.3834 19.3379 84.4465C19.916 84.5109 20.3324 85.0317 20.268 85.6097C20.2036 86.1878 19.6827 86.6042 19.1047 86.5398C17.7929 86.3936 16.6869 85.5651 15.7983 84.5879C14.8949 83.5944 14.0978 82.3173 13.4159 81.0164C12.1159 78.5363 11.1445 75.7917 10.63 74.338C10.6073 74.274 10.5856 74.2125 10.5647 74.1537C8.93666 70.2062 6.57508 66.5836 3.59729 63.4683L3.58216 63.4524L3.5677 63.436C3.42407 63.2726 3.2405 63.0748 3.03446 62.8527C2.53813 62.3178 1.91142 61.6423 1.39856 60.9701C0.686031 60.0362 -0.0895886 58.7707 0.00841957 57.4332L0.0152173 57.3404L0.0381711 57.2502C0.163469 56.7582 0.39098 56.2982 0.705069 55.8987C1.0191 55.4992 1.41273 55.1688 1.86028 54.9268C2.30778 54.6849 2.80032 54.536 3.30727 54.4884C3.8142 54.4409 4.32601 54.4956 4.81117 54.6495C5.36557 54.8253 5.67242 55.4173 5.49655 55.9717C5.32068 56.5261 4.72868 56.833 4.17428 56.6571Z" fill="black"/>
<path fill-rule="evenodd" clip-rule="evenodd" d="M21.4982 71.0066C21.3294 71.3704 21.264 71.8366 21.4609 72.4701C21.6335 73.0255 21.3233 73.6157 20.7679 73.7884C20.2124 73.961 19.6222 73.6507 19.4496 73.0953C19.1099 72.0028 19.182 70.9946 19.5875 70.1203C19.9822 69.2692 20.6522 68.631 21.3698 68.1679C22.7794 67.2581 24.6063 66.8719 25.8598 66.9183C26.441 66.9398 26.8948 67.4284 26.8732 68.0096C26.8517 68.5909 26.3631 69.0446 25.7819 69.0231C24.9159 68.991 23.5235 69.2847 22.5119 69.9376C22.0188 70.2558 21.6777 70.6195 21.4982 71.0066Z" fill="black"/>
<path fill-rule="evenodd" clip-rule="evenodd" d="M108.019 81.7117L107.334 81.965C106.385 82.4258 105.568 83.1027 104.951 83.9357C104.325 84.7807 103.923 85.7608 103.78 86.7891C103.705 87.3251 103.236 87.7171 102.695 87.6957L102.688 87.6954L102.663 87.6945C102.64 87.6938 102.604 87.6926 102.557 87.6913C102.463 87.6886 102.322 87.6851 102.139 87.6822C101.773 87.6763 101.238 87.6725 100.57 87.6809C99.2334 87.6978 97.3675 87.7638 95.2553 87.9601C91.0072 88.3548 85.8885 89.2661 82.0544 91.2778C69.2711 98.7822 57.3164 107.552 46.3801 117.447L46.3695 117.457L45.5378 118.189C45.1013 118.573 44.4359 118.531 44.0515 118.095C43.6671 117.658 43.7094 116.993 44.146 116.608L44.9722 115.881C56.0204 105.885 68.0968 97.0272 81.0096 89.4488C81.0236 89.4406 81.0377 89.4327 81.0521 89.4251C85.2641 87.208 90.7314 86.2651 95.0604 85.8629C97.2407 85.6603 99.1643 85.5923 100.544 85.5748C101.073 85.5681 101.523 85.5689 101.877 85.5724C102.145 84.5338 102.614 83.5525 103.259 82.6819C104.092 81.5566 105.195 80.6515 106.468 80.044C106.497 80.0303 106.527 80.0178 106.557 80.0067L107.335 79.7191C107.365 79.7078 107.396 79.6979 107.428 79.6895C112.085 78.4426 118.584 78.2806 124.113 78.5665C126.891 78.7102 129.46 78.969 131.474 79.2719C132.48 79.4232 133.36 79.5873 134.065 79.7569C134.731 79.9172 135.355 80.1077 135.764 80.351C135.797 80.3706 135.829 80.3921 135.86 80.4152C137.587 81.7183 138.856 83.5125 139.493 85.5468C139.58 85.5603 139.675 85.575 139.777 85.591C140.394 85.6876 141.281 85.8313 142.365 86.0198C144.533 86.3966 147.492 86.9533 150.657 87.6727C153.819 88.3914 157.202 89.2763 160.212 90.3121C163.194 91.3383 165.916 92.5476 167.675 93.9545C167.744 94.0099 167.806 94.0737 167.859 94.1446L167.017 94.7768C167.859 94.1446 167.859 94.1444 167.859 94.1446L167.86 94.146L167.917 94.2217C167.954 94.2722 168.01 94.3471 168.084 94.4456C168.23 94.6425 168.445 94.9333 168.723 95.3105C169.278 96.0648 170.082 97.1642 171.076 98.547C173.064 101.312 175.817 105.212 178.876 109.752C184.987 118.822 192.346 130.485 197.263 140.769C199.106 144.616 199.782 147.928 198.97 150.824C198.152 153.744 195.898 155.977 192.503 157.837C190.387 159.014 186.081 160.349 180.775 161.645C175.419 162.953 168.913 164.253 162.306 165.329C154.525 166.639 146.593 167.754 140.26 168.368C137.096 168.675 134.312 168.859 132.138 168.877C131.053 168.886 130.099 168.854 129.317 168.77C128.569 168.691 127.859 168.554 127.339 168.286C127.002 168.113 126.694 167.888 126.428 167.619C126.428 167.619 126.428 167.619 126.428 167.619C125.734 166.918 125.145 165.885 124.685 164.749C124.218 163.597 123.854 162.264 123.648 160.9C123.246 158.247 123.404 155.172 124.947 153.161L124.953 153.153C125.606 152.32 126.512 151.718 127.535 151.429C137.812 148.536 148.623 146.101 156.848 144.249C157.308 144.145 157.76 144.044 158.204 143.944C158.244 144.239 158.285 144.54 158.327 144.845C158.406 145.421 158.938 145.824 159.514 145.745C159.547 145.74 159.58 145.734 159.612 145.727L159.624 145.782C159.625 145.782 159.627 145.782 159.628 145.782C158.882 145.95 158.11 146.124 157.314 146.303C149.083 148.157 138.326 150.579 128.106 153.456C128.106 153.456 128.106 153.456 128.106 153.456C127.509 153.625 126.987 153.974 126.614 154.448C126.615 154.447 126.616 154.445 126.618 154.444L125.782 153.803L126.611 154.452C126.612 154.451 126.613 154.449 126.614 154.448C125.611 155.759 125.354 158.096 125.73 160.585C125.913 161.795 126.236 162.967 126.637 163.958C127.046 164.966 127.506 165.715 127.925 166.138C128.034 166.247 128.16 166.34 128.301 166.412L128.304 166.414C128.456 166.492 128.835 166.601 129.54 166.676C130.212 166.748 131.078 166.779 132.121 166.771C134.206 166.754 136.92 166.576 140.057 166.272C146.326 165.664 154.208 164.556 161.959 163.251L161.965 163.25C168.529 162.182 174.981 160.892 180.275 159.599C185.616 158.294 189.652 157.014 191.481 155.995L191.488 155.991C194.636 154.268 196.339 152.408 196.942 150.256C197.552 148.079 197.115 145.336 195.363 141.678C190.515 131.537 183.225 119.976 177.129 110.929C174.085 106.411 171.345 102.529 169.366 99.7766C168.377 98.4007 167.578 97.3077 167.027 96.5591C166.751 96.1848 166.538 95.8967 166.393 95.7024C166.337 95.6266 166.291 95.5651 166.256 95.5184C164.785 94.3786 162.398 93.2916 159.527 92.3037C156.616 91.3021 153.313 90.4364 150.19 89.7266C147.07 89.0174 144.148 88.4676 142.004 88.0949C140.933 87.9087 140.058 87.7669 139.451 87.6718C139.147 87.6243 138.911 87.5884 138.751 87.5645C138.672 87.5526 138.611 87.5436 138.57 87.5377L138.525 87.5311L138.514 87.5295C138.483 87.5252 138.452 87.5195 138.421 87.5123L138.659 86.4865L137.635 86.7286C137.207 84.9166 136.155 83.2967 134.649 82.1403C134.509 82.0709 134.172 81.9491 133.572 81.8048C132.946 81.6541 132.13 81.5005 131.16 81.3547C129.224 81.0635 126.725 80.8107 124.004 80.67C118.552 80.388 112.347 80.5637 108.019 81.7117ZM159.617 145.726L159.63 145.781C159.629 145.781 159.628 145.781 159.628 145.782C163.539 144.92 166.733 144.182 168.805 143.597C169.154 143.498 169.427 143.228 169.53 142.88C169.632 142.532 169.548 142.157 169.308 141.885C165.371 137.436 163.128 134.588 160.846 131.692C159.921 130.517 158.989 129.335 157.936 128.034C157.637 127.665 157.128 127.541 156.693 127.732C156.259 127.923 156.006 128.382 156.076 128.851L156.076 128.855L156.109 129.081C156.132 129.235 156.166 129.468 156.212 129.782C156.304 130.411 156.442 131.367 156.628 132.67C156.98 135.134 157.502 138.842 158.204 143.944C158.529 143.87 158.85 143.798 159.165 143.727L159.171 143.725C159.543 143.643 159.908 143.563 160.266 143.483C160.315 143.835 160.364 144.193 160.414 144.558C160.488 145.1 160.137 145.601 159.617 145.726ZM158.716 132.392C159.064 134.832 159.578 138.481 160.266 143.483C162.777 142.925 164.924 142.429 166.607 142.002C166.966 142.414 167.34 142.84 167.73 143.281L168.519 142.583L168.233 141.57C167.754 141.705 167.21 141.849 166.607 142.002C163.301 138.213 161.233 135.587 159.164 132.96C159.015 132.771 158.865 132.582 158.716 132.392ZM158.716 132.392C158.715 132.385 158.714 132.379 158.713 132.372C158.527 131.067 158.388 130.11 158.296 129.479C158.25 129.163 158.216 128.929 158.193 128.774L158.159 128.542L158.159 128.541C158.159 128.541 158.159 128.541 157.117 128.696L156.299 129.359C157.159 130.422 157.944 131.413 158.716 132.392ZM127.339 168.286C127.339 168.286 127.338 168.285 127.338 168.285L127.821 167.35L127.341 168.287C127.341 168.287 127.34 168.286 127.339 168.286Z" fill="black"/>
<path fill-rule="evenodd" clip-rule="evenodd" d="M102.684 152.399C104.138 153.019 105.621 153.39 106.138 153.467L106.146 153.468L106.146 153.468C107.87 153.737 110.652 154.036 113.167 153.787C114.425 153.663 115.554 153.407 116.435 152.985C117.304 152.569 117.872 152.021 118.15 151.322L120.108 152.099C119.581 153.426 118.543 154.31 117.345 154.884C116.159 155.453 114.762 155.746 113.374 155.883C110.599 156.158 107.615 155.829 105.824 155.55C105.105 155.442 103.452 155.016 101.858 154.336C101.054 153.994 100.226 153.57 99.5237 153.064C98.838 152.571 98.1725 151.927 97.8433 151.11L97.8015 151.006L97.7824 150.896C97.7498 150.708 97.7498 150.516 97.7824 150.327L99.183 150.57L99.7969 150.323C99.9103 150.604 100.207 150.961 100.755 151.355C101.286 151.738 101.962 152.091 102.684 152.399ZM99.4234 150.612L99.8577 150.687C99.8663 150.637 99.8663 150.586 99.8577 150.536L99.4234 150.612Z" fill="black"/>
<path fill-rule="evenodd" clip-rule="evenodd" d="M97.3401 149.926C97.8415 149.737 98.3778 149.658 98.9125 149.691C99.493 149.728 99.934 150.228 99.8976 150.808C99.8611 151.389 99.361 151.83 98.7806 151.793C98.5415 151.778 98.3024 151.814 98.0802 151.898C97.8581 151.981 97.6592 152.11 97.4964 152.273C97.3337 152.436 97.2109 152.63 97.1347 152.84C97.0617 153.041 97.0327 153.255 97.0488 153.466C97.1604 154.165 97.4389 154.83 97.8643 155.409C98.2962 155.996 98.8674 156.477 99.5322 156.809L99.5567 156.822L99.5806 156.835C103.214 158.895 107.482 159.632 111.624 158.91C112.197 158.811 112.742 159.194 112.842 159.767C112.942 160.34 112.558 160.886 111.985 160.986C107.374 161.788 102.62 160.972 98.5649 158.68C97.616 158.201 96.7939 157.508 96.1676 156.657C95.5355 155.797 95.1214 154.802 94.9616 153.751L94.9571 153.722L94.9543 153.692C94.9039 153.16 94.9724 152.625 95.1545 152.122C95.3366 151.62 95.6274 151.164 96.0053 150.785C96.383 150.406 96.8387 150.114 97.3401 149.926Z" fill="black"/>
<path fill-rule="evenodd" clip-rule="evenodd" d="M97.7029 156.75C98.2058 156.641 98.7267 156.64 99.2297 156.749C99.7983 156.871 100.16 157.431 100.037 158C99.9147 158.569 99.3545 158.93 98.7859 158.808C98.5765 158.762 98.3593 158.763 98.15 158.808C97.9408 158.854 97.7461 158.943 97.5793 159.068C97.4125 159.193 97.278 159.351 97.1836 159.529C97.109 159.669 97.0605 159.82 97.0394 159.975C97.1858 160.551 97.4579 161.092 97.8395 161.562C98.2527 162.07 98.7834 162.479 99.391 162.756L99.4088 162.765L99.4264 162.773C103.086 164.609 107.254 165.262 111.322 164.635C111.897 164.547 112.435 164.941 112.524 165.516C112.612 166.091 112.218 166.628 111.643 166.717C107.151 167.409 102.548 166.691 98.499 164.665C97.607 164.255 96.8216 163.648 96.2055 162.891C95.585 162.128 95.1534 161.233 94.9468 160.275L94.9184 160.144L94.9241 160.009C94.9456 159.496 95.0824 158.994 95.3235 158.54C95.5646 158.087 95.9036 157.692 96.3149 157.383C96.7262 157.075 97.2001 156.859 97.7029 156.75Z" fill="black"/>
<path fill-rule="evenodd" clip-rule="evenodd" d="M97.7321 162.637C98.2322 162.566 98.7426 162.61 99.2234 162.765C99.777 162.943 100.081 163.536 99.9028 164.09C99.7245 164.644 99.1311 164.948 98.5775 164.769C98.4013 164.713 98.2131 164.696 98.0286 164.723C97.844 164.749 97.67 164.817 97.5201 164.918C97.3704 165.02 97.2495 165.153 97.1651 165.304C97.0846 165.449 97.0388 165.607 97.0298 165.768C97.0384 165.916 97.1874 166.343 97.9521 166.95C98.6908 167.536 99.8386 168.15 101.387 168.672C106.359 170.101 111.618 170.299 116.688 169.248L116.703 169.245L116.718 169.242C120.028 168.654 123.269 167.744 126.392 166.526C126.934 166.314 127.545 166.582 127.756 167.124C127.967 167.666 127.699 168.277 127.157 168.488C123.91 169.754 120.541 170.701 117.101 171.313C111.693 172.432 106.084 172.218 100.782 170.689L100.76 170.683L100.738 170.676C99.0249 170.101 97.6312 169.384 96.6429 168.6C95.7021 167.853 94.9231 166.876 94.9231 165.755V165.736L94.9237 165.718C94.9413 165.213 95.0793 164.72 95.3255 164.279C95.5715 163.837 95.9183 163.461 96.3361 163.176C96.7539 162.893 97.2319 162.709 97.7321 162.637Z" fill="black"/>
<path fill-rule="evenodd" clip-rule="evenodd" d="M118.723 148.879C118.77 148.299 119.279 147.867 119.858 147.915C121.925 148.084 123.763 149.19 125.004 150.378C125.63 150.976 126.145 151.634 126.475 152.27C126.77 152.838 127.057 153.656 126.765 154.416C126.556 154.959 125.947 155.23 125.404 155.021C124.879 154.819 124.608 154.243 124.78 153.714C124.775 153.703 124.772 153.561 124.606 153.242C124.405 152.854 124.046 152.376 123.548 151.899C122.542 150.936 121.134 150.133 119.686 150.014C119.107 149.967 118.675 149.458 118.723 148.879Z" fill="black"/>
<path fill-rule="evenodd" clip-rule="evenodd" d="M97.1109 136.622C97.6883 136.552 98.2129 136.964 98.2826 137.541L98.3368 137.99L99.7822 150.384L99.8043 150.514C99.9024 151.087 99.5171 151.631 98.9438 151.729C98.3705 151.827 97.8263 151.442 97.7282 150.869L97.7014 150.712C97.6982 150.693 97.6956 150.675 97.6934 150.656L96.2452 138.238L96.1915 137.793C96.1218 137.216 96.5335 136.691 97.1109 136.622Z" fill="black"/>
<path fill-rule="evenodd" clip-rule="evenodd" d="M121.798 137.979C121.966 137.437 121.673 136.856 121.133 136.671C120.582 136.483 119.984 136.776 119.795 137.326L119.768 137.405C119.745 137.475 119.728 137.547 119.719 137.62L118.378 148.814L118.055 151.617C117.989 152.195 118.403 152.717 118.981 152.783C119.559 152.85 120.081 152.435 120.148 151.857L120.469 149.064L121.798 137.979Z" fill="black"/>
<path fill-rule="evenodd" clip-rule="evenodd" d="M98.4312 137.675C98.5755 137.753 98.7759 137.846 99.048 137.946C99.649 138.167 100.462 138.376 101.458 138.552C103.447 138.905 106.062 139.111 108.947 139.073L108.961 139.072C112.129 139.072 114.965 138.801 117.002 138.376C118.027 138.161 118.8 137.917 119.302 137.676C119.343 137.656 119.381 137.637 119.417 137.618C119.392 137.605 119.366 137.59 119.338 137.576C118.85 137.324 118.078 137.066 117.039 136.839C114.98 136.389 112.101 136.105 108.934 136.105C105.772 136.105 102.901 136.408 100.847 136.868C99.8125 137.099 99.0392 137.359 98.55 137.611C98.5066 137.633 98.4671 137.654 98.4312 137.675ZM119.779 137.37C119.779 137.37 119.779 137.371 119.777 137.373C119.778 137.371 119.779 137.37 119.779 137.37ZM100.387 134.812C102.626 134.311 105.657 133.999 108.934 133.999C112.206 133.999 115.243 134.29 117.489 134.782C118.604 135.025 119.581 135.33 120.306 135.706C120.667 135.893 121.018 136.124 121.291 136.416C121.569 136.715 121.818 137.137 121.818 137.667C121.818 137.709 121.816 137.75 121.811 137.791C121.752 138.293 121.473 138.671 121.197 138.93C120.92 139.191 120.575 139.401 120.215 139.574C119.494 139.921 118.533 140.207 117.433 140.437C115.219 140.9 112.235 141.178 108.968 141.179C105.98 141.218 103.232 141.006 101.091 140.626C100.021 140.437 99.0773 140.201 98.3201 139.922C97.6107 139.661 96.8932 139.302 96.4675 138.769L96.4637 138.764L96.4637 138.764C96.2233 138.459 96.0862 138.084 96.0769 137.692C96.0767 137.684 96.0766 137.676 96.0766 137.667C96.0766 137.131 96.3395 136.713 96.6124 136.428C96.8833 136.146 97.2303 135.921 97.5874 135.737C98.3055 135.368 99.276 135.061 100.387 134.812Z" fill="black"/>
<path fill-rule="evenodd" clip-rule="evenodd" d="M100.873 169.259C101.451 169.193 101.973 169.608 102.039 170.186L102.763 176.51C104.696 177.003 106.686 177.262 108.687 177.281C110.903 177.235 113.108 176.969 115.268 176.485L115.936 170.579C116.001 170.001 116.523 169.586 117.101 169.651C117.678 169.716 118.094 170.238 118.029 170.816L117.277 177.459C117.228 177.896 116.911 178.257 116.484 178.363C113.942 178.991 111.335 179.334 108.713 179.387C108.703 179.387 108.693 179.387 108.683 179.387C106.254 179.365 103.84 179.017 101.509 178.353C101.099 178.236 100.8 177.884 100.751 177.46L99.9464 170.425C99.8803 169.847 100.295 169.325 100.873 169.259Z" fill="black"/>
<path fill-rule="evenodd" clip-rule="evenodd" d="M31.434 79.6176C31.7022 79.7393 31.9071 79.9678 31.9992 80.2476C33.7824 85.67 41.6001 105.637 46.4933 116.09C46.7399 116.616 46.5128 117.243 45.986 117.49C45.4593 117.736 44.8323 117.509 44.5857 116.983C39.9415 107.062 32.698 88.6756 30.3666 81.9884L20.6334 86.1146C22.0828 95.0721 24.1151 105.613 26.2201 116.532C27.7664 124.552 29.352 132.776 30.7745 140.724C30.8769 141.297 30.4959 141.844 29.9233 141.947C29.3508 142.049 28.8036 141.668 28.7012 141.096C27.2909 133.215 25.7099 125.013 24.1644 116.996C21.9879 105.704 19.8818 94.779 18.4227 85.633C18.3464 85.1549 18.6059 84.6864 19.0516 84.4975L30.5877 79.607C30.8589 79.492 31.1658 79.4959 31.434 79.6176Z" fill="black"/>
<path fill-rule="evenodd" clip-rule="evenodd" d="M115.138 112.299C115.541 112.718 115.53 113.385 115.111 113.788C113.808 115.046 112.851 116.247 112.386 117.505C111.947 118.694 111.919 120.015 112.627 121.63C113.522 123.024 114.306 124.485 114.969 125.998L115.04 126.161L115.054 126.339C115.14 127.446 114.985 128.558 114.6 129.602C114.214 130.645 113.608 131.596 112.822 132.391C112.413 132.805 111.746 132.809 111.332 132.4C110.919 131.991 110.915 131.325 111.323 130.911C111.901 130.327 112.343 129.632 112.624 128.872C112.884 128.167 113 127.421 112.965 126.674C112.352 125.3 111.633 123.972 110.813 122.703L110.769 122.636L110.736 122.563C109.785 120.444 109.763 118.53 110.411 116.775C111.04 115.071 112.269 113.604 113.648 112.273C114.067 111.869 114.734 111.881 115.138 112.299Z" fill="white"/>
<path fill-rule="evenodd" clip-rule="evenodd" d="M108.351 112.299C108.754 112.718 108.743 113.385 108.324 113.788C107.019 115.048 106.056 116.249 105.589 117.506C105.147 118.696 105.119 120.016 105.839 121.631C106.724 123.028 107.506 124.485 108.179 125.991L108.253 126.157L108.267 126.339C108.353 127.446 108.198 128.558 107.813 129.602C107.427 130.645 106.821 131.596 106.035 132.391C105.626 132.805 104.959 132.809 104.545 132.4C104.132 131.991 104.128 131.325 104.536 130.911C105.114 130.327 105.556 129.632 105.837 128.872C106.097 128.168 106.212 127.423 106.178 126.678C105.554 125.304 104.834 123.974 104.021 122.697L103.982 122.635L103.952 122.569C102.984 120.447 102.962 118.53 103.614 116.773C104.247 115.069 105.484 113.603 106.861 112.273C107.28 111.869 107.947 111.881 108.351 112.299Z" fill="white"/>
<path d="M158.895 132.654L156.22 129.255L156.907 128.678L158.1 128.281L158.895 132.654Z" fill="black"/>
<path d="M168.474 141.059L168.967 142.598L168.872 143.047L168.076 143.444L166.918 143.444L166.688 142.598L166.486 141.456L168.474 141.059Z" fill="black"/>
<path d="M159.278 144.592C159.303 144.612 159.34 144.614 159.371 144.614C159.392 144.614 159.397 144.594 159.411 144.58C159.429 144.561 159.436 144.543 159.437 144.517C159.438 144.49 159.435 144.471 159.454 144.447C159.477 144.417 159.507 144.393 159.533 144.364C159.54 144.355 159.55 144.345 159.555 144.336C159.563 144.323 159.579 144.323 159.588 144.311C159.599 144.297 159.61 144.278 159.627 144.273C159.636 144.271 159.658 144.253 159.666 144.245C159.684 144.225 159.704 144.205 159.723 144.185C159.743 144.164 159.75 144.134 159.767 144.113C159.788 144.087 159.725 144.123 159.715 144.13C159.657 144.166 159.595 144.191 159.532 144.218C159.5 144.231 159.466 144.237 159.434 144.251C159.338 144.294 159.241 144.345 159.149 144.396C159.125 144.409 159.093 144.437 159.066 144.443C159.049 144.447 159.029 144.439 159.012 144.444C158.968 144.458 158.917 144.465 158.905 144.41C158.898 144.383 158.9 144.386 158.882 144.366C158.873 144.358 158.893 144.36 158.898 144.361C158.919 144.364 158.936 144.422 158.942 144.438C158.962 144.495 158.978 144.548 158.981 144.608C158.982 144.632 158.984 144.665 159.01 144.674C159.023 144.679 159.026 144.691 159.027 144.703C159.033 144.744 159.011 144.834 159.055 144.859C159.06 144.862 159.07 144.868 159.077 144.867C159.085 144.864 159.091 144.881 159.099 144.889C159.114 144.903 159.136 144.91 159.154 144.919C159.16 144.922 159.175 144.923 159.171 144.927C159.166 144.932 159.147 144.933 159.152 144.944C159.163 144.967 159.205 144.978 159.226 144.987C159.3 145.018 159.396 145.051 159.476 145.015C159.526 144.993 159.595 144.98 159.636 144.943C159.668 144.914 159.72 144.888 159.761 144.873C159.795 144.86 159.828 144.834 159.853 144.809C159.88 144.782 159.897 144.78 159.91 144.74" stroke="black" stroke-width="2" stroke-linecap="round"/>
<path d="M178.6 257.842C178.303 257.613 177.66 257.309 177.66 257.853C177.66 258.235 178.412 259.98 178.412 259.096C178.412 258.386 178.254 257.715 177.989 257.059C177.819 256.636 177.47 256.267 177.373 255.831C177.301 255.507 177.324 256.505 177.399 256.829C177.564 257.536 177.842 258.295 178.318 258.855C178.785 259.405 178.769 258.748 178.783 258.312C178.796 257.917 178.838 257.004 178.454 256.724C177.746 256.209 178.462 258.61 178.6 258.887C179.214 260.113 179.792 258.063 179.948 257.508C180.096 256.98 180.376 255.868 179.598 255.696C178.777 255.513 177.825 256.384 177.274 256.839C176.645 257.359 176.077 257.93 175.654 258.636C175.31 259.211 174.662 260.359 174.955 261.081C175.181 261.639 176.042 260.642 176.125 260.558C177.075 259.595 177.92 258.475 178.475 257.236C178.903 256.281 178.406 256.95 178.224 257.529C178.164 257.719 177.672 260.303 177.566 260.297C177.403 260.288 176.705 257.599 176.595 257.33C176.544 257.206 175.952 255.854 175.968 256.557C175.989 257.509 176.287 258.466 176.605 259.357C176.812 259.937 176.489 258.477 176.475 258.37C176.339 257.345 176.121 256.398 175.508 255.555C175.411 255.421 175.404 256.738 175.404 256.829C175.404 257.397 175.561 259.09 175.456 258.532C175.309 257.747 175.004 256.875 174.699 256.139C174.608 255.922 174.328 255.32 174.302 255.555C174.26 255.928 174.502 256.458 174.61 256.803C174.715 257.14 175.415 258.342 175.205 258.709C175.107 258.881 174.954 258.397 174.881 258.213C174.663 257.663 174.53 257.083 174.333 256.526C174.327 256.509 173.941 255.614 173.92 255.649C173.798 255.853 173.9 256.428 173.9 256.641C173.9 257.09 173.9 257.539 173.9 257.988C173.9 258.801 173.824 257.637 173.8 257.456C173.68 256.525 173.817 255.244 173.388 254.385C173.219 254.048 173.431 255.137 173.409 255.513C173.376 256.055 173.258 256.584 173.189 257.121C173.18 257.19 173.201 257.881 173.127 257.926C173.102 257.941 172.703 256.341 172.688 256.171C172.656 255.824 172.715 255.466 172.672 255.121C172.636 254.83 172.218 254.532 172.207 255.001C172.197 255.414 172.172 255.736 172.442 256.061C172.647 256.307 172.489 257.168 172.489 257.487C172.489 257.589 172.487 259.011 172.301 258.908C171.535 258.482 171.87 256.884 171.831 256.15C171.81 255.747 171.737 255.347 171.737 254.928C171.737 254.626 171.643 254.39 171.643 254.787C171.643 255.224 171.402 257.957 171.737 258.124" stroke="white" stroke-width="2" stroke-linecap="round"/>
<defs>
<linearGradient id="paint0_linear_257_309" x1="108.926" y1="79.4987" x2="108.926" y2="227.055" gradientUnits="userSpaceOnUse">
<stop stop-color="#DD1818"/>
<stop offset="1" stop-color="#FF0F00"/>
</linearGradient>
</defs>
</svg>
