<svg width="26" height="24" viewBox="0 0 26 24" fill="none" xmlns="http://www.w3.org/2000/svg">
<path d="M21.0713 13C20.835 13 20.588 12.93 20.3518 12.88C19.8734 12.7818 19.4033 12.6515 18.9451 12.49C18.4469 12.3212 17.8993 12.33 17.4077 12.5146C16.9161 12.6992 16.5151 13.0466 16.282 13.49L16.0458 13.94C14.9999 13.3982 14.0388 12.7252 13.1894 11.94C12.3462 11.149 11.6235 10.254 11.0417 9.28L11.4927 9C11.9688 8.78292 12.3419 8.40953 12.5401 7.95169C12.7384 7.49385 12.7478 6.98391 12.5666 6.52C12.3961 6.09242 12.2562 5.6548 12.1478 5.21C12.0941 4.99 12.0511 4.76 12.0189 4.53C11.8885 3.82562 11.4923 3.18774 10.9017 2.73124C10.3111 2.27474 9.56489 2.02961 8.79743 2.04H5.57595C5.11316 2.03595 4.65487 2.12481 4.23228 2.30053C3.80968 2.47625 3.43271 2.7347 3.12701 3.05828C2.82131 3.38187 2.59407 3.76299 2.46076 4.17571C2.32745 4.58843 2.29119 5.02306 2.35447 5.45C2.92653 9.63938 4.98108 13.5319 8.19356 16.5126C11.406 19.4934 15.5934 21.3925 20.0941 21.91H20.5021C21.294 21.9111 22.0585 21.6405 22.6498 21.15C22.9895 20.867 23.2609 20.5202 23.446 20.1323C23.6311 19.7445 23.7257 19.3244 23.7236 18.9V15.9C23.7105 15.2054 23.4388 14.5366 22.9551 14.0077C22.4714 13.4788 21.8056 13.1226 21.0713 13ZM21.6082 19C21.608 19.142 21.5753 19.2823 21.5124 19.4116C21.4494 19.5409 21.3576 19.6563 21.2431 19.75C21.1235 19.847 20.9832 19.9194 20.8315 19.9625C20.6797 20.0056 20.5199 20.0184 20.3625 20C16.341 19.5198 12.6055 17.8065 9.74531 15.1303C6.88515 12.4541 5.0631 8.96734 4.56655 5.22C4.54946 5.07352 4.56444 4.92533 4.61058 4.78439C4.65672 4.64345 4.73307 4.51269 4.83501 4.4C4.93563 4.29333 5.0595 4.20784 5.19837 4.14922C5.33723 4.09059 5.48791 4.06018 5.64038 4.06H8.86186C9.11157 4.05483 9.35541 4.13088 9.55141 4.27507C9.7474 4.41926 9.88329 4.62257 9.93568 4.85C9.97864 5.12333 10.0323 5.39333 10.0968 5.66C10.2208 6.18714 10.3859 6.70518 10.5907 7.21L9.08736 7.86C8.95882 7.91492 8.84319 7.99295 8.74713 8.0896C8.65106 8.18624 8.57643 8.29961 8.52754 8.42319C8.47865 8.54677 8.45646 8.67813 8.46223 8.80972C8.468 8.94131 8.50163 9.07054 8.56118 9.19C10.1066 12.2728 12.7676 14.7508 16.078 16.19C16.3394 16.29 16.6326 16.29 16.8941 16.19C17.028 16.1454 17.1511 16.0765 17.2561 15.9872C17.3612 15.8979 17.4462 15.7901 17.5062 15.67L18.1719 14.27C18.7271 14.4549 19.2936 14.6085 19.8686 14.73C20.1549 14.79 20.4449 14.84 20.7384 14.88C20.9826 14.9288 21.2009 15.0553 21.3558 15.2379C21.5106 15.4204 21.5923 15.6475 21.5867 15.88L21.6082 19Z" fill="white"/>
</svg>
