<svg width="48" height="48" viewBox="0 0 48 48" fill="none" xmlns="http://www.w3.org/2000/svg">
<path d="M25.42 32.58L25.12 32.34C25.0086 32.2644 24.8874 32.2038 24.76 32.16L24.4 32C24.0756 31.9322 23.7396 31.946 23.4218 32.0402C23.1042 32.1346 22.8148 32.3062 22.58 32.54C22.4034 32.7344 22.2612 32.9576 22.16 33.2C22.0086 33.5644 21.9684 33.9654 22.0446 34.3526C22.1206 34.7398 22.3094 35.0958 22.5874 35.376C22.8654 35.656 23.22 35.8476 23.6066 35.9266C23.9932 36.0056 24.3944 35.9686 24.76 35.82C24.999 35.704 25.221 35.556 25.42 35.38C25.6976 35.0988 25.8856 34.7416 25.9602 34.3536C26.035 33.9656 25.9932 33.5642 25.84 33.2C25.7402 32.9688 25.5978 32.7584 25.42 32.58ZM32 4H16C14.4087 4 12.8826 4.63214 11.7574 5.75736C10.6321 6.88258 10 8.4087 10 10V38C10 39.5912 10.6321 41.1174 11.7574 42.2426C12.8826 43.3678 14.4087 44 16 44H32C33.5912 44 35.1174 43.3678 36.2426 42.2426C37.3678 41.1174 38 39.5912 38 38V10C38 8.4087 37.3678 6.88258 36.2426 5.75736C35.1174 4.63214 33.5912 4 32 4ZM34 38C34 38.5304 33.7892 39.0392 33.4142 39.4142C33.0392 39.7892 32.5304 40 32 40H16C15.4696 40 14.9609 39.7892 14.5858 39.4142C14.2107 39.0392 14 38.5304 14 38V10C14 9.46956 14.2107 8.96086 14.5858 8.58578C14.9609 8.21072 15.4696 8 16 8H32C32.5304 8 33.0392 8.21072 33.4142 8.58578C33.7892 8.96086 34 9.46956 34 10V38Z" fill="url(#paint0_linear_145_25)"/>
<defs>
<linearGradient id="paint0_linear_145_25" x1="24" y1="4" x2="24" y2="44" gradientUnits="userSpaceOnUse">
<stop stop-color="#542FA9"/>
<stop offset="0.0001" stop-color="#542FA9"/>
<stop offset="0.502062" stop-color="#7333B7"/>
<stop offset="0.911458" stop-color="#8D36C3"/>
</linearGradient>
</defs>
</svg>
