<svg width="48" height="48" viewBox="0 0 48 48" fill="none" xmlns="http://www.w3.org/2000/svg">
<path d="M38 8H10C8.4087 8 6.88258 8.63214 5.75736 9.75736C4.63214 10.8826 4 12.4087 4 14V34C4 35.5912 4.63214 37.1174 5.75736 38.2426C6.88258 39.3678 8.4087 40 10 40H38C39.5912 40 41.1174 39.3678 42.2426 38.2426C43.3678 37.1174 44 35.5912 44 34V14C44 12.4087 43.3678 10.8826 42.2426 9.75736C41.1174 8.63214 39.5912 8 38 8ZM10 12H38C38.5304 12 39.0392 12.2107 39.4142 12.5858C39.7892 12.9609 40 13.4696 40 14L24 23.76L8 14C8 13.4696 8.21072 12.9609 8.58578 12.5858C8.96086 12.2107 9.46956 12 10 12ZM40 34C40 34.5304 39.7892 35.0392 39.4142 35.4142C39.0392 35.7892 38.5304 36 38 36H10C9.46956 36 8.96086 35.7892 8.58578 35.4142C8.21072 35.0392 8 34.5304 8 34V18.56L22.96 27.7C23.264 27.8756 23.609 27.968 23.96 27.968C24.311 27.968 24.656 27.8756 24.96 27.7L40 18.56V34Z" fill="url(#paint0_linear_145_29)"/>
<defs>
<linearGradient id="paint0_linear_145_29" x1="24" y1="8" x2="24" y2="40" gradientUnits="userSpaceOnUse">
<stop stop-color="#542FA9"/>
<stop offset="0.0001" stop-color="#542FA9"/>
<stop offset="0.502062" stop-color="#7333B7"/>
<stop offset="0.911458" stop-color="#8D36C3"/>
</linearGradient>
</defs>
</svg>
