<svg width="27" height="24" viewBox="0 0 27 24" fill="none" xmlns="http://www.w3.org/2000/svg">
<path d="M20.7472 4H5.71367C4.85928 4 4.03988 4.31607 3.43574 4.87868C2.83159 5.44129 2.49219 6.20435 2.49219 7V17C2.49219 17.7956 2.83159 18.5587 3.43574 19.1213C4.03988 19.6839 4.85928 20 5.71367 20H20.7472C21.6016 20 22.421 19.6839 23.0252 19.1213C23.6293 18.5587 23.9687 17.7956 23.9687 17V7C23.9687 6.20435 23.6293 5.44129 23.0252 4.87868C22.421 4.31607 21.6016 4 20.7472 4ZM20.307 6L13.9929 11.88C13.893 11.9737 13.7743 12.0481 13.6434 12.0989C13.5126 12.1497 13.3722 12.1758 13.2305 12.1758C13.0887 12.1758 12.9483 12.1497 12.8175 12.0989C12.6866 12.0481 12.5679 11.9737 12.468 11.88L6.15394 6H20.307ZM21.8211 17C21.8211 17.2652 21.7079 17.5196 21.5066 17.7071C21.3052 17.8946 21.032 18 20.7472 18H5.71367C5.42887 18 5.15574 17.8946 4.95436 17.7071C4.75298 17.5196 4.63984 17.2652 4.63984 17V7.41L10.9539 13.29C11.558 13.8518 12.3768 14.1674 13.2305 14.1674C14.0842 14.1674 14.9029 13.8518 15.507 13.29L21.8211 7.41V17Z" fill="white"/>
</svg>
