<svg width="21" height="24" viewBox="0 0 21 24" fill="none" xmlns="http://www.w3.org/2000/svg">
<path d="M9.07031 20.5029C9.07028 20.3563 9.03801 20.2114 8.97576 20.0786C8.91352 19.9458 8.82283 19.8284 8.71012 19.7345C8.59741 19.6407 8.46545 19.5728 8.32357 19.5356C8.1817 19.4985 8.03339 19.493 7.88916 19.5195C6.58008 19.7598 4.92725 19.7959 4.48779 18.5615C4.10459 17.6055 3.46986 16.7711 2.65088 16.1465C2.59244 16.1148 2.53675 16.0782 2.48438 16.0372C2.4127 15.8481 2.28539 15.6852 2.11924 15.5699C1.95309 15.4547 1.75591 15.3925 1.55371 15.3916H1.54883C1.28443 15.3916 1.03075 15.4962 0.843338 15.6827C0.655922 15.8692 0.550025 16.1224 0.548827 16.3868C0.544917 17.2022 1.35983 17.7247 1.69043 17.9014C2.08027 18.2931 2.39358 18.7541 2.61426 19.2608C2.97852 20.2842 4.03711 21.837 7.08008 21.6368C7.08108 21.6719 7.08203 21.7051 7.08252 21.7354L7.08691 22.003C7.08691 22.2682 7.19226 22.5226 7.3798 22.7101C7.56734 22.8976 7.82169 23.003 8.08691 23.003C8.35212 23.003 8.60648 22.8976 8.79401 22.7101C8.98155 22.5226 9.08691 22.2682 9.08691 22.003L9.08203 21.6846C9.07715 21.4951 9.07031 21.2207 9.07031 20.5029ZM19.7373 5.37694C19.769 5.25194 19.8003 5.11327 19.8276 4.95702C19.9894 3.84261 19.8484 2.70521 19.4194 1.66402C19.3653 1.52828 19.2822 1.40603 19.1758 1.30582C19.0694 1.20562 18.9424 1.12989 18.8037 1.08395C18.4477 0.963828 17.1333 0.727498 14.6196 2.33395C12.5302 1.84224 10.3551 1.84224 8.26564 2.33395C5.76221 0.751028 4.45459 0.965828 4.10205 1.07911C3.95991 1.12319 3.82944 1.19851 3.7202 1.29957C3.61095 1.40062 3.5257 1.52483 3.4707 1.66311C3.033 2.72429 2.89354 3.88488 3.06738 5.01955C3.0918 5.14748 3.11816 5.26565 3.14551 5.37404C2.31708 6.47748 1.87582 7.8234 1.89014 9.20314C1.88744 9.51097 1.90162 9.81873 1.93262 10.125C2.26662 14.7275 5.26662 16.1094 7.35693 16.584C7.31348 16.709 7.27393 16.8428 7.23877 16.9844C7.17611 17.2417 7.21804 17.5133 7.35537 17.7398C7.49269 17.9662 7.71421 18.1289 7.97134 18.1923C8.22847 18.2556 8.50022 18.2144 8.72701 18.0777C8.9538 17.941 9.11712 17.7199 9.18115 17.4629C9.24478 17.1297 9.40787 16.8236 9.64893 16.585C9.79468 16.4574 9.90021 16.2902 9.95268 16.1037C10.0051 15.9172 10.0023 15.7195 9.94445 15.5346C9.88662 15.3497 9.7763 15.1856 9.62691 15.0623C9.47753 14.9389 9.29552 14.8617 9.10303 14.8399C5.64893 14.4453 4.14941 13.0381 3.92383 9.94143C3.89884 9.69616 3.88759 9.44968 3.89014 9.20315C3.87409 8.2198 4.19897 7.26123 4.80957 6.49026C4.87092 6.40988 4.93627 6.33263 5.00537 6.25881C5.1278 6.12181 5.21011 5.95373 5.24328 5.77301C5.27644 5.5923 5.25917 5.40594 5.19337 5.2344C5.1259 5.05393 5.07396 4.86803 5.0381 4.67873C4.95663 4.14044 4.98335 3.59132 5.1167 3.06349C5.98583 3.30896 6.80381 3.70853 7.5317 4.24317C7.65207 4.32334 7.78827 4.3767 7.93107 4.39961C8.07387 4.42253 8.21992 4.41447 8.35934 4.37599C10.3804 3.82749 12.5113 3.82783 14.5322 4.37699C14.6724 4.41543 14.8192 4.42303 14.9626 4.39926C15.106 4.37549 15.2425 4.32091 15.3627 4.2393C16.0872 3.70244 16.9018 3.2993 17.768 3.04887C17.9008 3.56402 17.9305 4.10032 17.8554 4.62699C17.8192 4.83453 17.7626 5.03799 17.6865 5.23442C17.6207 5.40596 17.6034 5.59232 17.6366 5.77303C17.6697 5.95375 17.752 6.12183 17.8745 6.25883C17.9516 6.34574 18.0288 6.43949 18.0981 6.52738C18.7044 7.2853 19.0238 8.23285 19 9.20314C19.0018 9.46275 18.9893 9.72226 18.9624 9.98048C18.7422 13.0361 17.2368 14.4443 13.7666 14.8398C13.5741 14.8618 13.392 14.9392 13.2427 15.0626C13.0933 15.1861 12.983 15.3503 12.9252 15.5353C12.8675 15.7202 12.8647 15.918 12.9172 16.1046C12.9698 16.2911 13.0754 16.4583 13.2212 16.5859C13.4698 16.831 13.6333 17.1493 13.6875 17.4941C13.7551 17.7618 13.7861 18.0375 13.7798 18.3135V20.6475C13.77 21.2949 13.77 21.7803 13.77 22.0029C13.77 22.2682 13.8754 22.5225 14.0629 22.71C14.2504 22.8976 14.5048 23.0029 14.77 23.0029C15.0352 23.0029 15.2896 22.8976 15.4771 22.71C15.6646 22.5225 15.77 22.2682 15.77 22.0029C15.77 21.7861 15.77 21.3106 15.7798 20.6631V18.3135C15.7878 17.8713 15.7357 17.4301 15.625 17.002C15.5933 16.8614 15.5545 16.7226 15.5088 16.586C17.03 16.3332 18.4122 15.5489 19.4094 14.3726C20.4065 13.1962 20.9539 11.7042 20.9541 10.1621C20.987 9.84355 21.0024 9.5234 21 9.20314C21.0222 7.82191 20.5773 6.47366 19.7373 5.37696L19.7373 5.37694Z" fill="#EC0B09"/>
</svg>
