<svg width="26" height="24" viewBox="0 0 26 24" fill="none" xmlns="http://www.w3.org/2000/svg">
<path d="M13.082 7C12.0201 7 10.982 7.29324 10.0991 7.84265C9.21614 8.39206 8.52796 9.17295 8.12158 10.0866C7.71521 11.0002 7.60888 12.0055 7.81605 12.9755C8.02322 13.9454 8.53458 14.8363 9.28547 15.5355C10.0364 16.2348 10.993 16.711 12.0346 16.9039C13.0761 17.0969 14.1556 16.9978 15.1367 16.6194C16.1178 16.241 16.9563 15.6001 17.5463 14.7779C18.1363 13.9556 18.4512 12.9889 18.4512 12C18.4512 10.6739 17.8855 9.40215 16.8786 8.46447C15.8717 7.52678 14.506 7 13.082 7ZM13.082 15C12.4449 15 11.822 14.8241 11.2923 14.4944C10.7625 14.1648 10.3496 13.6962 10.1058 13.1481C9.86193 12.5999 9.79814 11.9967 9.92244 11.4147C10.0467 10.8328 10.3536 10.2982 10.8041 9.87868C11.2546 9.45912 11.8286 9.1734 12.4535 9.05764C13.0784 8.94189 13.7262 9.0013 14.3148 9.22836C14.9035 9.45542 15.4066 9.83994 15.7606 10.3333C16.1146 10.8266 16.3035 11.4067 16.3035 12C16.3035 12.7956 15.9641 13.5587 15.3599 14.1213C14.7558 14.6839 13.9364 15 13.082 15ZM18.4512 6C18.2388 6 18.0312 6.05865 17.8546 6.16853C17.678 6.27841 17.5403 6.43459 17.4591 6.61732C17.3778 6.80004 17.3565 7.00111 17.398 7.19509C17.4394 7.38907 17.5417 7.56725 17.6918 7.70711C17.842 7.84696 18.0334 7.9422 18.2417 7.98079C18.45 8.01937 18.6659 7.99957 18.8621 7.92388C19.0583 7.84819 19.226 7.72002 19.344 7.55557C19.462 7.39112 19.525 7.19778 19.525 7C19.525 6.73478 19.4118 6.48043 19.2105 6.29289C19.0091 6.10536 18.7359 6 18.4512 6ZM23.7559 8.24C23.7381 7.38542 23.5637 6.53995 23.2404 5.74C22.9406 5.01207 22.4797 4.35099 21.8877 3.7997C21.2957 3.2484 20.5858 2.81922 19.8042 2.54C18.9452 2.2389 18.0373 2.07657 17.1196 2.06C16.078 2 15.7344 2 13.082 2C10.4297 2 10.086 2 9.04443 2.06C8.12676 2.07657 7.21887 2.2389 6.35986 2.54C5.57819 2.81922 4.86831 3.2484 4.27631 3.7997C3.68432 4.35099 3.22345 5.01207 2.92362 5.74C2.60029 6.53995 2.42597 7.38542 2.40818 8.24C2.34375 9.22 2.34375 9.54 2.34375 12C2.34375 14.46 2.34375 14.78 2.40818 15.76C2.42597 16.6146 2.60029 17.4601 2.92362 18.26C3.22345 18.9879 3.68432 19.649 4.27631 20.2003C4.86831 20.7516 5.57819 21.1808 6.35986 21.46C7.21887 21.7611 8.12676 21.9234 9.04443 21.94C10.1183 21.94 10.4297 22 13.082 22C15.7344 22 16.078 22 17.1196 21.94C18.0373 21.9234 18.9452 21.7611 19.8042 21.46C20.5858 21.1808 21.2957 20.7516 21.8877 20.2003C22.4797 19.649 22.9406 18.9879 23.2404 18.26C23.5637 17.4601 23.7381 16.6146 23.7559 15.76C23.7559 14.76 23.8203 14.46 23.8203 12C23.8203 9.54 23.8203 9.22 23.7559 8.24ZM21.6082 15.67C21.5894 16.3046 21.4625 16.9324 21.2324 17.53C21.0421 18.0023 20.7413 18.4293 20.3518 18.78C19.9775 19.1428 19.5181 19.4201 19.0095 19.59C18.3663 19.8131 17.6877 19.9348 17.0015 19.95C15.9921 19.95 15.6807 20 13.0713 20C10.4619 20 10.1612 20 9.15181 20C8.46673 19.9835 7.78886 19.8654 7.14376 19.65C6.63654 19.4728 6.17803 19.1927 5.80147 18.83C5.41184 18.4814 5.11414 18.0536 4.93167 17.58C4.69307 16.9842 4.56244 16.3557 4.5451 15.72C4.5451 14.72 4.5451 14.47 4.5451 12.05C4.5451 9.63 4.5451 9.34 4.5451 8.38C4.5636 7.74121 4.69419 7.10954 4.93167 6.51C5.11697 6.04063 5.41439 5.61662 5.80147 5.27C6.17578 4.90715 6.6352 4.62992 7.14376 4.46C7.78697 4.2369 8.46563 4.11523 9.15181 4.1C10.1612 4 10.4726 4 13.082 4C15.6914 4 16.0028 4 17.0122 4C17.7018 4.01633 18.3838 4.13794 19.031 4.36C19.535 4.53256 19.9904 4.80953 20.3626 5.17C20.7522 5.51858 21.0499 5.94641 21.2324 6.42C21.4952 7.02856 21.6441 7.67458 21.6726 8.33C21.6726 9.33 21.7263 9.58 21.7263 12C21.7263 14.42 21.6726 14.71 21.6726 15.67H21.6082Z" fill="white"/>
</svg>
