<svg width="48" height="48" viewBox="0 0 48 48" fill="none" xmlns="http://www.w3.org/2000/svg">
<path d="M35.0005 17.9978C33.2099 17.9971 31.4471 18.4399 29.8695 19.2869C29.7257 18.9077 29.4697 18.5814 29.1359 18.3511C28.8021 18.1209 28.4059 17.9976 28.0005 17.9978H20.0004C19.7377 17.9977 19.4776 18.0493 19.2349 18.1498C18.9922 18.2502 18.7716 18.3975 18.5859 18.5833C18.4001 18.769 18.2528 18.9896 18.1524 19.2323C18.0519 19.475 18.0003 19.7351 18.0004 19.9978V43.9978C18.0003 44.2606 18.0519 44.5206 18.1524 44.7634C18.2528 45.006 18.4001 45.2266 18.5859 45.4124C18.7716 45.5982 18.9922 45.7454 19.2349 45.8458C19.4776 45.9464 19.7377 45.998 20.0004 45.9978H28.0005C28.2631 45.998 28.5233 45.9464 28.7659 45.8458C29.0087 45.7454 29.2293 45.5982 29.4149 45.4124C29.6007 45.2266 29.7481 45.006 29.8485 44.7634C29.9489 44.5206 30.0005 44.2606 30.0005 43.9978V32.9978C30.0005 32.4674 30.2111 31.9586 30.5863 31.5836C30.9613 31.2086 31.4701 30.9978 32.0005 30.9978C32.5309 30.9978 33.0395 31.2086 33.4147 31.5836C33.7897 31.9586 34.0005 32.4674 34.0005 32.9978V43.9978C34.0003 44.2606 34.0519 44.5206 34.1523 44.7634C34.2529 45.006 34.4001 45.2266 34.5859 45.4124C34.7717 45.5982 34.9921 45.7454 35.2349 45.8458C35.4777 45.9464 35.7377 45.998 36.0005 45.9978H44.0005C44.2631 45.998 44.5233 45.9464 44.7659 45.8458C45.0087 45.7454 45.2293 45.5982 45.4149 45.4124C45.6007 45.2266 45.7481 45.006 45.8485 44.7634C45.9489 44.5206 46.0005 44.2606 46.0005 43.9978V28.9978C45.9969 26.0816 44.8367 23.2858 42.7747 21.2236C40.7125 19.1615 37.9167 18.0014 35.0005 17.9978ZM42.0005 41.9978H38.0005V32.9978C38.0005 31.4066 37.3683 29.8804 36.2431 28.7552C35.1179 27.63 33.5917 26.9978 32.0005 26.9978C30.4091 26.9978 28.8831 27.63 27.7577 28.7552C26.6325 29.8804 26.0005 31.4066 26.0005 32.9978V41.9978H22.0005V21.9978H26.0005V23.404C26.0007 23.8184 26.1295 24.2226 26.3693 24.5606C26.6091 24.8986 26.9479 25.1538 27.3389 25.291C27.7299 25.4282 28.1539 25.4406 28.5523 25.3266C28.9507 25.2124 29.3039 24.9774 29.5629 24.654C30.4605 23.5142 31.6917 22.683 33.0845 22.2766C34.4773 21.8702 35.9621 21.9088 37.3319 22.3872C38.7017 22.8656 39.8877 23.7598 40.7247 24.945C41.5617 26.13 42.0077 27.547 42.0005 28.9978V41.9978ZM14.0004 17.9978H6.00042C5.73774 17.9977 5.4776 18.0493 5.23488 18.1498C4.99216 18.2502 4.77162 18.3975 4.58588 18.5833C4.40012 18.769 4.25282 18.9896 4.15236 19.2323C4.0519 19.475 4.00028 19.7351 4.00042 19.9978V43.9978C4.00026 44.2606 4.0519 44.5206 4.15236 44.7634C4.2528 45.006 4.40012 45.2266 4.58586 45.4124C4.77162 45.5982 4.99216 45.7454 5.23488 45.8458C5.4776 45.9464 5.73774 45.998 6.00042 45.9978H14.0004C14.2631 45.998 14.5232 45.9464 14.766 45.8458C15.0087 45.7454 15.2292 45.5982 15.415 45.4124C15.6007 45.2266 15.748 45.006 15.8485 44.7634C15.9489 44.5206 16.0006 44.2606 16.0004 43.9978V19.9978C16.0006 19.7351 15.9489 19.475 15.8485 19.2323C15.748 18.9896 15.6007 18.769 15.415 18.5833C15.2292 18.3975 15.0087 18.2502 14.766 18.1498C14.5232 18.0493 14.2631 17.9977 14.0004 17.9978ZM12.0004 41.9978H8.00042V21.9978H12.0004V41.9978ZM10.0297 3.08382C9.15444 3.03142 8.27766 3.15762 7.45268 3.4547C6.6277 3.7518 5.87176 4.2136 5.23086 4.812C4.58994 5.41042 4.07746 6.13292 3.72454 6.93562C3.37162 7.7383 3.18566 8.6044 3.17798 9.4812C3.17028 10.358 3.34102 11.2272 3.6798 12.036C4.01856 12.8447 4.5183 13.5761 5.14862 14.1857C5.77892 14.7953 6.52664 15.2702 7.34628 15.5818C8.16592 15.8933 9.04036 16.0348 9.91642 15.9978H9.97306C10.8507 16.0499 11.7297 15.9226 12.5564 15.6235C13.3831 15.3245 14.1401 14.86 14.7813 14.2584C15.4224 13.6569 15.9341 12.931 16.2852 12.125C16.6363 11.319 16.8194 10.4499 16.8233 9.57074C16.8271 8.6916 16.6517 7.82092 16.3077 7.01188C15.9637 6.20284 15.4583 5.47244 14.8225 4.86532C14.1866 4.25818 13.4337 3.78706 12.6096 3.48076C11.7856 3.17446 10.9077 3.0394 10.0297 3.08382H10.0297ZM9.97308 11.9978H9.91642C9.57056 12.0398 9.2197 12.0074 8.8874 11.9027C8.5551 11.798 8.24902 11.6234 7.9897 11.3907C7.73038 11.1581 7.52382 10.8726 7.38384 10.5536C7.24388 10.2345 7.17376 9.88922 7.17816 9.54084C7.17816 8.04864 8.2973 7.0838 10.0297 7.0838C10.3791 7.03722 10.7344 7.06606 11.0718 7.16836C11.4091 7.27068 11.7205 7.44408 11.9852 7.6769C12.2498 7.90972 12.4615 8.19656 12.606 8.51808C12.7505 8.8396 12.8243 9.18836 12.8227 9.54084C12.8227 11.033 11.7035 11.9978 9.97308 11.9978Z" fill="url(#paint0_linear_145_27)"/>
<defs>
<linearGradient id="paint0_linear_145_27" x1="24.5891" y1="3.07227" x2="24.5891" y2="45.9978" gradientUnits="userSpaceOnUse">
<stop stop-color="#542FA9"/>
<stop offset="0.0001" stop-color="#542FA9"/>
<stop offset="0.502062" stop-color="#7333B7"/>
<stop offset="0.911458" stop-color="#8D36C3"/>
</linearGradient>
</defs>
</svg>
