<svg width="22" height="22" viewBox="0 0 22 22" fill="none" xmlns="http://www.w3.org/2000/svg">
<path d="M16.5 7.99891C15.6047 7.99853 14.7233 8.21997 13.9346 8.64344C13.8626 8.45386 13.7346 8.29068 13.5677 8.17555C13.4008 8.06043 13.2028 7.99882 13 7.99891H9C8.86866 7.99883 8.73859 8.02465 8.61723 8.07488C8.49587 8.1251 8.3856 8.19876 8.29273 8.29164C8.19985 8.38451 8.1262 8.49478 8.07597 8.61614C8.02574 8.7375 7.99993 8.86757 8 8.99891V20.9989C7.99993 21.1303 8.02574 21.2603 8.07597 21.3817C8.12619 21.503 8.19985 21.6133 8.29272 21.7062C8.3856 21.7991 8.49587 21.8727 8.61723 21.9229C8.73859 21.9732 8.86866 21.999 9 21.9989H13C13.1313 21.999 13.2614 21.9732 13.3828 21.9229C13.5041 21.8727 13.6144 21.7991 13.7073 21.7062C13.8002 21.6133 13.8738 21.503 13.924 21.3817C13.9743 21.2603 14.0001 21.1303 14 20.9989V15.4989C14 15.2337 14.1054 14.9793 14.2929 14.7918C14.4804 14.6043 14.7348 14.4989 15 14.4989C15.2652 14.4989 15.5196 14.6043 15.7071 14.7918C15.8946 14.9793 16 15.2337 16 15.4989V20.9989C15.9999 21.1303 16.0257 21.2603 16.076 21.3817C16.1262 21.503 16.1999 21.6133 16.2927 21.7062C16.3856 21.7991 16.4959 21.8727 16.6172 21.9229C16.7386 21.9732 16.8687 21.999 17 21.9989H21C21.1313 21.999 21.2614 21.9732 21.3828 21.9229C21.5041 21.8727 21.6144 21.7991 21.7073 21.7062C21.8002 21.6133 21.8738 21.503 21.924 21.3817C21.9743 21.2603 22.0001 21.1303 22 20.9989V13.4989C21.9982 12.0408 21.4181 10.6429 20.3871 9.61182C19.356 8.58077 17.9581 8.00072 16.5 7.99891ZM20 19.9989H18V15.4989C18 14.7033 17.6839 13.9402 17.1213 13.3776C16.5587 12.815 15.7957 12.4989 15 12.4989C14.2044 12.4989 13.4413 12.815 12.8787 13.3776C12.3161 13.9402 12 14.7033 12 15.4989V19.9989H10V9.99891H12V10.702C12.0001 10.9092 12.0646 11.1113 12.1845 11.2803C12.3043 11.4493 12.4737 11.5769 12.6692 11.6455C12.8647 11.7141 13.0767 11.7203 13.2759 11.6633C13.4751 11.6062 13.6517 11.4887 13.7813 11.327C14.23 10.7571 14.8456 10.3415 15.542 10.1383C16.2384 9.93508 16.9809 9.95443 17.6657 10.1936C18.3506 10.4328 18.9437 10.8799 19.3622 11.4725C19.7806 12.065 20.0036 12.7735 20 13.4989V19.9989ZM6 7.99891H2C1.86866 7.99883 1.73859 8.02465 1.61723 8.07488C1.49587 8.1251 1.3856 8.19876 1.29273 8.29164C1.19985 8.38451 1.1262 8.49478 1.07597 8.61614C1.02574 8.7375 0.999926 8.86757 1 8.99891V20.9989C0.999925 21.1303 1.02574 21.2603 1.07597 21.3817C1.12619 21.503 1.19985 21.6133 1.29272 21.7062C1.3856 21.7991 1.49587 21.8727 1.61723 21.9229C1.73859 21.9732 1.86866 21.999 2 21.9989H6C6.13134 21.999 6.26142 21.9732 6.38277 21.9229C6.50413 21.8727 6.6144 21.7991 6.70728 21.7062C6.80015 21.6133 6.87381 21.503 6.92404 21.3817C6.97426 21.2603 7.00008 21.1303 7 20.9989V8.99891C7.00008 8.86757 6.97426 8.7375 6.92403 8.61614C6.87381 8.49478 6.80015 8.38451 6.70728 8.29164C6.6144 8.19876 6.50413 8.1251 6.38277 8.07488C6.26141 8.02465 6.13134 7.99883 6 7.99891ZM5 19.9989H3V9.99891H5V19.9989ZM4.01465 0.541909C3.57701 0.515713 3.13862 0.578806 2.72613 0.727354C2.31364 0.875901 1.93567 1.1068 1.61522 1.406C1.29476 1.70521 1.03852 2.06646 0.86206 2.46781C0.685603 2.86915 0.592624 3.3022 0.588778 3.7406C0.584932 4.17901 0.670298 4.61361 0.839686 5.01799C1.00907 5.42237 1.25894 5.78807 1.5741 6.09285C1.88925 6.39763 2.26311 6.63512 2.67293 6.79089C3.08275 6.94665 3.51997 7.01742 3.958 6.99891H3.98632C4.42512 7.02497 4.86462 6.96129 5.27798 6.81176C5.69133 6.66223 6.06986 6.42998 6.39042 6.12922C6.71099 5.82845 6.96686 5.46548 7.14241 5.06249C7.31796 4.65949 7.40949 4.22494 7.41142 3.78537C7.41335 3.3458 7.32563 2.91046 7.15362 2.50594C6.98162 2.10142 6.72894 1.73622 6.41102 1.43266C6.09311 1.12909 5.71663 0.893534 5.30461 0.740381C4.89258 0.587229 4.45365 0.519696 4.01464 0.541909H4.01465ZM3.98633 4.99891H3.958C3.78507 5.01991 3.60964 5.00369 3.44349 4.95134C3.27734 4.89899 3.1243 4.81171 2.99464 4.69537C2.86498 4.57903 2.7617 4.43631 2.69172 4.27678C2.62173 4.11726 2.58667 3.94461 2.58887 3.77042C2.58887 3.02432 3.14844 2.5419 4.01465 2.5419C4.18935 2.51861 4.36701 2.53303 4.53567 2.58418C4.70432 2.63534 4.86006 2.72204 4.99239 2.83845C5.12471 2.95486 5.23056 3.09828 5.30279 3.25904C5.37502 3.4198 5.41197 3.59418 5.41113 3.77042C5.41113 4.51651 4.85156 4.99891 3.98633 4.99891Z" fill="#FD0201"/>
</svg>
