<svg width="21" height="20" viewBox="0 0 21 20" fill="none" xmlns="http://www.w3.org/2000/svg">
<path d="M18.44 10.9999C18.22 10.9999 17.99 10.9299 17.77 10.8799C17.3245 10.7817 16.8866 10.6514 16.46 10.4899C15.9961 10.3211 15.4861 10.3299 15.0283 10.5145C14.5704 10.6991 14.1971 11.0465 13.98 11.4899L13.76 11.9399C12.786 11.398 11.891 10.7251 11.1 9.93987C10.3147 9.14888 9.6418 8.25387 9.09998 7.27987L9.51998 6.99987C9.96334 6.78278 10.3108 6.4094 10.4954 5.95156C10.68 5.49372 10.6888 4.98378 10.52 4.51987C10.3612 4.09229 10.2309 3.65467 10.13 3.20987C10.08 2.98987 10.04 2.75987 10.01 2.52987C9.88854 1.82549 9.5196 1.18761 8.9696 0.731107C8.4196 0.274605 7.72467 0.0294769 7.00998 0.0398681H4.00998C3.57901 0.0358215 3.15223 0.124682 2.75869 0.300399C2.36515 0.476116 2.01409 0.734564 1.72941 1.05815C1.44473 1.38174 1.23311 1.76286 1.10897 2.17558C0.98482 2.5883 0.951058 3.02293 1.00998 3.44987C1.54272 7.63925 3.45601 11.5317 6.44763 14.5125C9.43925 17.4933 13.3387 19.3924 17.53 19.9099H17.91C18.6474 19.9109 19.3594 19.6404 19.91 19.1499C20.2263 18.8669 20.4791 18.52 20.6514 18.1322C20.8238 17.7443 20.9119 17.3243 20.91 16.8999V13.8999C20.8977 13.2053 20.6448 12.5364 20.1943 12.0075C19.7439 11.4786 19.1238 11.1225 18.44 10.9999ZM18.94 16.9999C18.9398 17.1419 18.9094 17.2822 18.8508 17.4115C18.7921 17.5408 18.7066 17.6562 18.6 17.7499C18.4886 17.8469 18.358 17.9193 18.2167 17.9624C18.0754 18.0054 17.9266 18.0182 17.78 17.9999C14.0349 17.5197 10.5562 15.8064 7.89269 13.1302C5.22917 10.454 3.53239 6.96721 3.06998 3.21987C3.05406 3.07339 3.06801 2.9252 3.11098 2.78426C3.15395 2.64332 3.22505 2.51256 3.31998 2.39987C3.41369 2.2932 3.52904 2.20771 3.65836 2.14909C3.78767 2.09046 3.92799 2.06005 4.06998 2.05987H7.06998C7.30253 2.05469 7.5296 2.13075 7.71212 2.27494C7.89464 2.41913 8.02119 2.62244 8.06998 2.84987C8.10998 3.1232 8.15998 3.3932 8.21998 3.65987C8.3355 4.18701 8.48924 4.70505 8.67998 5.20987L7.27998 5.85987C7.16028 5.91479 7.0526 5.99281 6.96314 6.08946C6.87367 6.18611 6.80418 6.29948 6.75865 6.42306C6.71312 6.54664 6.69245 6.678 6.69783 6.80959C6.7032 6.94118 6.73452 7.07041 6.78998 7.18987C8.22918 10.2726 10.7072 12.7507 13.79 14.1899C14.0334 14.2899 14.3065 14.2899 14.55 14.1899C14.6747 14.1453 14.7893 14.0763 14.8871 13.9871C14.985 13.8978 15.0641 13.79 15.12 13.6699L15.74 12.2699C16.2569 12.4547 16.7846 12.6084 17.32 12.7299C17.5866 12.7899 17.8566 12.8399 18.13 12.8799C18.3574 12.9287 18.5607 13.0552 18.7049 13.2377C18.8491 13.4202 18.9252 13.6473 18.92 13.8799L18.94 16.9999Z" fill="#FB1104"/>
</svg>
