<svg width="24" height="17" viewBox="0 0 24 17" fill="none" xmlns="http://www.w3.org/2000/svg">
<path d="M23 15H22V2C22 0.9 21.1 0 20 0H4C2.9 0 2 0.9 2 2V15H1C0.45 15 0 15.45 0 16C0 16.55 0.45 17 1 17H23C23.55 17 24 16.55 24 16C24 15.45 23.55 15 23 15ZM13.5 15H10.5C10.22 15 10 14.78 10 14.5C10 14.22 10.22 14 10.5 14H13.5C13.78 14 14 14.22 14 14.5C14 14.78 13.78 15 13.5 15ZM20 12H4V3C4 2.45 4.45 2 5 2H19C19.55 2 20 2.45 20 3V12Z" fill="url(#paint0_linear_20_85)"/>
<defs>
<linearGradient id="paint0_linear_20_85" x1="12" y1="0" x2="12" y2="17" gradientUnits="userSpaceOnUse">
<stop stop-color="#DD1818"/>
<stop offset="1" stop-color="#FF2F0F"/>
</linearGradient>
</defs>
</svg>
