<svg width="306" height="43" viewBox="0 0 306 43" fill="none" xmlns="http://www.w3.org/2000/svg">
<path d="M17.016 42L0.408005 2.4H9.19201L20.064 30.312L30.96 2.4H39.72L23.112 42H17.016Z" fill="#141414"/>
<path d="M44.445 42V17.424H51.813V42H44.445ZM48.141 12.312C47.341 12.312 46.605 12.12 45.933 11.736C45.277 11.336 44.749 10.8 44.349 10.128C43.949 9.456 43.749 8.72 43.749 7.92C43.749 7.12 43.949 6.392 44.349 5.736C44.749 5.08 45.277 4.56 45.933 4.176C46.605 3.776 47.341 3.576 48.141 3.576C48.941 3.576 49.669 3.776 50.325 4.176C50.981 4.56 51.501 5.08 51.885 5.736C52.285 6.392 52.485 7.12 52.485 7.92C52.485 8.72 52.285 9.456 51.885 10.128C51.501 10.8 50.981 11.336 50.325 11.736C49.669 12.12 48.941 12.312 48.141 12.312Z" fill="#141414"/>
<path d="M68.9723 42.768C66.5243 42.768 64.6203 41.992 63.2603 40.44C61.9003 38.872 61.2203 36.688 61.2203 33.888V23.016H57.9323V17.424H61.2203V8.208H68.5883V17.424H73.9883V23.016H68.5883V33.36C68.5883 34.288 68.7723 34.992 69.1403 35.472C69.5243 35.952 70.0603 36.192 70.7483 36.192C71.5163 36.192 72.2523 35.936 72.9563 35.424L74.8043 41.328C73.9723 41.776 73.0363 42.128 71.9963 42.384C70.9723 42.64 69.9643 42.768 68.9723 42.768Z" fill="#141414"/>
<path d="M93.4121 42.768C90.7081 42.768 88.2681 42.216 86.0921 41.112C83.9161 39.992 82.1881 38.456 80.9081 36.504C79.6281 34.536 78.9881 32.272 78.9881 29.712C78.9881 27.152 79.6201 24.896 80.8841 22.944C82.1641 20.976 83.8921 19.44 86.0681 18.336C88.2601 17.216 90.7081 16.656 93.4121 16.656C96.1321 16.656 98.5801 17.216 100.756 18.336C102.932 19.44 104.652 20.976 105.916 22.944C107.196 24.896 107.836 27.152 107.836 29.712C107.836 32.272 107.196 34.536 105.916 36.504C104.652 38.456 102.932 39.992 100.756 41.112C98.5801 42.216 96.1321 42.768 93.4121 42.768ZM93.4361 36.48C94.6841 36.48 95.8201 36.192 96.8441 35.616C97.8681 35.04 98.6761 34.248 99.2681 33.24C99.8601 32.216 100.156 31.04 100.156 29.712C100.156 28.384 99.8601 27.216 99.2681 26.208C98.6761 25.184 97.8681 24.384 96.8441 23.808C95.8201 23.232 94.6841 22.944 93.4361 22.944C92.1721 22.944 91.0281 23.232 90.0041 23.808C88.9961 24.384 88.1961 25.184 87.6041 26.208C87.0121 27.216 86.7161 28.384 86.7161 29.712C86.7161 31.04 87.0121 32.216 87.6041 33.24C88.1961 34.248 88.9961 35.04 90.0041 35.616C91.0281 36.192 92.1721 36.48 93.4361 36.48Z" fill="#141414"/>
<path d="M114.266 42V17.424H121.634V20.952C122.546 19.576 123.658 18.52 124.97 17.784C126.298 17.032 127.722 16.656 129.242 16.656C130.106 16.656 131.002 16.784 131.93 17.04C132.858 17.296 133.634 17.624 134.258 18.024L131.186 24.24C130.642 23.872 130.002 23.584 129.266 23.376C128.546 23.152 127.874 23.04 127.25 23.04C126.29 23.04 125.378 23.288 124.514 23.784C123.65 24.28 122.954 24.928 122.426 25.728C121.898 26.512 121.634 27.36 121.634 28.272V42H114.266Z" fill="#141414"/>
<path d="M152.353 42V2.4H160.129V18.912L174.649 2.4H184.153L167.257 21.456L186.553 42H175.801L160.129 25.272V42H152.353Z" fill="#141414"/>
<path d="M190.789 42V17.424H198.157V42H190.789ZM194.485 12.312C193.685 12.312 192.949 12.12 192.277 11.736C191.621 11.336 191.093 10.8 190.693 10.128C190.293 9.456 190.093 8.72 190.093 7.92C190.093 7.12 190.293 6.392 190.693 5.736C191.093 5.08 191.621 4.56 192.277 4.176C192.949 3.776 193.685 3.576 194.485 3.576C195.285 3.576 196.013 3.776 196.669 4.176C197.325 4.56 197.845 5.08 198.229 5.736C198.629 6.392 198.829 7.12 198.829 7.92C198.829 8.72 198.629 9.456 198.229 10.128C197.845 10.8 197.325 11.336 196.669 11.736C196.013 12.12 195.285 12.312 194.485 12.312Z" fill="#141414"/>
<path d="M206.844 42V0.720001H214.212V42H206.844Z" fill="#141414"/>
<path d="M229.835 42.768C227.755 42.768 225.891 42.44 224.243 41.784C222.611 41.128 221.251 40.168 220.163 38.904L223.259 33.96C224.283 35.048 225.355 35.88 226.475 36.456C227.595 37.032 228.715 37.32 229.835 37.32C230.459 37.32 230.995 37.216 231.443 37.008C231.907 36.8 232.267 36.504 232.523 36.12C232.795 35.72 232.931 35.24 232.931 34.68C232.931 34.04 232.747 33.536 232.379 33.168C232.027 32.8 231.483 32.464 230.747 32.16C230.011 31.84 229.059 31.44 227.891 30.96C226.899 30.544 225.947 30.072 225.035 29.544C224.123 29.016 223.379 28.344 222.803 27.528C222.243 26.712 221.963 25.68 221.963 24.432C221.963 22.912 222.387 21.576 223.235 20.424C224.083 19.256 225.251 18.344 226.739 17.688C228.243 17.032 229.971 16.704 231.923 16.704C233.139 16.704 234.411 16.888 235.739 17.256C237.083 17.624 238.515 18.184 240.035 18.936L237.515 23.664C235.451 22.336 233.603 21.672 231.971 21.672C231.059 21.672 230.331 21.872 229.787 22.272C229.243 22.672 228.971 23.176 228.971 23.784C228.971 24.36 229.251 24.864 229.811 25.296C230.387 25.712 231.083 26.088 231.899 26.424C232.731 26.744 233.523 27.04 234.275 27.312C235.507 27.76 236.595 28.256 237.539 28.8C238.499 29.344 239.251 30.056 239.795 30.936C240.339 31.8 240.611 32.96 240.611 34.416C240.611 36.192 240.179 37.704 239.315 38.952C238.467 40.184 237.235 41.128 235.619 41.784C234.019 42.44 232.091 42.768 229.835 42.768Z" fill="#141414"/>
<path d="M259.678 42.768C256.974 42.768 254.534 42.216 252.358 41.112C250.182 39.992 248.454 38.456 247.174 36.504C245.894 34.536 245.254 32.272 245.254 29.712C245.254 27.152 245.886 24.896 247.15 22.944C248.43 20.976 250.158 19.44 252.334 18.336C254.526 17.216 256.974 16.656 259.678 16.656C262.398 16.656 264.846 17.216 267.022 18.336C269.198 19.44 270.918 20.976 272.182 22.944C273.462 24.896 274.102 27.152 274.102 29.712C274.102 32.272 273.462 34.536 272.182 36.504C270.918 38.456 269.198 39.992 267.022 41.112C264.846 42.216 262.398 42.768 259.678 42.768ZM259.702 36.48C260.95 36.48 262.086 36.192 263.11 35.616C264.134 35.04 264.942 34.248 265.534 33.24C266.126 32.216 266.422 31.04 266.422 29.712C266.422 28.384 266.126 27.216 265.534 26.208C264.942 25.184 264.134 24.384 263.11 23.808C262.086 23.232 260.95 22.944 259.702 22.944C258.438 22.944 257.294 23.232 256.27 23.808C255.262 24.384 254.462 25.184 253.87 26.208C253.278 27.216 252.982 28.384 252.982 29.712C252.982 31.04 253.278 32.216 253.87 33.24C254.462 34.248 255.262 35.04 256.27 35.616C257.294 36.192 258.438 36.48 259.702 36.48Z" fill="#141414"/>
<path d="M280.532 42V17.424H287.899V20.16C288.843 19.104 290.02 18.256 291.428 17.616C292.852 16.976 294.42 16.656 296.132 16.656C298.02 16.656 299.676 17.072 301.1 17.904C302.54 18.72 303.668 19.864 304.484 21.336C305.3 22.792 305.708 24.496 305.708 26.448V42H298.339V28.008C298.339 26.248 297.875 24.88 296.947 23.904C296.035 22.912 294.78 22.416 293.18 22.416C292.092 22.416 291.148 22.64 290.348 23.088C289.564 23.52 288.956 24.12 288.524 24.888C288.108 25.64 287.899 26.496 287.899 27.456V42H280.532Z" fill="#141414"/>
</svg>
