<svg width="245" height="524" viewBox="0 0 245 524" fill="none" xmlns="http://www.w3.org/2000/svg">
<path d="M195.432 174.962C200.215 173.925 204.081 173.045 206.571 172.354C199.789 164.815 197.07 161.045 192.647 155.673C192.647 155.673 193.532 161.516 195.399 174.899L195.432 174.962ZM198.708 198.397V198.68C203.524 230.911 209.159 266.535 209.552 273.478L80.9293 273.258C81.3552 251.079 90.7579 188.973 96.1636 157.024C93.3133 158.155 43.155 175.873 37.1923 170.061V169.904C33.0316 147.034 27.6914 122.091 24.6445 103.305L38.7321 97.4302C40.9272 103.996 50.4936 128.028 56.489 140.625C69.9295 128.762 84.6077 118.256 100.292 109.274C110.12 104.184 126.173 104.813 126.173 104.813C126.379 103.366 126.953 101.991 127.844 100.807C128.735 99.6236 129.917 98.6689 131.284 98.0271L132.234 97.6815C143.21 94.7914 163.325 96.8648 165.848 98.3413C167.961 99.9084 169.442 102.128 170.041 104.624C170.041 104.624 196.808 108.394 204.671 114.583C204.671 114.583 228.521 145.84 240.447 170.375C244.837 179.391 243.166 184.92 235.172 189.224C230.585 192.177 214.86 195.695 198.774 198.397H198.708ZM154.316 185.831C154.906 184.323 151.269 180.082 146.977 179.737H146.551L148.189 166.291C148.189 164.626 141.637 163.15 133.741 163.15C125.846 163.15 119.326 164.532 119.326 166.291C119.331 166.485 119.4 166.672 119.523 166.825L121.292 181.747C121.277 181.83 121.277 181.915 121.292 181.999C120.819 181.969 120.346 182.039 119.904 182.202C119.462 182.365 119.063 182.618 118.733 182.943C118.403 183.269 118.15 183.659 117.992 184.087C117.835 184.515 117.776 184.971 117.819 185.423C117.983 186.48 118.407 187.485 119.056 188.353C119.706 189.222 120.562 189.93 121.554 190.418V190.418C121.119 190.325 120.668 190.326 120.233 190.419C119.799 190.512 119.39 190.695 119.037 190.955C118.685 191.216 118.395 191.548 118.191 191.927C117.986 192.306 117.87 192.724 117.852 193.151C118.061 194.104 118.498 194.998 119.13 195.761C119.761 196.524 120.568 197.136 121.488 197.549C121.087 197.422 120.661 197.386 120.243 197.444C119.825 197.503 119.426 197.654 119.08 197.886C118.733 198.117 118.448 198.423 118.246 198.779C118.044 199.135 117.932 199.531 117.917 199.936C117.917 201.444 120.145 203.329 124.142 204.649V205.402L125.125 213.853C127.861 214.62 130.694 215.022 133.545 215.047C136.651 214.986 139.739 214.585 142.751 213.853L143.668 205.874V205.371C147.793 204.65 151.832 203.534 155.725 202.041L156.282 201.601C153.366 198.805 151.269 189.758 154.381 185.831H154.316Z" fill="url(#paint0_linear_18_6)"/>
<path d="M131.58 516.219V516.03H78.5384C76.9986 507.674 83.4855 503.998 90.3327 503.244C104.584 501.642 121.686 492.94 124.339 492.406H153.563C153.563 497.244 153.563 500.197 153.563 500.794V501.171C150.224 502.15 146.805 502.854 143.341 503.276C136.494 504.124 129.974 507.8 131.58 516.219Z" fill="#DD1818"/>
<path d="M131.579 516.03V516.219C129.974 507.8 136.494 504.124 143.341 503.37C146.804 502.949 150.224 502.245 153.562 501.266C164.8 498.124 175.316 492.941 177.348 492.532H207.325C207.325 505.381 207.161 513.894 207.325 516.093L131.579 516.03Z" fill="#DD1818"/>
<path d="M145.732 41.0723C146.091 41.0965 146.427 41.2549 146.665 41.5133C146.904 41.7717 147.028 42.1097 147.01 42.4546C146.977 42.8017 146.805 43.1231 146.53 43.3514C146.255 43.5798 145.899 43.6974 145.536 43.6797C145.176 43.6478 144.844 43.4817 144.611 43.2172C144.379 42.9528 144.263 42.6112 144.291 42.2661C144.299 42.0953 144.343 41.9278 144.421 41.774C144.499 41.6202 144.608 41.4832 144.743 41.3715C144.878 41.2597 145.036 41.1755 145.206 41.1241C145.376 41.0727 145.555 41.055 145.732 41.0723V41.0723Z" fill="black"/>
<path d="M127.747 40.6007C128.072 40.6668 128.361 40.8435 128.561 41.0983C128.761 41.353 128.858 41.6686 128.834 41.9865C128.81 42.3045 128.667 42.6034 128.431 42.8279C128.195 43.0525 127.882 43.1875 127.55 43.2081C127.354 43.2202 127.157 43.1919 126.974 43.1251C126.79 43.0583 126.623 42.9546 126.485 42.8208C126.346 42.687 126.239 42.5264 126.171 42.3497C126.103 42.1729 126.075 41.9842 126.089 41.7963C126.103 41.6083 126.159 41.4254 126.253 41.26C126.347 41.0945 126.477 40.9503 126.634 40.837C126.791 40.7237 126.972 40.644 127.164 40.6032C127.356 40.5625 127.554 40.5616 127.747 40.6007V40.6007Z" fill="black"/>
<path d="M96.2623 157.118C93.412 158.249 43.2537 175.967 37.291 170.155" stroke="black" stroke-width="2.6488" stroke-miterlimit="10"/>
<path d="M163.588 30.5793C163.195 27.9405 162.769 24.8618 162.146 21.7204C161.381 16.5839 159.286 11.713 156.053 7.55233C148.55 -0.489823 140.491 2.52598 133.644 9.28014C131.679 11.232 129.882 13.3332 128.271 15.5631C123.372 22.2887 119.602 29.7088 117.099 37.5533C114.216 48.4228 130.204 72.9263 134.823 74.6855C135.376 74.8797 135.946 75.0268 136.527 75.1253C143.276 76.3505 151.859 70.5702 154.742 64.8841" stroke="black" stroke-width="2.6488" stroke-miterlimit="10" stroke-linecap="round"/>
<path d="M165.914 98.4354C165.914 79.8379 166.963 62.9368 165.357 44.4022" stroke="black" stroke-width="2.6488" stroke-miterlimit="10"/>
<path d="M136.69 74.309C136.674 74.5601 136.674 74.8119 136.69 75.0629C134.987 82.3826 134.528 91.43 131.383 97.9328" stroke="black" stroke-width="2.6488" stroke-miterlimit="10"/>
<path d="M160.901 33.8781C161.71 32.7299 162.656 31.6757 163.719 30.7366C171.385 24.4537 176.463 38.4332 173.318 42.3915C172.325 43.3922 171.045 44.0876 169.639 44.3897C168.233 44.6917 166.766 44.5866 165.422 44.0878C164.806 43.9264 164.212 43.6944 163.653 43.3967" stroke="black" stroke-width="2.6488" stroke-miterlimit="10" stroke-linecap="round"/>
<path d="M128.336 15.5006C126.501 15.3121 101.046 10.38 104.682 3.53159C106.779 -0.363826 120.277 3.78291 133.709 9.12341C146.486 14.2126 159.263 20.3699 162.212 21.6893L162.67 21.8778" stroke="black" stroke-width="2.6488" stroke-miterlimit="10"/>
<path d="M143.145 35.2612C144.483 34.8662 145.9 34.7827 147.279 35.0176C148.658 35.2525 149.958 35.7991 151.073 36.6121" stroke="black" stroke-width="2.6488" stroke-miterlimit="10" stroke-linecap="round"/>
<path d="M165.062 36.4228C166.47 37.6336 168.282 38.324 170.173 38.3705" stroke="black" stroke-width="2.6488" stroke-miterlimit="10" stroke-linecap="round"/>
<path d="M125.354 35.8258C127.517 34.8833 132.398 35.1346 133.283 37.1766C134.692 40.4751 132.595 47.3235 131.71 51.2504C131.088 53.9206 130.105 59.104 134.986 57.7218" stroke="black" stroke-width="2.6488" stroke-miterlimit="10" stroke-linecap="round"/>
<path d="M141.702 64.3188C141.12 64.9216 140.404 65.3914 139.607 65.6938C138.81 65.9962 137.953 66.1234 137.098 66.0661C136.243 66.0089 135.412 65.7686 134.667 65.3629C133.922 64.9572 133.281 64.3965 132.791 63.722" stroke="black" stroke-width="2.6488" stroke-miterlimit="10" stroke-linecap="round"/>
<path d="M154.349 416.384C154.054 449.872 153.628 478.773 153.497 492.502C153.497 497.339 153.497 500.292 153.497 500.889" stroke="black" stroke-width="2.6488" stroke-miterlimit="10"/>
<path d="M186.947 283.279C186.554 296.725 196.153 304.83 208.144 308.128C211.583 309.066 215.122 309.625 218.693 309.793" stroke="black" stroke-width="2.6488" stroke-miterlimit="10" stroke-linecap="round"/>
<path d="M207.194 516.031C207.194 513.832 207.194 505.319 207.194 492.47C207.555 453.359 208.374 373.785 208.013 308.129C208.013 296.442 207.849 285.196 207.686 274.703" stroke="black" stroke-width="2.6488" stroke-linecap="round" stroke-linejoin="round"/>
<path d="M131.58 516.219L207.194 516.533C207.194 516.533 207.194 516.313 207.194 516.093" stroke="black" stroke-width="2.6488" stroke-linecap="round" stroke-linejoin="round"/>
<path d="M136.101 299.143C137.902 338.727 144.073 378.016 154.513 416.351C161.426 443.054 169.452 468.594 177.184 492.155V492.469C175.153 492.878 164.637 498.092 153.399 501.202C150.061 502.182 146.641 502.886 143.178 503.307C136.33 504.061 129.811 507.737 131.416 516.156" stroke="black" stroke-width="2.6488" stroke-linecap="round" stroke-linejoin="round"/>
<path d="M83.5182 273.636C85.5494 360.309 105.338 434.793 124.274 492.47C121.62 493.004 104.617 501.706 90.2671 503.308C83.4199 504.062 76.933 507.738 78.4728 516.094H132.301" stroke="black" stroke-width="2.6488" stroke-linecap="round" stroke-linejoin="round"/>
<path d="M123.061 492.502H124.273H153.006" stroke="black" stroke-width="2.6488" stroke-miterlimit="10"/>
<path d="M177.315 492.502H177.348H207.259" stroke="black" stroke-width="2.6488" stroke-miterlimit="10"/>
<path d="M207.194 516.534V522H131.58V516.22V516.063H207.194V516.094V516.534Z" stroke="black" stroke-width="2.6488" stroke-linecap="round" stroke-linejoin="round"/>
<path d="M131.482 516.22V522H78.5384V516.157V516.063H131.482V516.22Z" stroke="black" stroke-width="2.6488" stroke-linecap="round" stroke-linejoin="round"/>
<path d="M198.84 198.68C203.656 230.911 209.291 266.535 209.684 273.478L81.061 273.258C81.4869 251.079 90.8896 188.973 96.2953 157.024C96.2953 156.113 96.5901 155.265 96.7212 154.416" stroke="black" stroke-width="2.6488" stroke-linecap="round" stroke-linejoin="round"/>
<path d="M38.8963 96.9279C44.4658 89.1685 39.7808 76.1 38.2083 70.9165C37.2909 67.7751 32.5405 68.0264 33.0319 72.4873C33.425 76.3199 33.982 80.3724 32.3439 81.9117" stroke="black" stroke-width="2.6488" stroke-miterlimit="10" stroke-linecap="round"/>
<path d="M32.1148 82.4136C32.1294 82.3305 32.1294 82.2455 32.1148 82.1623V82.1623C28.9369 73.5233 18.6169 57.816 13.2767 60.9574C12.7986 61.1994 12.4344 61.6068 12.2579 62.0968C12.0815 62.5869 12.1061 63.1229 12.3266 63.5963C12.9379 64.8852 13.8188 66.04 14.9148 66.989C18.3659 69.9025 21.0585 73.5495 22.7777 77.6386" stroke="black" stroke-width="2.6488" stroke-miterlimit="10" stroke-linecap="round"/>
<path d="M12.1629 63.6914C11.5798 62.958 10.8256 62.3657 9.96089 61.962C9.09613 61.5583 8.14481 61.3544 7.18311 61.3667C6.53623 61.3322 5.89816 61.523 5.38642 61.904C4.87469 62.285 4.52378 62.8306 4.39836 63.44C3.87417 65.0108 5.02084 66.2674 6.1675 67.304C10.3699 71.3783 14.0139 75.9493 17.0117 80.9066" stroke="black" stroke-width="2.6488" stroke-miterlimit="10" stroke-linecap="round"/>
<path d="M24.1866 103.431C19.5999 102.928 16.0289 92.7184 14.8167 89.3571C12.7667 84.4571 9.79 79.9627 6.03655 76.1001C4.66055 74.5608 1.84304 72.0162 2.00685 69.8171C2.11523 69.3984 2.31239 69.0056 2.58604 68.6632C2.85968 68.3208 3.20395 68.0361 3.59738 67.8268C3.99081 67.6176 4.42496 67.4882 4.87279 67.4469C5.32062 67.4056 5.77255 67.4532 6.20037 67.5867" stroke="black" stroke-width="2.6488" stroke-miterlimit="10" stroke-linecap="round"/>
<path d="M25.6935 88.1629C24.383 84.0162 29.6577 82.2884 32.2458 82.3826" stroke="black" stroke-width="2.6488" stroke-miterlimit="10" stroke-linecap="round"/>
<path d="M55.4739 141.756L56.4895 140.877C69.9175 128.925 84.5962 118.335 100.292 109.274C110.121 104.184 126.174 104.813 126.174 104.813C126.379 103.366 126.953 101.991 127.844 100.807C128.736 99.6236 129.917 98.6689 131.285 98.0271L132.235 97.6815C143.21 94.7914 163.326 96.8648 165.848 98.3413C167.961 99.9084 169.443 102.128 170.042 104.624C170.042 104.624 196.808 108.394 204.671 114.583C204.671 114.583 228.522 145.84 240.447 170.375C244.837 179.391 243.166 184.92 235.172 189.224C230.356 191.863 214.795 195.507 198.709 198.083C179.739 201.224 160.082 203.423 156.806 201.758C156.514 201.611 156.249 201.421 156.02 201.193C153.301 198.491 151.204 189.475 154.316 185.486C154.942 184.699 155.815 184.127 156.806 183.852C170.533 180.051 185.047 176.909 195.367 174.616C200.15 173.579 204.016 172.7 206.506 172.009C199.724 164.469 197.005 160.699 192.582 155.327C192.582 155.327 193.467 161.171 195.334 174.553" stroke="black" stroke-width="2.6488" stroke-linecap="round" stroke-linejoin="round"/>
<path d="M146.192 182.972C144.226 187.841 134.43 186.993 130.138 186.333C128.631 186.114 122.472 184.417 121.391 181.778C121.376 181.695 121.376 181.61 121.391 181.527" stroke="black" stroke-width="2.6488" stroke-miterlimit="10"/>
<path d="M121.423 181.81C120.951 181.78 120.477 181.85 120.036 182.013C119.594 182.176 119.194 182.429 118.864 182.754C118.534 183.08 118.281 183.47 118.124 183.898C117.966 184.326 117.907 184.782 117.95 185.234C118.114 186.291 118.538 187.296 119.188 188.164C119.837 189.033 120.693 189.741 121.685 190.229C126.383 192.848 131.898 193.784 137.247 192.867" stroke="black" stroke-width="2.6488" stroke-miterlimit="10" stroke-linecap="round"/>
<path d="M121.62 190.261C121.185 190.169 120.734 190.169 120.3 190.262C119.865 190.355 119.457 190.538 119.104 190.799C118.751 191.059 118.462 191.391 118.257 191.77C118.052 192.149 117.936 192.567 117.918 192.994C118.127 193.947 118.565 194.841 119.196 195.604C119.827 196.367 120.634 196.979 121.555 197.392C126.264 199.716 131.623 200.541 136.854 199.748" stroke="black" stroke-width="2.6488" stroke-miterlimit="10" stroke-linecap="round"/>
<path d="M121.489 197.455C121.088 197.328 120.661 197.292 120.243 197.351C119.825 197.409 119.427 197.56 119.081 197.792C118.734 198.024 118.448 198.33 118.247 198.685C118.045 199.041 117.932 199.438 117.918 199.842C117.918 201.35 120.146 203.235 124.143 204.555C130.423 206.335 137.067 206.584 143.472 205.277C147.597 204.556 151.636 203.44 155.529 201.947" stroke="black" stroke-width="2.6488" stroke-miterlimit="10" stroke-linecap="round"/>
<path d="M154.316 185.768C154.906 184.261 151.269 180.02 146.977 179.674" stroke="black" stroke-width="2.6488" stroke-miterlimit="10" stroke-linecap="round"/>
<path d="M119.458 166.103L119.523 166.637L121.292 181.559L121.325 181.748" stroke="black" stroke-width="2.6488" stroke-linecap="round" stroke-linejoin="round"/>
<path d="M148.222 166.103L148.19 166.198L146.551 179.643L146.158 183.004" stroke="black" stroke-width="2.6488" stroke-linecap="round" stroke-linejoin="round"/>
<path d="M119.523 166.637C119.4 166.484 119.331 166.297 119.327 166.103C119.327 164.438 125.879 162.962 133.742 162.962C141.605 162.962 148.19 164.344 148.19 166.103C147.993 167.737 141.638 169.056 133.775 169.056C126.6 169.151 120.67 168.051 119.523 166.637Z" stroke="black" stroke-width="2.6488" stroke-linecap="round" stroke-linejoin="round"/>
<path d="M143.57 205.78L142.653 213.759C139.641 214.491 136.553 214.892 133.447 214.953C130.596 214.928 127.763 214.526 125.027 213.759L124.044 205.309" stroke="black" stroke-width="2.6488" stroke-linecap="round" stroke-linejoin="round"/>
<path d="M37.0291 169.999C32.8683 147.129 27.5282 122.186 24.4813 103.4L38.5689 97.525C40.7639 104.091 50.3304 128.123 56.3258 140.72" stroke="black" stroke-width="2.6488" stroke-linecap="round" stroke-linejoin="round"/>
<path d="M137.575 158.877C138.407 158.048 139.048 157.06 139.454 155.977C139.861 154.894 140.024 153.741 139.934 152.594C139.138 150.808 138.196 149.085 137.116 147.442C135.052 142.918 137.116 139.619 140.392 136.509" stroke="white" stroke-width="2.6488" stroke-miterlimit="10" stroke-linecap="round"/>
<path d="M129.286 158.877C130.119 158.048 130.76 157.06 131.166 155.977C131.573 154.894 131.736 153.741 131.645 152.594C130.836 150.814 129.895 149.092 128.828 147.442C126.731 142.918 128.828 139.619 132.104 136.509" stroke="white" stroke-width="2.6488" stroke-miterlimit="10" stroke-linecap="round"/>
<defs>
<linearGradient id="paint0_linear_18_6" x1="133.732" y1="96.2302" x2="133.732" y2="273.478" gradientUnits="userSpaceOnUse">
<stop stop-color="#DD1818"/>
<stop offset="1" stop-color="#FF2F0F"/>
</linearGradient>
</defs>
</svg>
